999
CadZinho - Minimalist CAD by Zecruel
0
SECTION
2
HEADER
9
$ACADVER
1
AC1021
9
$HANDSEED
5
2AE
9
$INSUNITS
70
4
9
$LWDISPLAY
290
1
9
$LTSCALE
40
5
0
ENDSEC
0
SECTION
2
CLASSES
0
ENDSEC
0
SECTION
2
TABLES
0
TABLE
2
VPORT
5
1
100
AcDbSymbolTable
70
1000
0
VPORT
5
25
100
AcDbSymbolTableRecord
100
AcDbViewportTableRecord
2
*ACTIVE
70
0
10
0
20
0
11
1
21
1
12
20
22
320
13
0
23
0
14
100
24
100
15
100
25
100
16
0
26
0
36
1
17
0
27
0
37
0
40
25
41
1.8
42
50
43
0
44
0
50
0
51
0
0
ENDTAB
0
TABLE
2
LTYPE
5
4
100
AcDbSymbolTable
70
1000
0
LTYPE
5
5
100
AcDbSymbolTableRecord
100
AcDbLinetypeTableRecord
2
ByBlock
70
0
3

72
65
73
0
40
0
0
LTYPE
5
6
100
AcDbSymbolTableRecord
100
AcDbLinetypeTableRecord
2
ByLayer
70
0
3

72
65
73
0
40
0
0
LTYPE
5
7
100
AcDbSymbolTableRecord
100
AcDbLinetypeTableRecord
2
Continuous
70
0
3
___________________________________
72
65
73
0
40
0
0
LTYPE
5
8
100
AcDbSymbolTableRecord
100
AcDbLinetypeTableRecord
2
Border
70
0
3
____ . ____ ____ . ____ ____ . ____
72
65
73
6
40
1.75
49
0.5
74
0
49
-0.25
74
0
49
0.5
74
0
49
-0.25
74
0
49
0
74
0
49
-0.25
74
0
0
LTYPE
5
9
100
AcDbSymbolTableRecord
100
AcDbLinetypeTableRecord
2
Center
70
0
3
____ _ ____ _ ____ _ ____ _ ____ _
72
65
73
4
40
2
49
1.25
74
0
49
-0.25
74
0
49
0.25
74
0
49
-0.25
74
0
0
LTYPE
5
A
100
AcDbSymbolTableRecord
100
AcDbLinetypeTableRecord
2
Dashdot
70
0
3
____ . ____ . ____ . ____ . ____ .
72
65
73
4
40
1
49
0.5
74
0
49
-0.25
74
0
49
0
74
0
49
-0.25
74
0
0
LTYPE
5
B
100
AcDbSymbolTableRecord
100
AcDbLinetypeTableRecord
2
Dashed
70
0
3
____ ____ ____ ____ ____ ____ ____
72
65
73
2
40
0.75
49
0.5
74
0
49
-0.25
74
0
0
LTYPE
5
C
100
AcDbSymbolTableRecord
100
AcDbLinetypeTableRecord
2
Divide
70
0
3
____ . . ____ . . ____ . . ____ . .
72
65
73
6
40
1.25
49
0.5
74
0
49
-0.25
74
0
49
0
74
0
49
-0.25
74
0
49
0
74
0
49
-0.25
74
0
0
LTYPE
5
D
100
AcDbSymbolTableRecord
100
AcDbLinetypeTableRecord
2
Dot
70
0
3
. . . . . . . . . . . . . . . . . .
72
65
73
2
40
0.25
49
0
74
0
49
-0.25
74
0
0
LTYPE
5
E
100
AcDbSymbolTableRecord
100
AcDbLinetypeTableRecord
2
Hidden
70
0
3
__ __ __ __ __ __ __ __ __ __ __ __
72
65
73
2
40
0.375
49
0.25
74
0
49
-0.125
74
0
0
LTYPE
5
F
100
AcDbSymbolTableRecord
100
AcDbLinetypeTableRecord
2
Phantom
70
0
3
_____ _ _ _____ _ _ _____ _ _ _____
72
65
73
6
40
2.5
49
1.25
74
0
49
-0.25
74
0
49
0.25
74
0
49
-0.25
74
0
49
0.25
74
0
49
-0.25
74
0
0
ENDTAB
0
TABLE
2
LAYER
5
10
100
AcDbSymbolTable
70
1000
0
LAYER
5
11
100
AcDbSymbolTableRecord
100
AcDbLayerTableRecord
2
0
70
0
62
7
6
Continuous
370
0
390
2B
0
LAYER
5
39
100
AcDbSymbolTableRecord
100
AcDbLayerTableRecord
2
aux
70
0
62
7
6
Dot
370
0
390
2B
0
LAYER
5
3A
100
AcDbSymbolTableRecord
100
AcDbLayerTableRecord
2
wheel
70
0
62
250
6
Continuous
370
0
390
2B
0
LAYER
5
3B
100
AcDbSymbolTableRecord
100
AcDbLayerTableRecord
2
frame
70
0
62
1
6
Continuous
370
0
390
2B
0
LAYER
5
3C
100
AcDbSymbolTableRecord
100
AcDbLayerTableRecord
2
wing
70
0
62
3
6
Continuous
370
0
390
2B
0
LAYER
5
3D
100
AcDbSymbolTableRecord
100
AcDbLayerTableRecord
2
propeler
70
0
62
4
6
Continuous
370
0
390
2B
0
LAYER
5
3E
100
AcDbSymbolTableRecord
100
AcDbLayerTableRecord
2
tail
70
0
62
5
6
Continuous
370
0
390
2B
0
LAYER
5
66
100
AcDbSymbolTableRecord
100
AcDbLayerTableRecord
2
ground
70
0
62
28
6
Continuous
370
0
390
2B
0
LAYER
5
92
100
AcDbSymbolTableRecord
100
AcDbLayerTableRecord
2
signature
70
0
62
7
6
Continuous
370
0
390
2B
0
LAYER
5
1DB
100
AcDbSymbolTableRecord
100
AcDbLayerTableRecord
2
rudder
70
0
62
5
6
Continuous
370
0
390
2B
0
ENDTAB
0
TABLE
2
STYLE
5
12
100
AcDbSymbolTable
70
1000
0
STYLE
5
13
100
AcDbSymbolTableRecord
100
AcDbTextStyleTableRecord
2
Standard
70
0
40
0
41
1
50
0
71
0
42
1
3
TXT.SHX
4

0
STYLE
5
24
100
AcDbSymbolTableRecord
100
AcDbTextStyleTableRecord
2

70
1
40
0
41
1
50
0
71
0
42
1
3
LTYPESHP.SHX
4

0
ENDTAB
0
TABLE
2
VIEW
5
14
100
AcDbSymbolTable
70
0
0
ENDTAB
0
TABLE
2
UCS
5
15
100
AcDbSymbolTable
70
0
0
ENDTAB
0
TABLE
2
APPID
5
16
100
AcDbSymbolTable
70
10
0
APPID
5
17
100
AcDbSymbolTableRecord
100
AcDbRegAppTableRecord
2
ACAD
70
0
0
APPID
5
18
100
AcDbSymbolTableRecord
100
AcDbRegAppTableRecord
2
CADZINHO
70
0
0
ENDTAB
0
TABLE
2
DIMSTYLE
5
19
100
AcDbSymbolTable
70
1
100
AcDbDimStyleTable
71
1
0
DIMSTYLE
105
1A
100
AcDbSymbolTableRecord
100
AcDbDimStyleTableRecord
2
Standard
70
0
3
<>
5
OPEN30
40
1
41
1
42
0.5
44
1
140
1
144
1
147
0.5
77
1
271
2
340
13
0
ENDTAB
0
TABLE
2
BLOCK_RECORD
5
1B
100
AcDbSymbolTable
70
9999
0
BLOCK_RECORD
5
1C
100
AcDbSymbolTableRecord
100
AcDbBlockTableRecord
2
*Model_Space
70
0
0
BLOCK_RECORD
5
1D
100
AcDbSymbolTableRecord
100
AcDbBlockTableRecord
2
*Paper_Space
70
0
0
BLOCK_RECORD
5
9E
100
AcDbSymbolTableRecord
100
AcDbBlockTableRecord
2
sd_sig
70
0
0
ENDTAB
0
ENDSEC
0
SECTION
2
BLOCKS
0
BLOCK
5
1E
100
AcDbEntity
8
0
100
AcDbBlockBegin
2
*Model_Space
70
0
10
0
20
0
30
0
3
*Model_Space
1

0
ENDBLK
5
1F
100
AcDbEntity
8
0
100
AcDbBlockEnd
0
BLOCK
5
20
100
AcDbEntity
8
0
100
AcDbBlockBegin
2
*Paper_Space
70
0
10
0
20
0
30
0
3
*Paper_Space
1

0
ENDBLK
5
21
100
AcDbEntity
8
0
100
AcDbBlockEnd
0
BLOCK
5
9F
330
9E
100
AcDbEntity
8
0
100
AcDbBlockBegin
2
sd_sig
70
0
10
0
20
0
30
0
3
sd_sig
1

4
Alberto Santos Dumont signature
0
SPLINE
5
A0
100
AcDbEntity
67
0
8
0
6
ByBlock
62
0
370
-2
100
AcDbSpline
70
0
71
3
72
19
73
15
74
0
40
0
40
0
40
0
40
0
40
1
40
2
40
3
40
4
40
5
40
6
40
7
40
8
40
9
40
10
40
11
40
12
40
12
40
12
40
12
10
8.07421
20
5.52331
30
0
10
6.78003
20
5.5565
30
0
10
6.61411
20
6.12063
30
0
10
6.94595
20
6.75113
30
0
10
8.53879
20
8.04531
30
0
10
8.53879
20
8.04531
30
0
10
6.28226
20
6.25337
30
0
10
5.28674
20
5.85515
30
0
10
4.19166
20
5.82197
30
0
10
4.3244
20
7.04979
30
0
10
5.28674
20
8.31079
30
0
10
7.01232
20
9.10721
30
0
10
8.14058
20
9.00766
30
0
10
8.57518
20
8.53987
30
0
10
8.54497
20
8.11695
30
0
0
SPLINE
5
A1
100
AcDbEntity
67
0
8
0
6
ByBlock
62
0
370
-2
100
AcDbSpline
70
0
71
3
72
9
73
5
74
0
40
0
40
0
40
0
40
0
40
1
40
2
40
2
40
2
40
2
10
10.1032
20
5.54647
30
0
10
9.57897
20
5.39229
30
0
10
9.65606
20
5.00684
30
0
10
10.2111
20
5.05309
30
0
10
10.1957
20
5.42313
30
0
0
SPLINE
5
A2
100
AcDbEntity
67
0
8
0
6
ByBlock
62
0
370
-2
100
AcDbSpline
70
0
71
3
72
16
73
12
74
0
40
0
40
0
40
0
40
0
40
1
40
2
40
3
40
4
40
5
40
6
40
7
40
8
40
9
40
9
40
9
40
9
10
13.6114
20
8.01912
30
0
10
17.0877
20
8.03641
30
0
10
19.3361
20
8.7801
30
0
10
19.7339
20
9.00494
30
0
10
20.1143
20
9.76593
30
0
10
19.8549
20
10.1291
30
0
10
19.2323
20
10.1637
30
0
10
18.4021
20
9.99077
30
0
10
17.3471
20
8.50338
30
0
10
16.3267
20
6.92952
30
0
10
15.6003
20
5.73615
30
0
10
14.1648
20
4.56008
30
0
0
SPLINE
5
A3
100
AcDbEntity
67
0
8
0
6
ByBlock
62
0
370
-2
100
AcDbSpline
70
0
71
3
72
53
73
49
74
0
40
0
40
0
40
0
40
0
40
1
40
2
40
3
40
4
40
5
40
6
40
7
40
8
40
9
40
10
40
11
40
12
40
13
40
14
40
15
40
16
40
17
40
18
40
19
40
20
40
21
40
22
40
23
40
24
40
25
40
26
40
27
40
28
40
29
40
30
40
31
40
32
40
33
40
34
40
35
40
36
40
37
40
38
40
39
40
40
40
41
40
42
40
43
40
44
40
45
40
46
40
46
40
46
40
46
10
19.9703
20
6.58912
30
0
10
19.8888
20
7.02369
30
0
10
19.3184
20
7.02369
30
0
10
18.7888
20
7.06443
30
0
10
17.8517
20
6.33109
30
0
10
17.3629
20
5.82861
30
0
10
17.648
20
5.10885
30
0
10
18.4493
20
5.05453
30
0
10
19.332
20
5.77429
30
0
10
19.9296
20
6.54838
30
0
10
19.9296
20
6.54838
30
0
10
19.074
20
5.4891
30
0
10
19.1555
20
5.02736
30
0
10
19.5086
20
4.95946
30
0
10
20.5271
20
5.46194
30
0
10
21.9938
20
6.43973
30
0
10
22.116
20
6.34467
30
0
10
21.179
20
5.23107
30
0
10
21.179
20
4.97304
30
0
10
22.3876
20
5.4212
30
0
10
23.3654
20
6.1817
30
0
10
23.5148
20
6.10022
30
0
10
22.8901
20
5.36688
30
0
10
22.9716
20
4.97304
30
0
10
23.4062
20
4.82366
30
0
10
26.015
20
5.89032
30
0
10
30.1571
20
10.4588
30
0
10
30.0657
20
10.5501
30
0
10
28.6342
20
9.33188
30
0
10
25.4059
20
5.70759
30
0
10
25.6099
20
5.0006
30
0
10
27.1057
20
5.05467
30
0
10
28.0428
20
5.79355
30
0
10
28.0788
20
5.75751
30
0
10
27.4301
20
4.92852
30
0
10
27.4661
20
4.42392
30
0
10
28.1509
20
4.38788
30
0
10
28.6375
20
4.98258
30
0
10
28.6916
20
5.99179
30
0
10
27.9707
20
5.81157
30
0
10
27.9887
20
5.37906
30
0
10
28.9439
20
5.82959
30
0
10
29.8668
20
6.26676
30
0
10
31.4067
20
6.29367
30
0
10
32.3295
20
5.98609
30
0
10
32.1586
20
5.08041
30
0
10
31.5947
20
4.63612
30
0
10
30.7915
20
4.82409
30
0
10
30.7061
20
5.25129
30
0
0
SPLINE
5
A4
100
AcDbEntity
67
0
8
0
6
ByBlock
62
0
370
-2
100
AcDbSpline
70
0
71
3
72
8
73
4
74
0
40
0
40
0
40
0
40
0
40
1
40
1
40
1
40
1
10
24.0264
20
8.62933
30
0
10
25.8953
20
8.60441
30
0
10
33.396
20
8.67917
30
0
10
33.695
20
8.77885
30
0
0
SPLINE
5
A5
100
AcDbEntity
67
0
8
0
6
ByBlock
62
0
370
-2
100
AcDbSpline
70
0
71
3
72
8
73
4
74
0
40
0
40
0
40
0
40
0
40
1
40
1
40
1
40
1
10
33.8065
20
6.01284
30
0
10
34.8387
20
6.07603
30
0
10
36.3553
20
6.13922
30
0
10
36.5238
20
6.18135
30
0
0
SPLINE
5
A6
100
AcDbEntity
67
0
8
0
6
ByBlock
62
0
370
-2
100
AcDbSpline
70
0
71
3
72
8
73
4
74
0
40
0
40
0
40
0
40
0
40
1
40
1
40
1
40
1
10
33.5748
20
4.89643
30
0
10
34.628
20
5.1492
30
0
10
35.6602
20
5.17027
30
0
10
36.2921
20
5.17027
30
0
0
SPLINE
5
A7
100
AcDbEntity
67
0
8
0
6
ByBlock
62
0
370
-2
100
AcDbSpline
70
0
71
3
72
82
73
78
74
0
40
0
40
0
40
0
40
0
40
1
40
2
40
3
40
4
40
5
40
6
40
7
40
8
40
9
40
10
40
11
40
12
40
13
40
14
40
15
40
16
40
17
40
18
40
19
40
20
40
21
40
22
40
23
40
24
40
25
40
26
40
27
40
28
40
29
40
30
40
31
40
32
40
33
40
34
40
35
40
36
40
37
40
38
40
39
40
40
40
41
40
42
40
43
40
44
40
45
40
46
40
47
40
48
40
49
40
50
40
51
40
52
40
53
40
54
40
55
40
56
40
57
40
58
40
59
40
60
40
61
40
62
40
63
40
64
40
65
40
66
40
67
40
68
40
69
40
70
40
71
40
72
40
73
40
74
40
75
40
75
40
75
40
75
10
40.9648
20
9.67515
30
0
10
37.6384
20
5.25864
30
0
10
37.6384
20
5.25864
30
0
10
37.6384
20
5.25864
30
0
10
38.7565
20
6.29289
30
0
10
39.2317
20
6.12517
30
0
10
39.5112
20
4.75549
30
0
10
40.4057
20
4.36416
30
0
10
41.8033
20
5.09092
30
0
10
42.3065
20
6.48855
30
0
10
42.1667
20
8.0539
30
0
10
41.2722
20
8.80862
30
0
10
39.5112
20
9.36767
30
0
10
37.7223
20
9.36767
30
0
10
35.8774
20
9.08814
30
0
10
35.9613
20
8.41728
30
0
10
37.4707
20
8.24957
30
0
10
40.4337
20
7.99799
30
0
10
43.7321
20
7.63461
30
0
10
44.2352
20
7.27123
30
0
10
43.7041
20
6.29289
30
0
10
42.8935
20
5.3425
30
0
10
43.1451
20
5.03502
30
0
10
44.6266
20
5.3425
30
0
10
46.2199
20
7.10351
30
0
10
46.108
20
7.04761
30
0
10
44.962
20
5.48226
30
0
10
45.2695
20
4.97911
30
0
10
46.3876
20
5.20273
30
0
10
47.5616
20
6.48855
30
0
10
48.2883
20
6.60036
30
0
10
48.6517
20
6.51651
30
0
10
47.897
20
5.09092
30
0
10
47.897
20
5.09092
30
0
10
48.7356
20
5.84564
30
0
10
49.9375
20
6.54446
30
0
10
50.6643
20
6.43265
30
0
10
50.7761
20
5.84564
30
0
10
50.1891
20
5.09092
30
0
10
50.1891
20
5.09092
30
0
10
50.8985
20
6.03388
30
0
10
51.7933
20
6.28714
30
0
10
51.9115
20
6.03388
30
0
10
51.7933
20
5.3923
30
0
10
51.9284
20
5.30789
30
0
10
53.8988
20
6.67787
30
0
10
53.8518
20
6.5524
30
0
10
53.4597
20
5.92507
30
0
10
53.6165
20
5.06248
30
0
10
54.1027
20
4.96838
30
0
10
54.4164
20
5.83097
30
0
10
54.3536
20
6.74061
30
0
10
53.789
20
6.58377
30
0
10
53.8047
20
6.05053
30
0
10
54.5628
20
6.51972
30
0
10
56.5332
20
6.51972
30
0
10
56.6915
20
6.23824
30
0
10
55.5656
20
5.23546
30
0
10
55.8889
20
5.09905
30
0
10
57.3781
20
5.8089
30
0
10
58.0014
20
6.06554
30
0
10
58.0747
20
5.90055
30
0
10
57.5615
20
5.18563
30
0
10
57.9831
20
4.98398
30
0
10
59.8572
20
5.34128
30
0
10
63.0135
20
7.9111
30
0
10
65.1217
20
10.6122
30
0
10
65.1217
20
10.6122
30
0
10
64.7264
20
10.7439
30
0
10
61.4324
20
4.48534
30
0
10
61.4324
20
4.48534
30
0
10
61.4324
20
4.48534
30
0
10
61.4349
20
5.53442
30
0
10
59.3658
20
6.94377
30
0
10
58.6461
20
8.17321
30
0
10
61.9179
20
8.16224
30
0
10
69.6543
20
8.2103
30
0
10
72.105
20
7.82588
30
0
0
ENDBLK
5
A8
330
9F
100
AcDbEntity
8
0
100
AcDbBlockEnd
0
ENDSEC
0
SECTION
2
ENTITIES
0
IMAGE
5
2F
100
AcDbEntity
67
0
8
0
6
ByLayer
62
256
370
-1
100
AcDbRasterImage
90
0
10
0.103776
20
-73.7506
30
0
11
0.155914
21
0
31
0
12
0
22
0.155914
32
0
13
1605
23
1117
340
2E
70
3
0
LINE
5
30
100
AcDbEntity
67
0
8
aux
6
ByLayer
62
256
370
-1
100
AcDbLine
10
13.4928
20
9.34782
30
0
11
23.4928
21
9.34782
31
0
0
LINE
5
31
100
AcDbEntity
67
0
8
aux
6
ByLayer
62
256
370
-1
100
AcDbLine
10
23.4928
20
9.34782
30
0
11
242.493
21
9.34782
31
0
0
LINE
5
32
100
AcDbEntity
67
0
8
aux
6
ByLayer
62
256
370
-1
100
AcDbLine
10
23.4318
20
19.8661
30
0
11
62.6818
21
19.8661
31
0
0
LINE
5
33
100
AcDbEntity
67
0
8
aux
6
ByLayer
62
2
370
-1
100
AcDbLine
10
62.6818
20
19.8661
30
0
11
98.1818
21
19.8661
31
0
0
LINE
5
34
100
AcDbEntity
67
0
8
aux
6
ByLayer
62
256
370
-1
100
AcDbLine
10
98.1818
20
19.8661
30
0
11
133.182
21
19.8661
31
0
0
LINE
5
35
100
AcDbEntity
67
0
8
aux
6
ByLayer
62
2
370
-1
100
AcDbLine
10
133.182
20
19.8661
30
0
11
168.682
21
19.8661
31
0
0
LINE
5
36
100
AcDbEntity
67
0
8
aux
6
ByLayer
62
256
370
-1
100
AcDbLine
10
168.682
20
19.8661
30
0
11
197.682
21
19.8661
31
0
0
LINE
5
37
100
AcDbEntity
67
0
8
aux
6
ByLayer
62
2
370
-1
100
AcDbLine
10
197.682
20
19.8661
30
0
11
199.682
21
19.8661
31
0
0
LINE
5
38
100
AcDbEntity
67
0
8
aux
6
ByLayer
62
256
370
-1
100
AcDbLine
10
199.682
20
19.8661
30
0
11
242.432
21
19.8661
31
0
0
CIRCLE
5
3F
100
AcDbEntity
67
0
8
wheel
6
ByLayer
62
256
370
-1
100
AcDbCircle
10
23.4318
20
23.4293
30
0
40
10
0
CIRCLE
5
40
100
AcDbEntity
67
0
8
wheel
6
ByLayer
62
256
370
-1
100
AcDbCircle
10
23.4318
20
23.4293
30
0
40
8.5
0
CIRCLE
5
41
100
AcDbEntity
67
0
8
wheel
6
ByLayer
62
256
370
-1
100
AcDbCircle
10
23.4318
20
23.4293
30
0
40
0.8
0
LINE
5
42
100
AcDbEntity
67
0
8
wheel
6
ByLayer
62
256
370
-1
100
AcDbLine
10
22.6318
20
23.4293
30
0
11
14.9318
21
23.4293
31
0
0
LINE
5
43
100
AcDbEntity
67
0
8
wheel
6
ByLayer
62
256
370
-1
100
AcDbLine
10
22.6493
20
23.2629
30
0
11
15.1175
21
21.662
31
0
0
LINE
5
44
100
AcDbEntity
67
0
8
wheel
6
ByLayer
62
256
370
-1
100
AcDbLine
10
22.701
20
23.1039
30
0
11
15.6667
21
19.972
31
0
0
LINE
5
45
100
AcDbEntity
67
0
8
wheel
6
ByLayer
62
256
370
-1
100
AcDbLine
10
22.7846
20
22.959
30
0
11
16.5552
21
18.4331
31
0
0
LINE
5
46
100
AcDbEntity
67
0
8
wheel
6
ByLayer
62
256
370
-1
100
AcDbLine
10
22.8965
20
22.8347
30
0
11
17.7442
21
17.1125
31
0
0
LINE
5
47
100
AcDbEntity
67
0
8
wheel
6
ByLayer
62
256
370
-1
100
AcDbLine
10
23.0318
20
22.7364
30
0
11
19.1818
21
16.068
31
0
0
LINE
5
48
100
AcDbEntity
67
0
8
wheel
6
ByLayer
62
256
370
-1
100
AcDbLine
10
23.1846
20
22.6684
30
0
11
20.8052
21
15.3453
31
0
0
LINE
5
49
100
AcDbEntity
67
0
8
wheel
6
ByLayer
62
256
370
-1
100
AcDbLine
10
23.3482
20
22.6336
30
0
11
22.5433
21
14.9758
31
0
0
LINE
5
4A
100
AcDbEntity
67
0
8
wheel
6
ByLayer
62
256
370
-1
100
AcDbLine
10
23.5154
20
22.6336
30
0
11
24.3203
21
14.9758
31
0
0
LINE
5
4B
100
AcDbEntity
67
0
8
wheel
6
ByLayer
62
256
370
-1
100
AcDbLine
10
23.679
20
22.6684
30
0
11
26.0584
21
15.3453
31
0
0
LINE
5
4C
100
AcDbEntity
67
0
8
wheel
6
ByLayer
62
256
370
-1
100
AcDbLine
10
23.8318
20
22.7364
30
0
11
27.6818
21
16.068
31
0
0
LINE
5
4D
100
AcDbEntity
67
0
8
wheel
6
ByLayer
62
256
370
-1
100
AcDbLine
10
23.9671
20
22.8347
30
0
11
29.1194
21
17.1125
31
0
0
LINE
5
4E
100
AcDbEntity
67
0
8
wheel
6
ByLayer
62
256
370
-1
100
AcDbLine
10
24.079
20
22.959
30
0
11
30.3084
21
18.4331
31
0
0
LINE
5
4F
100
AcDbEntity
67
0
8
wheel
6
ByLayer
62
256
370
-1
100
AcDbLine
10
24.1626
20
23.1039
30
0
11
31.1969
21
19.972
31
0
0
LINE
5
50
100
AcDbEntity
67
0
8
wheel
6
ByLayer
62
256
370
-1
100
AcDbLine
10
24.2143
20
23.2629
30
0
11
31.7461
21
21.662
31
0
0
LINE
5
51
100
AcDbEntity
67
0
8
wheel
6
ByLayer
62
256
370
-1
100
AcDbLine
10
24.2318
20
23.4293
30
0
11
31.9318
21
23.4293
31
0
0
LINE
5
52
100
AcDbEntity
67
0
8
wheel
6
ByLayer
62
256
370
-1
100
AcDbLine
10
24.2143
20
23.5956
30
0
11
31.7461
21
25.1965
31
0
0
LINE
5
53
100
AcDbEntity
67
0
8
wheel
6
ByLayer
62
256
370
-1
100
AcDbLine
10
24.1626
20
23.7547
30
0
11
31.1969
21
26.8865
31
0
0
LINE
5
54
100
AcDbEntity
67
0
8
wheel
6
ByLayer
62
256
370
-1
100
AcDbLine
10
24.079
20
23.8995
30
0
11
30.3084
21
28.4254
31
0
0
LINE
5
55
100
AcDbEntity
67
0
8
wheel
6
ByLayer
62
256
370
-1
100
AcDbLine
10
23.9671
20
24.0238
30
0
11
29.1194
21
29.746
31
0
0
LINE
5
56
100
AcDbEntity
67
0
8
wheel
6
ByLayer
62
256
370
-1
100
AcDbLine
10
23.8318
20
24.1221
30
0
11
27.6818
21
30.7905
31
0
0
LINE
5
57
100
AcDbEntity
67
0
8
wheel
6
ByLayer
62
256
370
-1
100
AcDbLine
10
23.679
20
24.1901
30
0
11
26.0584
21
31.5132
31
0
0
LINE
5
58
100
AcDbEntity
67
0
8
wheel
6
ByLayer
62
256
370
-1
100
AcDbLine
10
23.5154
20
24.2249
30
0
11
24.3203
21
31.8827
31
0
0
LINE
5
59
100
AcDbEntity
67
0
8
wheel
6
ByLayer
62
256
370
-1
100
AcDbLine
10
23.3482
20
24.2249
30
0
11
22.5433
21
31.8827
31
0
0
LINE
5
5A
100
AcDbEntity
67
0
8
wheel
6
ByLayer
62
256
370
-1
100
AcDbLine
10
23.1846
20
24.1901
30
0
11
20.8052
21
31.5132
31
0
0
LINE
5
5B
100
AcDbEntity
67
0
8
wheel
6
ByLayer
62
256
370
-1
100
AcDbLine
10
23.0318
20
24.1221
30
0
11
19.1818
21
30.7905
31
0
0
LINE
5
5C
100
AcDbEntity
67
0
8
wheel
6
ByLayer
62
256
370
-1
100
AcDbLine
10
22.8965
20
24.0238
30
0
11
17.7442
21
29.746
31
0
0
LINE
5
5D
100
AcDbEntity
67
0
8
wheel
6
ByLayer
62
256
370
-1
100
AcDbLine
10
22.7846
20
23.8995
30
0
11
16.5552
21
28.4254
31
0
0
LINE
5
5E
100
AcDbEntity
67
0
8
wheel
6
ByLayer
62
256
370
-1
100
AcDbLine
10
22.701
20
23.7547
30
0
11
15.6667
21
26.8865
31
0
0
LINE
5
5F
100
AcDbEntity
67
0
8
wheel
6
ByLayer
62
256
370
-1
100
AcDbLine
10
22.6493
20
23.5956
30
0
11
15.1175
21
25.1965
31
0
0
LINE
5
60
100
AcDbEntity
67
0
8
propeler
6
ByLayer
62
256
370
-1
100
AcDbLine
10
2.45585
20
70.3158
30
0
11
12.472
21
70.3158
31
0
0
LWPOLYLINE
5
61
100
AcDbEntity
67
0
8
propeler
6
ByLayer
62
256
370
-1
100
AcDbPolyline
90
11
70
0
10
12.472
20
70.3158
30
0
42
0
10
12.472
20
65.3222
30
0
42
0.1
10
11.5411
20
62.064
30
0
42
0
10
11.9339
20
27.902
30
0
42
-0.8
10
8.10022
20
27.902
30
0
42
-0.1
10
7.38935
20
32.4719
30
0
42
-0.05
10
7.38935
20
40.6398
30
0
42
-0.02
10
9.53287
20
61.9158
30
0
42
0.1
10
9.22996
20
65.2781
30
0
42
0.1
10
8.47267
20
66.2475
30
0
42
0
10
8.47267
20
70.3158
30
0
0
LWPOLYLINE
5
62
100
AcDbEntity
67
0
8
propeler
6
ByLayer
62
256
370
-1
100
AcDbPolyline
90
11
70
0
10
8.47267
20
70.3158
30
0
42
0
10
8.47267
20
75.3095
30
0
42
0.1
10
9.40356
20
78.5676
30
0
42
0
10
9.01081
20
112.73
30
0
42
-0.8
10
12.8445
20
112.73
30
0
42
-0.1
10
13.5553
20
108.16
30
0
42
-0.05
10
13.5553
20
99.9918
30
0
42
-0.02
10
11.4118
20
78.7159
30
0
42
0.1
10
11.7147
20
75.3535
30
0
42
0.1
10
12.472
20
74.3842
30
0
42
0
10
12.472
20
70.3158
30
0
0
LINE
5
67
100
AcDbEntity
67
0
8
ground
6
ByLayer
62
256
370
-1
100
AcDbLine
10
7.98333
20
13.4293
30
0
11
237.139
21
13.4293
31
0
0
HATCH
5
69
100
AcDbEntity
67
0
8
ground
6
ByLayer
62
256
370
-1
100
AcDbHatch
10
0
20
0
30
0
210
0
220
0
230
1
2
USER_DEF
70
0
71
0
91
1
92
0
93
4
72
1
10
7.98333
20
13.4293
11
7.98333
21
12.1099
72
1
10
7.98333
20
12.1099
11
237.139
21
12.1099
72
1
10
237.139
20
12.1099
11
237.139
21
13.4293
72
1
10
237.139
20
13.4293
11
7.98333
21
13.4293
97
0
75
0
76
0
52
0
41
1
77
0
78
1
53
45
43
0
44
0
45
-0.565685
46
0.565685
79
0
98
0
0
LINE
5
6A
100
AcDbEntity
67
0
8
ground
6
ByLayer
62
256
370
-1
100
AcDbLine
10
61.5323
20
-63.2127
30
0
11
183.082
21
-63.2127
31
0
0
HATCH
5
6B
100
AcDbEntity
67
0
8
ground
6
ByLayer
62
256
370
-1
100
AcDbHatch
10
0
20
0
30
0
210
0
220
0
230
1
2
USER_DEF
70
0
71
0
91
1
92
0
93
4
72
1
10
61.5323
20
-63.2127
11
61.5323
21
-64.4522
72
1
10
61.5323
20
-64.4522
11
183.082
21
-64.4522
72
1
10
183.082
20
-64.4522
11
183.082
21
-63.2127
72
1
10
183.082
20
-63.2127
11
61.5323
21
-63.2127
97
0
75
0
76
0
52
0
41
1
77
0
78
1
53
45
43
0
44
0
45
-0.565685
46
0.565685
79
0
98
0
0
LINE
5
6C
100
AcDbEntity
67
0
8
aux
6
ByLayer
62
256
370
-1
100
AcDbLine
10
9.30161
20
13.4293
30
0
11
9.30161
21
67.9293
31
0
0
LINE
5
6D
100
AcDbEntity
67
0
8
aux
6
ByLayer
62
256
370
-1
100
AcDbLine
10
14.6146
20
13.4293
30
0
11
14.6146
21
61.4293
31
0
0
LINE
5
6E
100
AcDbEntity
67
0
8
aux
6
ByLayer
62
256
370
-1
100
AcDbLine
10
3.40655
20
67.9293
30
0
11
15.4065
21
67.9293
31
0
0
LINE
5
6F
100
AcDbEntity
67
0
8
aux
6
ByLayer
62
256
370
-1
100
AcDbLine
10
15.4065
20
67.9293
30
0
11
82.4065
21
67.9293
31
0
0
LINE
5
70
100
AcDbEntity
67
0
8
aux
6
ByLayer
62
256
370
-1
100
AcDbLine
10
82.4065
20
57.9797
30
0
11
82.4065
21
42.9797
31
0
0
LWPOLYLINE
5
71
100
AcDbEntity
67
0
8
wing
6
ByLayer
62
256
370
-1
100
AcDbPolyline
90
2
70
0
10
3.40655
20
67.9293
30
0
42
-0.1
10
82.4065
20
54.0615
30
0
0
LINE
5
72
100
AcDbEntity
67
0
8
aux
6
ByLayer
62
256
370
-1
100
AcDbLine
10
3.40655
20
61.4293
30
0
11
15.4065
21
61.4293
31
0
0
LWPOLYLINE
5
73
100
AcDbEntity
67
0
8
wing
6
ByLayer
62
256
370
-1
100
AcDbPolyline
90
2
70
0
10
14.6146
20
61.4293
30
0
42
-0.1
10
82.4065
20
42.9797
30
0
0
LWPOLYLINE
5
74
100
AcDbEntity
67
0
8
wing
6
ByLayer
62
256
370
-1
100
AcDbPolyline
90
2
70
0
10
3.40655
20
66.9293
30
0
42
-0.1
10
82.4065
20
53.0615
30
0
0
LWPOLYLINE
5
75
100
AcDbEntity
67
0
8
wing
6
ByLayer
62
256
370
-1
100
AcDbPolyline
90
2
70
0
10
3.40655
20
65.9293
30
0
42
-0.1
10
82.4065
20
52.0615
30
0
0
LINE
5
7A
100
AcDbEntity
67
0
8
aux
6
ByLayer
62
256
370
-1
100
AcDbLine
10
14.6146
20
61.4293
30
0
11
14.6146
21
62.4293
31
0
0
LINE
5
7B
100
AcDbEntity
67
0
8
aux
6
ByLayer
62
256
370
-1
100
AcDbLine
10
14.6146
20
62.4293
30
0
11
14.6146
21
63.4293
31
0
0
LINE
5
7C
100
AcDbEntity
67
0
8
aux
6
ByLayer
62
256
370
-1
100
AcDbLine
10
14.6146
20
63.4293
30
0
11
14.6146
21
64.734
31
0
0
LWPOLYLINE
5
7D
100
AcDbEntity
67
0
8
wing
6
ByLayer
62
256
370
-1
100
AcDbPolyline
90
2
70
0
10
14.6146
20
62.4293
30
0
42
-0.1
10
82.4065
20
45.5962
30
0
0
LWPOLYLINE
5
7E
100
AcDbEntity
67
0
8
wing
6
ByLayer
62
256
370
-1
100
AcDbPolyline
90
2
70
0
10
14.6146
20
63.4293
30
0
42
-0.1
10
82.4065
20
48.1829
30
0
0
LWPOLYLINE
5
7F
100
AcDbEntity
67
0
8
wing
6
ByLayer
62
256
370
-1
100
AcDbPolyline
90
2
70
0
10
14.6146
20
64.734
30
0
42
-0.1
10
82.4065
20
50.1343
30
0
0
LINE
5
81
100
AcDbEntity
67
0
8
wing
6
ByLayer
62
256
370
-1
100
AcDbLine
10
3.40655
20
65.9293
30
0
11
3.40655
21
67.9293
31
0
0
LINE
5
82
100
AcDbEntity
67
0
8
wing
6
ByLayer
62
256
370
-1
100
AcDbLine
10
14.6146
20
61.4293
30
0
11
14.6146
21
64.734
31
0
0
LINE
5
84
100
AcDbEntity
67
0
8
wing
6
ByLayer
62
256
370
-1
100
AcDbLine
10
14.6146
20
64.734
30
0
11
14.6146
21
65.9056
31
0
0
LINE
5
85
100
AcDbEntity
67
0
8
wing
6
ByLayer
62
256
370
-1
100
AcDbLine
10
82.4065
20
42.9797
30
0
11
82.4065
21
54.0615
31
0
0
IMAGE
5
89
100
AcDbEntity
67
0
8
wing
6
ByLayer
62
256
370
-1
100
AcDbRasterImage
90
0
10
215.092
20
-123.881
30
0
11
0.104908
21
0
31
0
12
0
22
0.104908
32
0
13
350
23
386
340
88
70
3
0
INSERT
5
A9
100
AcDbEntity
67
0
8
0
6
ByLayer
62
2
370
-2
100
AcDbBlockReference
66
0
2
sd_sig
10
260.847
20
-88.9621
30
0
41
1
42
1
43
1
50
0
0
IMAGE
5
AB
100
AcDbEntity
67
0
8
0
6
ByLayer
62
256
370
-1
100
AcDbRasterImage
90
0
10
617.413
20
-75.4422
30
0
11
0.198457
21
-0.00258913
31
0
12
0.00258913
22
0.198457
32
0
13
1093
23
461
340
AA
70
3
0
LINE
5
AC
100
AcDbEntity
67
0
8
aux
6
ByLayer
62
256
370
-1
100
AcDbLine
10
633.054
20
-55.0389
30
0
11
672.304
21
-55.0389
31
0
0
LINE
5
AE
100
AcDbEntity
67
0
8
aux
6
ByLayer
62
2
370
-1
100
AcDbLine
10
672.304
20
-55.0389
30
0
11
707.804
21
-55.0389
31
0
0
LINE
5
AF
100
AcDbEntity
67
0
8
aux
6
ByLayer
62
256
370
-1
100
AcDbLine
10
707.804
20
-55.0389
30
0
11
742.804
21
-55.0389
31
0
0
LINE
5
B0
100
AcDbEntity
67
0
8
aux
6
ByLayer
62
2
370
-1
100
AcDbLine
10
742.804
20
-55.0389
30
0
11
778.304
21
-55.0389
31
0
0
LINE
5
B1
100
AcDbEntity
67
0
8
aux
6
ByLayer
62
256
370
-1
100
AcDbLine
10
778.304
20
-55.0389
30
0
11
807.304
21
-55.0389
31
0
0
LINE
5
B2
100
AcDbEntity
67
0
8
aux
6
ByLayer
62
256
370
-1
100
AcDbLine
10
181.615
20
45.515
30
0
11
181.615
21
63.015
31
0
0
LINE
5
B3
100
AcDbEntity
67
0
8
aux
6
ByLayer
62
2
370
-1
100
AcDbLine
10
170.019
20
38.2792
30
0
11
170.019
21
52.2792
31
0
0
LINE
5
B4
100
AcDbEntity
67
0
8
aux
6
ByLayer
62
256
370
-1
100
AcDbLine
10
170.019
20
38.2792
30
0
11
170.019
21
13.2792
31
0
0
LINE
5
B5
100
AcDbEntity
67
0
8
aux
6
ByLayer
62
256
370
-1
100
AcDbLine
10
170.019
20
52.2792
30
0
11
170.019
21
75.2792
31
0
0
LINE
5
B6
100
AcDbEntity
67
0
8
aux
6
ByLayer
62
256
370
-1
100
AcDbLine
10
778.304
20
-23.9646
30
0
11
778.304
21
-0.964572
31
0
0
LINE
5
B7
100
AcDbEntity
67
0
8
aux
6
ByLayer
62
256
370
-1
100
AcDbLine
10
778.304
20
-37.9646
30
0
11
778.304
21
-62.9646
31
0
0
LINE
5
B8
100
AcDbEntity
67
0
8
aux
6
ByLayer
62
2
370
-1
100
AcDbLine
10
778.304
20
-37.9646
30
0
11
778.304
21
-23.9646
31
0
0
CIRCLE
5
B9
100
AcDbEntity
67
0
8
aux
6
Continuous
62
256
370
-1
100
AcDbCircle
10
633.054
20
-52.1323
30
0
40
0.75
0
LINE
5
BD
100
AcDbEntity
67
0
8
aux
6
ByLayer
62
256
370
-1
100
AcDbLine
10
633.804
20
-52.1323
30
0
11
807.304
21
-35.1212
31
0
0
LINE
5
BF
100
AcDbEntity
67
0
8
aux
6
ByLayer
62
256
370
-1
100
AcDbLine
10
633.054
20
-14.3823
30
0
11
633.054
21
-51.3823
31
0
0
LINE
5
C0
100
AcDbEntity
67
0
8
aux
6
ByLayer
62
256
370
-1
100
AcDbLine
10
807.304
20
-25.8777
30
0
11
633.054
21
-14.3823
31
0
0
LINE
5
C4
100
AcDbEntity
67
0
8
aux
6
ByLayer
62
256
370
-1
100
AcDbLine
10
672.304
20
-55.0389
30
0
11
672.304
21
-7.41292
31
0
0
LINE
5
C5
100
AcDbEntity
67
0
8
aux
6
ByLayer
62
256
370
-1
100
AcDbLine
10
707.804
20
-55.0389
30
0
11
707.804
21
-11.6013
31
0
0
LINE
5
C6
100
AcDbEntity
67
0
8
aux
6
ByLayer
62
256
370
-1
100
AcDbLine
10
742.804
20
-55.0389
30
0
11
742.804
21
-10.4991
31
0
0
LINE
5
C7
100
AcDbEntity
67
0
8
aux
6
ByLayer
62
256
370
-1
100
AcDbLine
10
807.304
20
-55.0389
30
0
11
807.304
21
-11.1619
31
0
0
LINE
5
CB
100
AcDbEntity
67
0
8
aux
6
ByLayer
62
256
370
-1
100
AcDbLine
10
807.304
20
-21.333
30
0
11
752.423
21
-17.7125
31
0
0
LINE
5
CC
100
AcDbEntity
67
0
8
aux
6
ByLayer
62
2
370
-1
100
AcDbLine
10
752.423
20
-17.7125
30
0
11
695.048
21
-13.9274
31
0
0
LINE
5
CD
100
AcDbEntity
67
0
8
aux
6
ByLayer
62
256
370
-1
100
AcDbLine
10
695.048
20
-13.9274
30
0
11
626.198
21
-9.38529
31
0
0
LINE
5
CE
100
AcDbEntity
67
0
8
aux
6
ByLayer
62
2
370
-1
100
AcDbLine
10
633.054
20
-14.3823
30
0
11
626.064
21
-14.0024
31
0
0
LINE
5
CF
100
AcDbEntity
67
0
8
aux
6
ByLayer
62
2
370
-1
100
AcDbLine
10
633.054
20
-51.3823
30
0
11
626.064
21
-14.0024
31
0
0
LINE
5
D0
100
AcDbEntity
67
0
8
aux
6
ByLayer
62
2
370
-1
100
AcDbLine
10
626.064
20
-14.0024
30
0
11
626.248
21
-7.50496
31
0
0
CIRCLE
5
D7
100
AcDbEntity
67
0
8
aux
6
Continuous
62
256
370
-1
100
AcDbCircle
10
807.304
20
-35.1212
30
0
40
0.75
0
CIRCLE
5
D8
100
AcDbEntity
67
0
8
aux
6
Continuous
62
256
370
-1
100
AcDbCircle
10
807.304
20
-25.8777
30
0
40
0.75
0
CIRCLE
5
DE
100
AcDbEntity
67
0
8
aux
6
Continuous
62
256
370
-1
100
AcDbCircle
10
626.064
20
-14.0024
30
0
40
0.75
0
CIRCLE
5
DF
100
AcDbEntity
67
0
8
aux
6
Continuous
62
256
370
-1
100
AcDbCircle
10
626.248
20
-7.50496
30
0
40
0.75
0
LINE
5
E1
100
AcDbEntity
67
0
8
aux
6
Continuous
62
256
370
-1
100
AcDbLine
10
807.304
20
-34.3712
30
0
11
633.054
21
-51.3823
31
0
0
LINE
5
E2
100
AcDbEntity
67
0
8
aux
6
Continuous
62
256
370
-1
100
AcDbLine
10
633.054
20
-52.8823
30
0
11
807.304
21
-35.8712
31
0
0
LINE
5
E3
100
AcDbEntity
67
0
8
aux
6
Continuous
62
256
370
-1
100
AcDbLine
10
807.304
20
-26.6277
30
0
11
626.064
21
-14.7524
31
0
0
LINE
5
E4
100
AcDbEntity
67
0
8
aux
6
Continuous
62
256
370
-1
100
AcDbLine
10
626.064
20
-13.2524
30
0
11
807.304
21
-25.1277
31
0
0
LINE
5
F9
100
AcDbEntity
67
0
8
aux
6
Continuous
62
256
370
-1
100
AcDbLine
10
808.054
20
-35.1212
30
0
11
808.054
21
-25.8777
31
0
0
CIRCLE
5
109
100
AcDbEntity
67
0
8
wheel
6
ByLayer
62
256
370
-1
100
AcDbCircle
10
255.484
20
-53.2127
30
0
40
10
0
CIRCLE
5
10A
100
AcDbEntity
67
0
8
wheel
6
ByLayer
62
256
370
-1
100
AcDbCircle
10
255.484
20
-53.2127
30
0
40
8.5
0
CIRCLE
5
10B
100
AcDbEntity
67
0
8
wheel
6
ByLayer
62
256
370
-1
100
AcDbCircle
10
255.484
20
-53.2127
30
0
40
0.8
0
LINE
5
10C
100
AcDbEntity
67
0
8
wheel
6
ByLayer
62
256
370
-1
100
AcDbLine
10
254.684
20
-53.2127
30
0
11
246.984
21
-53.2127
31
0
0
LINE
5
10D
100
AcDbEntity
67
0
8
wheel
6
ByLayer
62
256
370
-1
100
AcDbLine
10
254.701
20
-53.3791
30
0
11
247.17
21
-54.98
31
0
0
LINE
5
10E
100
AcDbEntity
67
0
8
wheel
6
ByLayer
62
256
370
-1
100
AcDbLine
10
254.753
20
-53.5381
30
0
11
247.719
21
-56.67
31
0
0
LINE
5
10F
100
AcDbEntity
67
0
8
wheel
6
ByLayer
62
256
370
-1
100
AcDbLine
10
254.837
20
-53.683
30
0
11
248.607
21
-58.2089
31
0
0
LINE
5
110
100
AcDbEntity
67
0
8
wheel
6
ByLayer
62
256
370
-1
100
AcDbLine
10
254.949
20
-53.8073
30
0
11
249.796
21
-59.5295
31
0
0
LINE
5
111
100
AcDbEntity
67
0
8
wheel
6
ByLayer
62
256
370
-1
100
AcDbLine
10
255.084
20
-53.9056
30
0
11
251.234
21
-60.574
31
0
0
LINE
5
112
100
AcDbEntity
67
0
8
wheel
6
ByLayer
62
256
370
-1
100
AcDbLine
10
255.237
20
-53.9736
30
0
11
252.857
21
-61.2967
31
0
0
LINE
5
113
100
AcDbEntity
67
0
8
wheel
6
ByLayer
62
256
370
-1
100
AcDbLine
10
255.4
20
-54.0084
30
0
11
254.595
21
-61.6662
31
0
0
LINE
5
114
100
AcDbEntity
67
0
8
wheel
6
ByLayer
62
256
370
-1
100
AcDbLine
10
255.568
20
-54.0084
30
0
11
256.372
21
-61.6662
31
0
0
LINE
5
115
100
AcDbEntity
67
0
8
wheel
6
ByLayer
62
256
370
-1
100
AcDbLine
10
255.731
20
-53.9736
30
0
11
258.111
21
-61.2967
31
0
0
LINE
5
116
100
AcDbEntity
67
0
8
wheel
6
ByLayer
62
256
370
-1
100
AcDbLine
10
255.884
20
-53.9056
30
0
11
259.734
21
-60.574
31
0
0
LINE
5
117
100
AcDbEntity
67
0
8
wheel
6
ByLayer
62
256
370
-1
100
AcDbLine
10
256.019
20
-53.8073
30
0
11
261.172
21
-59.5295
31
0
0
LINE
5
118
100
AcDbEntity
67
0
8
wheel
6
ByLayer
62
256
370
-1
100
AcDbLine
10
256.131
20
-53.683
30
0
11
262.361
21
-58.2089
31
0
0
LINE
5
119
100
AcDbEntity
67
0
8
wheel
6
ByLayer
62
256
370
-1
100
AcDbLine
10
256.215
20
-53.5381
30
0
11
263.249
21
-56.67
31
0
0
LINE
5
11A
100
AcDbEntity
67
0
8
wheel
6
ByLayer
62
256
370
-1
100
AcDbLine
10
256.266
20
-53.3791
30
0
11
263.798
21
-54.98
31
0
0
LINE
5
11B
100
AcDbEntity
67
0
8
wheel
6
ByLayer
62
256
370
-1
100
AcDbLine
10
256.284
20
-53.2127
30
0
11
263.984
21
-53.2127
31
0
0
LINE
5
11C
100
AcDbEntity
67
0
8
wheel
6
ByLayer
62
256
370
-1
100
AcDbLine
10
256.266
20
-53.0464
30
0
11
263.798
21
-51.4455
31
0
0
LINE
5
11D
100
AcDbEntity
67
0
8
wheel
6
ByLayer
62
256
370
-1
100
AcDbLine
10
256.215
20
-52.8873
30
0
11
263.249
21
-49.7555
31
0
0
LINE
5
11E
100
AcDbEntity
67
0
8
wheel
6
ByLayer
62
256
370
-1
100
AcDbLine
10
256.131
20
-52.7425
30
0
11
262.361
21
-48.2166
31
0
0
LINE
5
11F
100
AcDbEntity
67
0
8
wheel
6
ByLayer
62
256
370
-1
100
AcDbLine
10
256.019
20
-52.6182
30
0
11
261.172
21
-46.896
31
0
0
LINE
5
120
100
AcDbEntity
67
0
8
wheel
6
ByLayer
62
256
370
-1
100
AcDbLine
10
255.884
20
-52.5199
30
0
11
259.734
21
-45.8515
31
0
0
LINE
5
121
100
AcDbEntity
67
0
8
wheel
6
ByLayer
62
256
370
-1
100
AcDbLine
10
255.731
20
-52.4519
30
0
11
258.111
21
-45.1288
31
0
0
LINE
5
122
100
AcDbEntity
67
0
8
wheel
6
ByLayer
62
256
370
-1
100
AcDbLine
10
255.568
20
-52.4171
30
0
11
256.372
21
-44.7593
31
0
0
LINE
5
123
100
AcDbEntity
67
0
8
wheel
6
ByLayer
62
256
370
-1
100
AcDbLine
10
255.4
20
-52.4171
30
0
11
254.595
21
-44.7593
31
0
0
LINE
5
124
100
AcDbEntity
67
0
8
wheel
6
ByLayer
62
256
370
-1
100
AcDbLine
10
255.237
20
-52.4519
30
0
11
252.857
21
-45.1288
31
0
0
LINE
5
125
100
AcDbEntity
67
0
8
wheel
6
ByLayer
62
256
370
-1
100
AcDbLine
10
255.084
20
-52.5199
30
0
11
251.234
21
-45.8515
31
0
0
LINE
5
126
100
AcDbEntity
67
0
8
wheel
6
ByLayer
62
256
370
-1
100
AcDbLine
10
254.949
20
-52.6182
30
0
11
249.796
21
-46.896
31
0
0
LINE
5
127
100
AcDbEntity
67
0
8
wheel
6
ByLayer
62
256
370
-1
100
AcDbLine
10
254.837
20
-52.7425
30
0
11
248.607
21
-48.2166
31
0
0
LINE
5
128
100
AcDbEntity
67
0
8
wheel
6
ByLayer
62
256
370
-1
100
AcDbLine
10
254.753
20
-52.8873
30
0
11
247.719
21
-49.7555
31
0
0
LINE
5
129
100
AcDbEntity
67
0
8
wheel
6
ByLayer
62
256
370
-1
100
AcDbLine
10
254.701
20
-53.0464
30
0
11
247.17
21
-51.4455
31
0
0
LINE
5
12A
100
AcDbEntity
67
0
8
propeler
6
ByLayer
62
256
370
-1
100
AcDbLine
10
234.508
20
-6.3262
30
0
11
244.524
21
-6.3262
31
0
0
LWPOLYLINE
5
12B
100
AcDbEntity
67
0
8
propeler
6
ByLayer
62
256
370
-1
100
AcDbPolyline
90
11
70
0
10
244.524
20
-6.3262
30
0
42
0
10
244.524
20
-11.3198
30
0
42
0.1
10
243.593
20
-14.578
30
0
42
0
10
243.986
20
-48.74
30
0
42
-0.8
10
240.152
20
-48.74
30
0
42
-0.1
10
239.441
20
-44.1701
30
0
42
-0.05
10
239.441
20
-36.0022
30
0
42
-0.02
10
241.585
20
-14.7262
30
0
42
0.1
10
241.282
20
-11.3639
30
0
42
0.1
10
240.525
20
-10.3945
30
0
42
0
10
240.525
20
-6.3262
30
0
0
LWPOLYLINE
5
12C
100
AcDbEntity
67
0
8
propeler
6
ByLayer
62
256
370
-1
100
AcDbPolyline
90
11
70
0
10
240.525
20
-6.3262
30
0
42
0
10
240.525
20
-1.3325
30
0
42
0.1
10
241.456
20
1.9256
30
0
42
0
10
241.063
20
36.088
30
0
42
-0.8
10
244.897
20
36.088
30
0
42
-0.1
10
245.607
20
31.518
30
0
42
-0.05
10
245.607
20
23.3498
30
0
42
-0.02
10
243.464
20
2.0739
30
0
42
0.1
10
243.767
20
-1.2885
30
0
42
0.1
10
244.524
20
-2.2578
30
0
42
0
10
244.524
20
-6.3262
30
0
0
LWPOLYLINE
5
12D
100
AcDbEntity
67
0
8
wing
6
ByLayer
62
256
370
-1
100
AcDbPolyline
90
2
70
0
10
235.459
20
-8.7127
30
0
42
-0.1
10
314.459
20
-22.5805
30
0
0
LWPOLYLINE
5
12E
100
AcDbEntity
67
0
8
wing
6
ByLayer
62
256
370
-1
100
AcDbPolyline
90
2
70
0
10
246.667
20
-15.2127
30
0
42
-0.1
10
314.459
20
-33.6623
30
0
0
LWPOLYLINE
5
12F
100
AcDbEntity
67
0
8
wing
6
ByLayer
62
256
370
-1
100
AcDbPolyline
90
2
70
0
10
235.459
20
-9.7127
30
0
42
-0.1
10
314.459
20
-23.5805
30
0
0
LWPOLYLINE
5
130
100
AcDbEntity
67
0
8
wing
6
ByLayer
62
256
370
-1
100
AcDbPolyline
90
2
70
0
10
235.459
20
-10.7127
30
0
42
-0.1
10
314.459
20
-24.5805
30
0
0
LWPOLYLINE
5
131
100
AcDbEntity
67
0
8
wing
6
ByLayer
62
256
370
-1
100
AcDbPolyline
90
2
70
0
10
246.667
20
-14.2127
30
0
42
-0.1
10
314.459
20
-31.0458
30
0
0
LWPOLYLINE
5
132
100
AcDbEntity
67
0
8
wing
6
ByLayer
62
256
370
-1
100
AcDbPolyline
90
2
70
0
10
246.667
20
-13.2127
30
0
42
-0.1
10
314.459
20
-28.4591
30
0
0
LWPOLYLINE
5
133
100
AcDbEntity
67
0
8
wing
6
ByLayer
62
256
370
-1
100
AcDbPolyline
90
2
70
0
10
246.667
20
-11.908
30
0
42
-0.1
10
314.459
20
-26.5077
30
0
0
LINE
5
134
100
AcDbEntity
67
0
8
wing
6
ByLayer
62
256
370
-1
100
AcDbLine
10
235.459
20
-10.7127
30
0
11
235.459
21
-8.7127
31
0
0
LINE
5
135
100
AcDbEntity
67
0
8
wing
6
ByLayer
62
256
370
-1
100
AcDbLine
10
246.667
20
-15.2127
30
0
11
246.667
21
-11.908
31
0
0
LINE
5
136
100
AcDbEntity
67
0
8
wing
6
ByLayer
62
256
370
-1
100
AcDbLine
10
246.667
20
-11.908
30
0
11
246.667
21
-10.7364
31
0
0
LINE
5
137
100
AcDbEntity
67
0
8
wing
6
ByLayer
62
256
370
-1
100
AcDbLine
10
314.459
20
-33.6623
30
0
11
314.459
21
-22.5805
31
0
0
LWPOLYLINE
5
138
100
AcDbEntity
67
0
8
frame
6
ByLayer
62
256
370
-1
100
AcDbPolyline
90
10
70
1
10
247.928
20
-8.63534
30
0
42
0
10
247.744
20
-15.1327
30
0
42
0
10
254.734
20
-53.2627
30
0
42
0
10
255.484
20
-54.0127
30
0
42
0
10
429.734
20
-37.0016
30
0
42
0
10
430.484
20
-36.2516
30
0
42
0
10
430.484
20
-27.0081
30
0
42
0
10
429.734
20
-26.2581
30
0
42
0
10
249.264
20
-14.4332
30
0
42
0
10
249.428
20
-8.63534
30
0
42
0
0
LWPOLYLINE
5
139
100
AcDbEntity
67
0
8
frame
6
ByLayer
62
256
370
-1
100
AcDbPolyline
90
4
70
1
10
249.393
20
-15.9416
30
0
42
0
10
256.086
20
-52.454
30
0
42
0
10
428.984
20
-35.5748
30
0
42
0
10
428.984
20
-27.709
30
0
42
0
0
LWPOLYLINE
5
13A
100
AcDbEntity
67
0
8
frame
6
ByLayer
62
256
370
-1
100
AcDbPolyline
90
5
70
1
10
254.734
20
-16.2916
30
0
42
0
10
254.734
20
-45.0799
30
0
42
0
10
256.086
20
-52.454
30
0
42
0
10
256.234
20
-52.4395
30
0
42
0
10
256.234
20
-16.3899
30
0
42
0
0
LWPOLYLINE
5
13B
100
AcDbEntity
67
0
8
frame
6
ByLayer
62
256
370
-1
100
AcDbPolyline
90
4
70
1
10
293.984
20
-18.8634
30
0
42
0
10
293.984
20
-48.7541
30
0
42
0
10
295.484
20
-48.6077
30
0
42
0
10
295.484
20
-18.9616
30
0
42
0
0
LWPOLYLINE
5
13C
100
AcDbEntity
67
0
8
frame
6
ByLayer
62
256
370
-1
100
AcDbPolyline
90
4
70
1
10
329.484
20
-21.1894
30
0
42
0
10
329.484
20
-45.2885
30
0
42
0
10
330.984
20
-45.142
30
0
42
0
10
330.984
20
-21.2877
30
0
42
0
0
LWPOLYLINE
5
13D
100
AcDbEntity
67
0
8
frame
6
ByLayer
62
256
370
-1
100
AcDbPolyline
90
4
70
1
10
364.484
20
-23.4827
30
0
42
0
10
364.484
20
-41.8716
30
0
42
0
10
365.984
20
-41.7252
30
0
42
0
10
365.984
20
-23.581
30
0
42
0
0
LWPOLYLINE
5
13E
100
AcDbEntity
67
0
8
frame
6
ByLayer
62
256
370
-1
100
AcDbPolyline
90
4
70
1
10
399.984
20
-25.8088
30
0
42
0
10
399.984
20
-38.3327
30
0
42
0
10
401.484
20
-38.2595
30
0
42
0
10
401.484
20
-25.9071
30
0
42
0
0
LWPOLYLINE
5
140
100
AcDbEntity
67
0
8
frame
6
ByLayer
62
256
370
-1
100
AcDbPolyline
90
4
70
1
10
633.054
20
-52.8823
30
0
42
0
10
807.304
20
-35.8712
30
0
42
0
10
807.304
20
-34.3712
30
0
42
0
10
633.054
20
-51.3823
30
0
42
1
0
LWPOLYLINE
5
14B
100
AcDbEntity
67
0
8
frame
6
ByLayer
62
256
370
-1
100
AcDbPolyline
90
4
70
1
10
807.304
20
-25.1277
30
0
42
0
10
807.304
20
-35.8712
30
0
42
0
10
808.054
20
-35.8712
30
0
42
0
10
808.054
20
-25.1277
30
0
42
0
0
CIRCLE
5
155
100
AcDbEntity
67
0
8
aux
6
Continuous
62
256
370
-1
100
AcDbCircle
10
672.304
20
-16.9717
30
0
40
0.5
0
CIRCLE
5
156
100
AcDbEntity
67
0
8
aux
6
Continuous
62
256
370
-1
100
AcDbCircle
10
707.804
20
-19.3136
30
0
40
0.5
0
CIRCLE
5
157
100
AcDbEntity
67
0
8
aux
6
Continuous
62
256
370
-1
100
AcDbCircle
10
742.804
20
-21.6226
30
0
40
0.5
0
CIRCLE
5
158
100
AcDbEntity
67
0
8
aux
6
Continuous
62
256
370
-1
100
AcDbCircle
10
778.304
20
-23.9646
30
0
40
0.5
0
CIRCLE
5
159
100
AcDbEntity
67
0
8
aux
6
Continuous
62
256
370
-1
100
AcDbCircle
10
778.304
20
-37.9646
30
0
40
0.5
0
CIRCLE
5
15A
100
AcDbEntity
67
0
8
aux
6
Continuous
62
256
370
-1
100
AcDbCircle
10
742.804
20
-41.4452
30
0
40
0.5
0
CIRCLE
5
15B
100
AcDbEntity
67
0
8
aux
6
Continuous
62
256
370
-1
100
AcDbCircle
10
707.804
20
-44.8769
30
0
40
0.5
0
CIRCLE
5
15C
100
AcDbEntity
67
0
8
aux
6
Continuous
62
256
370
-1
100
AcDbCircle
10
672.304
20
-48.3575
30
0
40
0.5
0
CIRCLE
5
15D
100
AcDbEntity
67
0
8
aux
6
Continuous
62
256
370
-1
100
AcDbCircle
10
633.054
20
-52.1323
30
0
40
0.5
0
CIRCLE
5
15E
100
AcDbEntity
67
0
8
aux
6
Continuous
62
256
370
-1
100
AcDbCircle
10
633.054
20
-14.3823
30
0
40
0.5
0
CIRCLE
5
15F
100
AcDbEntity
67
0
8
aux
6
Continuous
62
256
370
-1
100
AcDbCircle
10
626.064
20
-14.0024
30
0
40
0.5
0
CIRCLE
5
160
100
AcDbEntity
67
0
8
aux
6
Continuous
62
256
370
-1
100
AcDbCircle
10
626.248
20
-7.50496
30
0
40
0.5
0
CIRCLE
5
161
100
AcDbEntity
67
0
8
aux
6
Continuous
62
256
370
-1
100
AcDbCircle
10
672.304
20
-24.9717
30
0
40
0.5
0
LINE
5
162
100
AcDbEntity
67
0
8
aux
6
Continuous
62
256
370
-1
100
AcDbLine
10
778.804
20
-23.9646
30
0
11
778.804
21
-37.9646
31
0
0
LINE
5
163
100
AcDbEntity
67
0
8
aux
6
Continuous
62
256
370
-1
100
AcDbLine
10
777.804
20
-37.9646
30
0
11
777.804
21
-23.9646
31
0
0
CIRCLE
5
164
100
AcDbEntity
67
0
8
aux
6
Continuous
62
256
370
-1
100
AcDbCircle
10
778.304
20
-0.9646
30
0
40
0.5
0
CIRCLE
5
165
100
AcDbEntity
67
0
8
aux
6
Continuous
62
256
370
-1
100
AcDbCircle
10
778.304
20
-62.9646
30
0
40
0.5
0
LINE
5
166
100
AcDbEntity
67
0
8
aux
6
Continuous
62
256
370
-1
100
AcDbLine
10
777.804
20
-23.9646
30
0
11
777.804
21
-0.9646
31
0
0
LINE
5
167
100
AcDbEntity
67
0
8
aux
6
Continuous
62
256
370
-1
100
AcDbLine
10
778.804
20
-0.9646
30
0
11
778.804
21
-23.9646
31
0
0
LINE
5
168
100
AcDbEntity
67
0
8
aux
6
Continuous
62
256
370
-1
100
AcDbLine
10
777.804
20
-37.9646
30
0
11
777.804
21
-62.9646
31
0
0
LINE
5
169
100
AcDbEntity
67
0
8
aux
6
Continuous
62
256
370
-1
100
AcDbLine
10
778.804
20
-62.9646
30
0
11
778.804
21
-37.9646
31
0
0
LINE
5
16A
100
AcDbEntity
67
0
8
aux
6
Continuous
62
256
370
-1
100
AcDbLine
10
743.304
20
-41.4452
30
0
11
743.304
21
-21.6226
31
0
0
LINE
5
16B
100
AcDbEntity
67
0
8
aux
6
Continuous
62
256
370
-1
100
AcDbLine
10
742.304
20
-21.6226
30
0
11
742.304
21
-41.4452
31
0
0
LINE
5
16C
100
AcDbEntity
67
0
8
aux
6
Continuous
62
256
370
-1
100
AcDbLine
10
708.304
20
-44.8769
30
0
11
708.304
21
-19.3136
31
0
0
LINE
5
16D
100
AcDbEntity
67
0
8
aux
6
Continuous
62
256
370
-1
100
AcDbLine
10
707.304
20
-19.3136
30
0
11
707.304
21
-44.8769
31
0
0
LINE
5
16E
100
AcDbEntity
67
0
8
aux
6
Continuous
62
256
370
-1
100
AcDbLine
10
672.804
20
-48.3575
30
0
11
672.804
21
-16.9717
31
0
0
LINE
5
16F
100
AcDbEntity
67
0
8
aux
6
Continuous
62
256
370
-1
100
AcDbLine
10
671.804
20
-16.9717
30
0
11
671.804
21
-48.3575
31
0
0
LINE
5
170
100
AcDbEntity
67
0
8
aux
6
Continuous
62
256
370
-1
100
AcDbLine
10
633.554
20
-52.1323
30
0
11
633.554
21
-14.3823
31
0
0
LINE
5
171
100
AcDbEntity
67
0
8
aux
6
Continuous
62
256
370
-1
100
AcDbLine
10
632.554
20
-14.3823
30
0
11
632.554
21
-52.1323
31
0
0
LINE
5
172
100
AcDbEntity
67
0
8
aux
6
Continuous
62
256
370
-1
100
AcDbLine
10
633.554
20
-52.1323
30
0
11
626.564
21
-14.0024
31
0
0
LINE
5
173
100
AcDbEntity
67
0
8
aux
6
Continuous
62
256
370
-1
100
AcDbLine
10
626.564
20
-14.0024
30
0
11
626.748
21
-7.50496
31
0
0
LINE
5
174
100
AcDbEntity
67
0
8
aux
6
Continuous
62
256
370
-1
100
AcDbLine
10
625.748
20
-7.50496
30
0
11
625.564
21
-14.0024
31
0
0
LINE
5
175
100
AcDbEntity
67
0
8
aux
6
Continuous
62
256
370
-1
100
AcDbLine
10
625.564
20
-14.0024
30
0
11
632.554
21
-52.1323
31
0
0
LWPOLYLINE
5
177
100
AcDbEntity
67
0
8
frame
6
ByLayer
62
256
370
-1
100
AcDbPolyline
90
5
70
1
10
626.584
20
-13.2865
30
0
42
0
10
626.569
20
-14.0298
30
0
42
0
10
626.709
20
-14.7947
30
0
42
0
10
807.206
20
-26.6213
30
0
42
0
10
807.304
20
-25.1277
30
0
42
0
0
LWPOLYLINE
5
178
100
AcDbEntity
67
0
8
frame
6
ByLayer
62
256
370
-1
100
AcDbPolyline
90
7
70
1
10
626.563
20
-14.0295
30
0
42
0
10
626.584
20
-13.2865
30
0
42
0
10
625.564
20
-14.0024
30
0
42
0
10
632.468
20
-51.664
30
0
42
-0.2
10
633.054
20
-51.3823
30
0
42
0
10
633.41
20
-51.3475
30
0
42
0
10
626.709
20
-14.7947
30
0
42
0
0
LWPOLYLINE
5
179
100
AcDbEntity
67
0
8
frame
6
ByLayer
62
256
370
-1
100
AcDbPolyline
90
5
70
1
10
632.554
20
-46.6774
30
0
42
0
10
633.41
20
-51.3475
30
0
42
0
10
633.554
20
-51.3335
30
0
42
0
10
633.554
20
-15.2432
30
0
42
0
10
632.554
20
-15.1776
30
0
42
0
0
LWPOLYLINE
5
17A
100
AcDbEntity
67
0
8
frame
6
ByLayer
62
256
370
-1
100
AcDbPolyline
90
4
70
1
10
625.564
20
-14.0024
30
0
42
0
10
626.584
20
-13.2865
30
0
42
0
10
626.748
20
-7.50496
30
0
42
0
10
625.748
20
-7.50496
30
0
42
0
0
LWPOLYLINE
5
17B
100
AcDbEntity
67
0
8
frame
6
ByLayer
62
256
370
-1
100
AcDbPolyline
90
4
70
1
10
671.804
20
-17.7494
30
0
42
0
10
671.804
20
-47.5993
30
0
42
0
10
672.804
20
-47.5017
30
0
42
0
10
672.804
20
-17.8149
30
0
42
0
0
LINE
5
17D
100
AcDbEntity
67
0
8
aux
6
ByLayer
62
256
370
-1
100
AcDbLine
10
633.054
20
-51.6323
30
0
11
672.304
21
-24.4717
31
0
0
LINE
5
17E
100
AcDbEntity
67
0
8
aux
6
ByLayer
62
256
370
-1
100
AcDbLine
10
672.304
20
-25.4717
30
0
11
633.054
21
-52.6323
31
0
0
LWPOLYLINE
5
17F
100
AcDbEntity
67
0
8
frame
6
ByLayer
62
256
370
-1
100
AcDbPolyline
90
5
70
1
10
635.157
20
-51.177
30
0
42
0
10
633.554
20
-51.3335
30
0
42
0
10
633.554
20
-51.2863
30
0
42
0
10
671.804
20
-24.8177
30
0
42
0
10
671.804
20
-25.8177
30
0
42
0
0
LWPOLYLINE
5
180
100
AcDbEntity
67
0
8
frame
6
ByLayer
62
256
370
-1
100
AcDbPolyline
90
4
70
1
10
707.304
20
-20.0754
30
0
42
0
10
707.304
20
-44.1337
30
0
42
0
10
708.304
20
-44.036
30
0
42
0
10
708.304
20
-20.141
30
0
42
0
0
LWPOLYLINE
5
181
100
AcDbEntity
67
0
8
frame
6
ByLayer
62
256
370
-1
100
AcDbPolyline
90
4
70
1
10
742.304
20
-22.3687
30
0
42
0
10
742.304
20
-40.7168
30
0
42
0
10
743.304
20
-40.6192
30
0
42
0
10
743.304
20
-22.4343
30
0
42
0
0
LWPOLYLINE
5
182
100
AcDbEntity
67
0
8
frame
6
ByLayer
62
256
370
-1
100
AcDbPolyline
90
4
70
1
10
777.804
20
-24.6948
30
0
42
0
10
778.804
20
-24.7603
30
0
42
0
10
778.804
20
-37.1535
30
0
42
0
10
777.804
20
-37.2511
30
0
42
0
0
LWPOLYLINE
5
183
100
AcDbEntity
67
0
8
frame
6
ByLayer
62
256
370
-1
100
AcDbPolyline
90
4
70
1
10
777.804
20
-23.1948
30
0
42
0
10
777.804
20
-0.9646
30
0
42
0
10
778.804
20
-0.9646
30
0
42
0
10
778.804
20
-23.2603
30
0
42
0
0
LINE
5
185
100
AcDbEntity
67
0
8
aux
6
ByLayer
62
256
370
-1
100
AcDbLine
10
785.018
20
-62.9646
30
0
11
785.018
21
-60.211
31
0
0
LINE
5
186
100
AcDbEntity
67
0
8
aux
6
ByLayer
62
256
370
-1
100
AcDbLine
10
785.018
20
-60.211
30
0
11
784.018
21
-60.211
31
0
0
LINE
5
18A
100
AcDbEntity
67
0
8
aux
6
Continuous
62
256
370
-1
100
AcDbLine
10
783.804
20
-62.9646
30
0
11
783.804
21
-59.9646
31
0
0
LINE
5
18B
100
AcDbEntity
67
0
8
aux
6
Continuous
62
256
370
-1
100
AcDbLine
10
783.804
20
-59.9646
30
0
11
782.804
21
-59.9646
31
0
0
LINE
5
18C
100
AcDbEntity
67
0
8
aux
6
Continuous
62
256
370
-1
100
AcDbLine
10
782.804
20
-59.9646
30
0
11
782.804
21
-61.9646
31
0
0
LINE
5
18D
100
AcDbEntity
67
0
8
aux
6
Continuous
62
256
370
-1
100
AcDbLine
10
782.804
20
-61.9646
30
0
11
778.804
21
-61.9646
31
0
0
LINE
5
18E
100
AcDbEntity
67
0
8
aux
6
Continuous
62
256
370
-1
100
AcDbLine
10
783.804
20
-62.9646
30
0
11
777.804
21
-62.9646
31
0
0
LWPOLYLINE
5
18F
100
AcDbEntity
67
0
8
frame
6
ByLayer
62
256
370
-1
100
AcDbPolyline
90
8
70
1
10
777.804
20
-38.7511
30
0
42
0
10
777.804
20
-58.8588
30
0
42
0.4
10
780.804
20
-62.9646
30
0
42
0.4
10
783.804
20
-59.9646
30
0
42
0
10
782.804
20
-59.9646
30
0
42
-0.4
10
780.804
20
-61.9646
30
0
42
-0.4
10
778.804
20
-59.1211
30
0
42
0
10
778.804
20
-38.6535
30
0
42
0
0
LWPOLYLINE
5
190
100
AcDbEntity
67
0
8
frame
6
ByLayer
62
256
370
-1
100
AcDbPolyline
90
4
70
1
10
23.3818
20
22.6793
30
0
42
0
10
197.632
20
39.6904
30
0
42
0
10
197.632
20
41.1904
30
0
42
0
10
23.3818
20
24.1793
30
0
42
1
0
LWPOLYLINE
5
191
100
AcDbEntity
67
0
8
frame
6
ByLayer
62
256
370
-1
100
AcDbPolyline
90
4
70
1
10
197.632
20
50.4339
30
0
42
0
10
197.632
20
39.6904
30
0
42
0
10
198.382
20
39.6904
30
0
42
0
10
198.382
20
50.4339
30
0
42
0
0
LWPOLYLINE
5
192
100
AcDbEntity
67
0
8
frame
6
ByLayer
62
256
370
-1
100
AcDbPolyline
90
5
70
1
10
16.9121
20
62.2751
30
0
42
0
10
16.8968
20
61.5318
30
0
42
0
10
17.037
20
60.7669
30
0
42
0
10
197.534
20
48.9403
30
0
42
0
10
197.632
20
50.4339
30
0
42
0
0
LWPOLYLINE
5
193
100
AcDbEntity
67
0
8
frame
6
ByLayer
62
256
370
-1
100
AcDbPolyline
90
7
70
1
10
16.8911
20
61.5321
30
0
42
0
10
16.9121
20
62.2751
30
0
42
0
10
15.8918
20
61.5592
30
0
42
0
10
22.796
20
23.8976
30
0
42
-0.2
10
23.3818
20
24.1793
30
0
42
0
10
23.7379
20
24.2141
30
0
42
0
10
17.037
20
60.7669
30
0
42
0
0
LWPOLYLINE
5
194
100
AcDbEntity
67
0
8
frame
6
ByLayer
62
256
370
-1
100
AcDbPolyline
90
5
70
1
10
22.8818
20
28.8842
30
0
42
0
10
23.7379
20
24.2141
30
0
42
0
10
23.8818
20
24.2281
30
0
42
0
10
23.8818
20
60.3184
30
0
42
0
10
22.8818
20
60.384
30
0
42
0
0
LWPOLYLINE
5
195
100
AcDbEntity
67
0
8
frame
6
ByLayer
62
256
370
-1
100
AcDbPolyline
90
4
70
1
10
15.8918
20
61.5592
30
0
42
0
10
16.9121
20
62.2751
30
0
42
0
10
17.0758
20
68.0566
30
0
42
0
10
16.0758
20
68.0566
30
0
42
0
0
LWPOLYLINE
5
196
100
AcDbEntity
67
0
8
frame
6
ByLayer
62
256
370
-1
100
AcDbPolyline
90
4
70
1
10
62.1318
20
57.8122
30
0
42
0
10
62.1318
20
27.9623
30
0
42
0
10
63.1318
20
28.0599
30
0
42
0
10
63.1318
20
57.7467
30
0
42
0
0
LWPOLYLINE
5
197
100
AcDbEntity
67
0
8
frame
6
ByLayer
62
256
370
-1
100
AcDbPolyline
90
5
70
1
10
25.4849
20
24.3846
30
0
42
0
10
23.8818
20
24.2281
30
0
42
0
10
23.8818
20
24.2753
30
0
42
0
10
62.1318
20
50.7439
30
0
42
0
10
62.1318
20
49.7439
30
0
42
0
0
LWPOLYLINE
5
198
100
AcDbEntity
67
0
8
frame
6
ByLayer
62
256
370
-1
100
AcDbPolyline
90
4
70
1
10
97.6318
20
55.4862
30
0
42
0
10
97.6318
20
31.4279
30
0
42
0
10
98.6318
20
31.5256
30
0
42
0
10
98.6318
20
55.4206
30
0
42
0
0
LWPOLYLINE
5
199
100
AcDbEntity
67
0
8
frame
6
ByLayer
62
256
370
-1
100
AcDbPolyline
90
4
70
1
10
132.632
20
53.1929
30
0
42
0
10
132.632
20
34.8448
30
0
42
0
10
133.632
20
34.9424
30
0
42
0
10
133.632
20
53.1273
30
0
42
0
0
LWPOLYLINE
5
19A
100
AcDbEntity
67
0
8
frame
6
ByLayer
62
256
370
-1
100
AcDbPolyline
90
4
70
1
10
168.132
20
50.8668
30
0
42
0
10
169.132
20
50.8013
30
0
42
0
10
169.132
20
38.4081
30
0
42
0
10
168.132
20
38.3105
30
0
42
0
0
LWPOLYLINE
5
19B
100
AcDbEntity
67
0
8
frame
6
ByLayer
62
256
370
-1
100
AcDbPolyline
90
4
70
1
10
168.132
20
52.3668
30
0
42
0
10
168.132
20
74.597
30
0
42
0
10
169.132
20
74.597
30
0
42
0
10
169.132
20
52.3013
30
0
42
0
0
LWPOLYLINE
5
19C
100
AcDbEntity
67
0
8
frame
6
ByLayer
62
256
370
-1
100
AcDbPolyline
90
8
70
1
10
168.132
20
36.8105
30
0
42
0
10
168.132
20
16.7028
30
0
42
0.4
10
171.132
20
12.597
30
0
42
0.4
10
174.132
20
15.597
30
0
42
0
10
173.132
20
15.597
30
0
42
-0.4
10
171.132
20
13.597
30
0
42
-0.4
10
169.132
20
16.4405
30
0
42
0
10
169.132
20
36.9081
30
0
42
0
0
SPLINE
5
19E
100
AcDbEntity
67
0
8
aux
6
Continuous
62
2
370
-1
100
AcDbSpline
70
3
71
3
72
20
73
16
74
0
40
1
40
2
40
3
40
4
40
5
40
6
40
7
40
8
40
9
40
10
40
11
40
12
40
13
40
14
40
15
40
16
40
17
40
18
40
19
40
20
10
232.961
20
-102.34
30
0
10
234.673
20
-101.252
30
0
10
235.6
20
-101.236
30
0
10
236.48
20
-101.812
30
0
10
237.28
20
-102.34
30
0
10
237.44
20
-102.851
30
0
10
237.152
20
-103.267
30
0
10
236.544
20
-102.867
30
0
10
235.872
20
-102.532
30
0
10
234.737
20
-102.548
30
0
10
233.425
20
-103.011
30
0
10
232.881
20
-102.947
30
0
10
232.881
20
-102.356
30
0
10
232.961
20
-102.34
30
0
10
234.673
20
-101.252
30
0
10
235.6
20
-101.236
30
0
0
SPLINE
5
19F
100
AcDbEntity
67
0
8
aux
6
Continuous
62
2
370
-1
100
AcDbSpline
70
0
71
3
72
9
73
5
74
0
40
0
40
0
40
0
40
0
40
1
40
2
40
2
40
2
40
2
10
236.784
20
-103.122
30
0
10
236.072
20
-103.401
30
0
10
235.221
20
-103.401
30
0
10
234.555
20
-103.169
30
0
10
234.152
20
-102.968
30
0
0
SPLINE
5
1A0
100
AcDbEntity
67
0
8
aux
6
Continuous
62
2
370
-1
100
AcDbSpline
70
0
71
3
72
9
73
5
74
0
40
0
40
0
40
0
40
0
40
1
40
2
40
2
40
2
40
2
10
233.858
20
-104.593
30
0
10
234.787
20
-104.113
30
0
10
235.422
20
-103.912
30
0
10
235.933
20
-104.051
30
0
10
236.645
20
-104.5
30
0
0
SPLINE
5
1A1
100
AcDbEntity
67
0
8
aux
6
Continuous
62
2
370
-1
100
AcDbSpline
70
0
71
3
72
45
73
41
74
0
40
0
40
0
40
0
40
0
40
1
40
2
40
3
40
4
40
5
40
6
40
7
40
8
40
9
40
10
40
11
40
12
40
13
40
14
40
15
40
16
40
17
40
18
40
19
40
20
40
21
40
22
40
23
40
24
40
25
40
26
40
27
40
28
40
29
40
30
40
31
40
32
40
33
40
34
40
35
40
36
40
37
40
38
40
38
40
38
40
38
10
231.356
20
-94.8395
30
0
10
230.505
20
-95.6906
30
0
10
230.211
20
-96.7765
30
0
10
230.035
20
-97.9505
30
0
10
230.094
20
-99.1535
30
0
10
230.094
20
-99.1535
30
0
10
229.39
20
-98.3315
30
0
10
228.656
20
-98.0085
30
0
10
227.952
20
-98.3905
30
0
10
227.805
20
-99.4175
30
0
10
228.245
20
-100.591
30
0
10
229.302
20
-101.647
30
0
10
230.182
20
-101.794
30
0
10
230.417
20
-101.295
30
0
10
230.417
20
-101.295
30
0
10
230.329
20
-103.467
30
0
10
230.475
20
-103.672
30
0
10
232.647
20
-105.286
30
0
10
234.261
20
-106.196
30
0
10
235.288
20
-106.226
30
0
10
236.492
20
-105.991
30
0
10
237.489
20
-105.081
30
0
10
238.267
20
-103.206
30
0
10
238.701
20
-101.608
30
0
10
238.718
20
-101.591
30
0
10
238.822
20
-101.817
30
0
10
238.927
20
-102.129
30
0
10
239.378
20
-102.06
30
0
10
239.986
20
-101.261
30
0
10
240.65
20
-100.04
30
0
10
240.663
20
-99.8005
30
0
10
240.663
20
-99.2395
30
0
10
240.343
20
-98.7045
30
0
10
239.942
20
-98.7045
30
0
10
239.301
20
-99.5465
30
0
10
239.234
20
-99.7205
30
0
10
239.234
20
-99.7205
30
0
10
239.432
20
-96.1925
30
0
10
239.218
20
-95.5718
30
0
10
237.976
20
-94.4159
30
0
10
237.634
20
-94.0948
30
0
0
SPLINE
5
1A2
100
AcDbEntity
67
0
8
aux
6
Continuous
62
2
370
-1
100
AcDbSpline
70
0
71
3
72
11
73
7
74
0
40
0
40
0
40
0
40
0
40
1
40
2
40
3
40
4
40
4
40
4
40
4
10
239.522
20
-99.9585
30
0
10
239.369
20
-100.293
30
0
10
239.237
20
-100.638
30
0
10
239.237
20
-100.973
30
0
10
239.461
20
-101.004
30
0
10
239.654
20
-100.73
30
0
10
239.684
20
-100.141
30
0
0
SPLINE
5
1A3
100
AcDbEntity
67
0
8
aux
6
Continuous
62
2
370
-1
100
AcDbSpline
70
0
71
3
72
9
73
5
74
0
40
0
40
0
40
0
40
0
40
1
40
2
40
2
40
2
40
2
10
239.44
20
-101.501
30
0
10
239.765
20
-101.095
30
0
10
240.181
20
-100.252
30
0
10
240.344
20
-99.7045
30
0
10
240.232
20
-99.1265
30
0
0
SPLINE
5
1A4
100
AcDbEntity
67
0
8
aux
6
Continuous
62
2
370
-1
100
AcDbSpline
70
0
71
3
72
8
73
4
74
0
40
0
40
0
40
0
40
0
40
1
40
1
40
1
40
1
10
239.055
20
-100.019
30
0
10
239.055
20
-100.334
30
0
10
238.902
20
-100.963
30
0
10
238.801
20
-101.258
30
0
0
SPLINE
5
1A5
100
AcDbEntity
67
0
8
aux
6
Continuous
62
2
370
-1
100
AcDbSpline
70
0
71
3
72
8
73
4
74
0
40
0
40
0
40
0
40
0
40
1
40
1
40
1
40
1
10
230.18
20
-99.4715
30
0
10
230.25
20
-100.014
30
0
10
230.356
20
-100.785
30
0
10
230.443
20
-100.942
30
0
0
SPLINE
5
1A6
100
AcDbEntity
67
0
8
aux
6
Continuous
62
2
370
-1
100
AcDbSpline
70
0
71
3
72
9
73
5
74
0
40
0
40
0
40
0
40
0
40
1
40
2
40
2
40
2
40
2
10
228.522
20
-99.9815
30
0
10
228.275
20
-99.5665
30
0
10
228.227
20
-99.2795
30
0
10
228.283
20
-98.7135
30
0
10
228.466
20
-98.5465
30
0
0
SPLINE
5
1A7
100
AcDbEntity
67
0
8
aux
6
Continuous
62
2
370
-1
100
AcDbSpline
70
0
71
3
72
12
73
8
74
0
40
0
40
0
40
0
40
0
40
1
40
2
40
3
40
4
40
5
40
5
40
5
40
5
10
229.463
20
-99.4555
30
0
10
229.399
20
-99.8455
30
0
10
229.566
20
-100.14
30
0
10
229.893
20
-100.483
30
0
10
229.678
20
-100.69
30
0
10
229.319
20
-100.778
30
0
10
228.984
20
-100.587
30
0
10
229.215
20
-100.085
30
0
0
SPLINE
5
1A8
100
AcDbEntity
67
0
8
aux
6
Continuous
62
2
370
-1
100
AcDbSpline
70
0
71
3
72
23
73
19
74
0
40
0
40
0
40
0
40
0
40
1
40
2
40
3
40
4
40
5
40
6
40
7
40
8
40
9
40
10
40
11
40
12
40
13
40
14
40
15
40
16
40
16
40
16
40
16
10
231.098
20
-97.0545
30
0
10
231.314
20
-96.5469
30
0
10
231.692
20
-96.1474
30
0
10
232.674
20
-95.9962
30
0
10
233.733
20
-95.845
30
0
10
234.672
20
-96.2986
30
0
10
234.931
20
-96.7955
30
0
10
234.91
20
-97.3135
30
0
10
234.812
20
-98.5665
30
0
10
234.251
20
-99.4735
30
0
10
233.979
20
-99.7125
30
0
10
233.798
20
-100.013
30
0
10
233.899
20
-100.194
30
0
10
234.15
20
-99.9835
30
0
10
234.661
20
-99.8535
30
0
10
235.133
20
-100.201
30
0
10
235.351
20
-100.395
30
0
10
235.654
20
-100.165
30
0
10
236.223
20
-100.286
30
0
0
SPLINE
5
1AA
100
AcDbEntity
67
0
8
aux
6
Continuous
62
2
370
-1
100
AcDbSpline
70
0
71
3
72
8
73
4
74
0
40
0
40
0
40
0
40
0
40
1
40
1
40
1
40
1
10
229.388
20
-94.8198
30
0
10
228.646
20
-95.5249
30
0
10
228.535
20
-96.0816
30
0
10
228.656
20
-98.0085
30
0
0
SPLINE
5
1AC
100
AcDbEntity
67
0
8
aux
6
Continuous
62
2
370
-1
100
AcDbSpline
70
0
71
3
72
8
73
4
74
0
40
0
40
0
40
0
40
0
40
1
40
1
40
1
40
1
10
239.942
20
-98.7045
30
0
10
240.601
20
-96.1764
30
0
10
240.282
20
-94.8162
30
0
10
238.742
20
-93.7125
30
0
0
SPLINE
5
1AD
100
AcDbEntity
67
0
8
aux
6
Continuous
62
2
370
-1
100
AcDbSpline
70
0
71
3
72
8
73
4
74
0
40
0
40
0
40
0
40
0
40
1
40
1
40
1
40
1
10
235.865
20
-97.3695
30
0
10
235.807
20
-98.0385
30
0
10
235.807
20
-98.6125
30
0
10
236.113
20
-99.7395
30
0
0
SPLINE
5
1AE
100
AcDbEntity
67
0
8
aux
6
Continuous
62
2
370
-1
100
AcDbSpline
70
0
71
3
72
11
73
7
74
0
40
0
40
0
40
0
40
0
40
1
40
2
40
3
40
4
40
4
40
4
40
4
10
231.098
20
-97.0545
30
0
10
231.593
20
-96.7645
30
0
10
232.112
20
-96.4372
30
0
10
233.287
20
-96.4372
30
0
10
233.956
20
-96.4782
30
0
10
234.174
20
-96.3416
30
0
10
233.733
20
-95.845
30
0
0
SPLINE
5
1AF
100
AcDbEntity
67
0
8
aux
6
Continuous
62
2
370
-1
100
AcDbSpline
70
0
71
3
72
16
73
12
74
0
40
0
40
0
40
0
40
0
40
1
40
2
40
3
40
4
40
5
40
6
40
7
40
8
40
9
40
9
40
9
40
9
10
238.726
20
-96.7985
30
0
10
238.434
20
-96.4435
30
0
10
238.041
20
-96.2151
30
0
10
236.963
20
-96.0629
30
0
10
236.265
20
-96.0629
30
0
10
235.961
20
-96.3674
30
0
10
235.91
20
-96.5703
30
0
10
236.278
20
-96.6084
30
0
10
236.899
20
-96.5196
30
0
10
237.483
20
-96.5323
30
0
10
238.32
20
-96.6211
30
0
10
238.701
20
-96.8495
30
0
0
SPLINE
5
1B0
100
AcDbEntity
67
0
8
aux
6
Continuous
62
2
370
-1
100
AcDbSpline
70
0
71
3
72
9
73
5
74
0
40
0
40
0
40
0
40
0
40
1
40
2
40
2
40
2
40
2
10
234.15
20
-99.9835
30
0
10
234.411
20
-100.573
30
0
10
234.863
20
-100.895
30
0
10
235.177
20
-100.811
30
0
10
235.133
20
-100.201
30
0
0
SPLINE
5
1B1
100
AcDbEntity
67
0
8
aux
6
Continuous
62
2
370
-1
100
AcDbSpline
70
0
71
3
72
9
73
5
74
0
40
0
40
0
40
0
40
0
40
1
40
2
40
2
40
2
40
2
10
234.709
20
-100.221
30
0
10
234.533
20
-100.45
30
0
10
234.709
20
-100.527
30
0
10
234.901
20
-100.466
30
0
10
234.778
20
-100.274
30
0
0
SPLINE
5
1B2
100
AcDbEntity
67
0
8
aux
6
Continuous
62
2
370
-1
100
AcDbSpline
70
0
71
3
72
12
73
8
74
0
40
0
40
0
40
0
40
0
40
1
40
2
40
3
40
4
40
5
40
5
40
5
40
5
10
235.351
20
-100.395
30
0
10
235.629
20
-100.665
30
0
10
235.912
20
-100.841
30
0
10
236.242
20
-100.726
30
0
10
236.165
20
-100.535
30
0
10
235.981
20
-100.251
30
0
10
235.654
20
-100.165
30
0
10
235.351
20
-100.395
30
0
0
SPLINE
5
1B3
100
AcDbEntity
67
0
8
aux
6
Continuous
62
2
370
-1
100
AcDbSpline
70
0
71
3
72
11
73
7
74
0
40
0
40
0
40
0
40
0
40
1
40
2
40
3
40
4
40
4
40
4
40
4
10
234.432
20
-97.4805
30
0
10
233.959
20
-97.2625
30
0
10
233.632
20
-97.0195
30
0
10
233.377
20
-96.8015
30
0
10
232.855
20
-96.6805
30
0
10
232.443
20
-96.7655
30
0
10
232.006
20
-97.0805
30
0
0
SPLINE
5
1B4
100
AcDbEntity
67
0
8
aux
6
Continuous
62
2
370
-1
100
AcDbSpline
70
0
71
3
72
12
73
8
74
0
40
0
40
0
40
0
40
0
40
1
40
2
40
3
40
4
40
5
40
5
40
5
40
5
10
231.327
20
-97.7725
30
0
10
231.921
20
-97.7965
30
0
10
232.236
20
-97.6625
30
0
10
232.54
20
-97.2865
30
0
10
233.049
20
-97.2385
30
0
10
233.547
20
-97.3715
30
0
10
233.801
20
-97.6025
30
0
10
234.323
20
-97.7235
30
0
0
SPLINE
5
1B5
100
AcDbEntity
67
0
8
aux
6
Continuous
62
2
370
-1
100
AcDbSpline
70
0
71
3
72
10
73
6
74
0
40
0
40
0
40
0
40
0
40
1
40
2
40
3
40
3
40
3
40
3
10
232.236
20
-97.6625
30
0
10
232.491
20
-98.0145
30
0
10
232.976
20
-98.0755
30
0
10
233.401
20
-97.9905
30
0
10
233.656
20
-97.9175
30
0
10
233.801
20
-97.6025
30
0
0
SPLINE
5
1B7
100
AcDbEntity
67
0
8
aux
6
Continuous
62
2
370
-1
100
AcDbSpline
70
0
71
3
72
9
73
5
74
0
40
0
40
0
40
0
40
0
40
1
40
2
40
2
40
2
40
2
10
232.613
20
-97.7725
30
0
10
233.027
20
-98.1685
30
0
10
233.534
20
-98.3485
30
0
10
234.469
20
-98.4045
30
0
10
235.19
20
-98.1455
30
0
0
SPLINE
5
1B8
100
AcDbEntity
67
0
8
aux
6
Continuous
62
2
370
-1
100
AcDbSpline
70
0
71
3
72
11
73
7
74
0
40
0
40
0
40
0
40
0
40
1
40
2
40
3
40
4
40
4
40
4
40
4
10
236.208
20
-97.4475
30
0
10
236.459
20
-97.1025
30
0
10
236.815
20
-96.9145
30
0
10
237.244
20
-96.7985
30
0
10
237.767
20
-96.8515
30
0
10
237.935
20
-97.1445
30
0
10
238.563
20
-97.7095
30
0
0
SPLINE
5
1B9
100
AcDbEntity
67
0
8
aux
6
Continuous
62
2
370
-1
100
AcDbSpline
70
0
71
3
72
11
73
7
74
0
40
0
40
0
40
0
40
0
40
1
40
2
40
3
40
4
40
4
40
4
40
4
10
232.461
20
-97.4905
30
0
10
232.597
20
-97.7885
30
0
10
232.758
20
-97.9495
30
0
10
233.043
20
-97.9245
30
0
10
233.18
20
-97.8745
30
0
10
233.365
20
-97.7075
30
0
10
233.384
20
-97.4225
30
0
0
SPLINE
5
1BA
100
AcDbEntity
67
0
8
aux
6
Continuous
62
2
370
-1
100
AcDbSpline
70
0
71
3
72
19
73
15
74
0
40
0
40
0
40
0
40
0
40
1
40
2
40
3
40
4
40
5
40
6
40
7
40
8
40
9
40
10
40
11
40
12
40
12
40
12
40
12
10
236.32
20
-97.7565
30
0
10
236.592
20
-97.5715
30
0
10
236.952
20
-97.4155
30
0
10
237.463
20
-97.3965
30
0
10
237.861
20
-97.5765
30
0
10
238.012
20
-97.7905
30
0
10
238.226
20
-98.0185
30
0
10
238.323
20
-98.0385
30
0
10
238.148
20
-98.1545
30
0
10
237.871
20
-98.4225
30
0
10
237.453
20
-98.6805
30
0
10
236.947
20
-98.5825
30
0
10
236.684
20
-98.4025
30
0
10
236.383
20
-98.1405
30
0
10
236.252
20
-97.8335
30
0
0
SPLINE
5
1BB
100
AcDbEntity
67
0
8
aux
6
Continuous
62
2
370
-1
100
AcDbSpline
70
0
71
3
72
11
73
7
74
0
40
0
40
0
40
0
40
0
40
1
40
2
40
3
40
4
40
4
40
4
40
4
10
236.694
20
-97.5565
30
0
10
236.684
20
-97.8535
30
0
10
236.816
20
-98.1305
30
0
10
237.2
20
-98.2765
30
0
10
237.681
20
-98.2525
30
0
10
237.978
20
-98.0625
30
0
10
238.071
20
-97.9455
30
0
0
SPLINE
5
1BC
100
AcDbEntity
67
0
8
aux
6
Continuous
62
2
370
-1
100
AcDbSpline
70
0
71
3
72
13
73
9
74
0
40
0
40
0
40
0
40
0
40
1
40
2
40
3
40
4
40
5
40
6
40
6
40
6
40
6
10
237.013
20
-97.5015
30
0
10
236.904
20
-97.5495
30
0
10
236.867
20
-97.6505
30
0
10
236.871
20
-97.8605
30
0
10
237.024
20
-98.0475
30
0
10
237.481
20
-98.0695
30
0
10
237.716
20
-97.9955
30
0
10
237.739
20
-97.7035
30
0
10
237.668
20
-97.5275
30
0
0
SPLINE
5
1BD
100
AcDbEntity
67
0
8
aux
6
Continuous
62
2
370
-1
100
AcDbSpline
70
0
71
3
72
36
73
32
74
0
40
0
40
0
40
0
40
0
40
1
40
2
40
3
40
4
40
5
40
6
40
7
40
8
40
9
40
10
40
11
40
12
40
13
40
14
40
15
40
16
40
17
40
18
40
19
40
20
40
21
40
22
40
23
40
24
40
25
40
26
40
27
40
28
40
29
40
29
40
29
40
29
10
230.219
20
-102.275
30
0
10
227.974
20
-101.265
30
0
10
225.639
20
-99.5815
30
0
10
224.179
20
-97.4045
30
0
10
224.135
20
-95.6083
30
0
10
224.426
20
-95.0919
30
0
10
225.459
20
-94.5531
30
0
10
226.492
20
-94.2164
30
0
10
227.525
20
-94.1715
30
0
10
228.535
20
-94.4409
30
0
10
229.972
20
-94.7103
30
0
10
231.992
20
-94.6878
30
0
10
232.89
20
-94.2837
30
0
10
236.123
20
-94.2164
30
0
10
238.211
20
-93.7604
30
0
10
239.109
20
-93.5198
30
0
10
240.649
20
-93.6
30
0
10
241.74
20
-94.2737
30
0
10
242.418
20
-94.9142
30
0
10
242.844
20
-96.0277
30
0
10
243.45
20
-97.5015
30
0
10
243.744
20
-97.8455
30
0
10
244.088
20
-98.0095
30
0
10
244.514
20
-97.8945
30
0
10
244.514
20
-97.8945
30
0
10
244.629
20
-98.1235
30
0
10
242.944
20
-99.8805
30
0
10
241.424
20
-101.167
30
0
10
240.237
20
-101.73
30
0
10
239.63
20
-102.028
30
0
10
238.842
20
-102.38
30
0
10
238.426
20
-102.39
30
0
0
SPLINE
5
1BE
100
AcDbEntity
67
0
8
aux
6
Continuous
62
2
370
-1
100
AcDbSpline
70
0
71
3
72
8
73
4
74
0
40
0
40
0
40
0
40
0
40
1
40
1
40
1
40
1
10
244.514
20
-97.8945
30
0
10
244.354
20
-97.5105
30
0
10
243.9
20
-97.2835
30
0
10
243.171
20
-96.8185
30
0
0
SPLINE
5
1BF
100
AcDbEntity
67
0
8
aux
6
Continuous
62
2
370
-1
100
AcDbSpline
70
0
71
3
72
13
73
9
74
0
40
0
40
0
40
0
40
0
40
1
40
2
40
3
40
4
40
5
40
6
40
6
40
6
40
6
10
225.459
20
-94.5531
30
0
10
227.007
20
-93.7175
30
0
10
228.731
20
-93.5753
30
0
10
229.478
20
-93.4508
30
0
10
231.132
20
-92.953
30
0
10
233.252
20
-92.5073
30
0
10
237.065
20
-92.7857
30
0
10
239.355
20
-93.1094
30
0
10
241.189
20
-93.8319
30
0
0
SPLINE
5
1C0
100
AcDbEntity
67
0
8
aux
6
Continuous
62
2
370
-1
100
AcDbSpline
70
0
71
3
72
13
73
9
74
0
40
0
40
0
40
0
40
0
40
1
40
2
40
3
40
4
40
5
40
6
40
6
40
6
40
6
10
229.196
20
-93.4234
30
0
10
230.113
20
-92.4041
30
0
10
230.493
20
-91.9872
30
0
10
232.087
20
-90.9957
30
0
10
233.321
20
-90.9352
30
0
10
236.231
20
-91.111
30
0
10
237.494
20
-91.5106
30
0
10
238.597
20
-92.246
30
0
10
239.355
20
-93.1094
30
0
0
SPLINE
5
1C1
100
AcDbEntity
67
0
8
aux
6
Continuous
62
2
370
-1
100
AcDbSpline
70
0
71
3
72
18
73
14
74
0
40
0
40
0
40
0
40
0
40
1
40
2
40
3
40
4
40
5
40
6
40
7
40
8
40
9
40
10
40
11
40
11
40
11
40
11
10
229.196
20
-93.4234
30
0
10
229.423
20
-92.6953
30
0
10
230.468
20
-91.5531
30
0
10
231.137
20
-90.933
30
0
10
232.116
20
-89.5949
30
0
10
232.654
20
-88.1916
30
0
10
232.671
20
-87.751
30
0
10
233.062
20
-87.4247
30
0
10
234.074
20
-87.5552
30
0
10
235.314
20
-87.6205
30
0
10
236.081
20
-87.4084
30
0
10
236.75
20
-87.6531
30
0
10
236.881
20
-87.9632
30
0
10
239.355
20
-93.1094
30
0
0
SPLINE
5
1C2
100
AcDbEntity
67
0
8
aux
6
Continuous
62
2
370
-1
100
AcDbSpline
70
0
71
3
72
8
73
4
74
0
40
0
40
0
40
0
40
0
40
1
40
1
40
1
40
1
10
238.549
20
-99.5435
30
0
10
238.114
20
-100.547
30
0
10
237.913
20
-101.919
30
0
10
238.011
20
-102.4
30
0
0
SPLINE
5
1C3
100
AcDbEntity
67
0
8
aux
6
Continuous
62
2
370
-1
100
AcDbSpline
70
0
71
3
72
8
73
4
74
0
40
0
40
0
40
0
40
0
40
1
40
1
40
1
40
1
10
231.031
20
-99.2065
30
0
10
231.908
20
-99.7725
30
0
10
232.191
20
-100.705
30
0
10
232.248
20
-101.667
30
0
0
IMAGE
5
1C5
100
AcDbEntity
67
0
8
0
6
ByLayer
62
256
370
-1
100
AcDbRasterImage
90
0
10
314.437
20
25.5079
30
0
11
0.0863725
21
-0.00109107
31
0
12
0.00109107
22
0.0863725
32
0
13
751
23
600
340
1C4
70
3
0
LINE
5
1C6
100
AcDbEntity
67
0
8
aux
6
ByLayer
62
256
370
-1
100
AcDbLine
10
335.317
20
28.0192
30
0
11
335.317
21
74.0192
31
0
0
LINE
5
1C8
100
AcDbEntity
67
0
8
aux
6
ByLayer
62
256
370
-1
100
AcDbLine
10
335.317
20
28.0192
30
0
11
335.317
21
45.0192
31
0
0
LINE
5
1C9
100
AcDbEntity
67
0
8
aux
6
ByLayer
62
256
370
-1
100
AcDbLine
10
335.317
20
51.0192
30
0
11
396.895
21
51.0192
31
0
0
ARC
5
1CB
100
AcDbEntity
67
0
8
aux
6
ByLayer
62
256
370
-1
100
AcDbCircle
10
335.317
20
45.0192
30
0
40
19
100
AcDbArc
50
-53.9498
51
-26.6822
0
ARC
5
1CC
100
AcDbEntity
67
0
8
aux
6
ByLayer
62
256
370
-1
100
AcDbCircle
10
335.317
20
28.0192
30
0
40
16
100
AcDbArc
50
10.7079
51
34.9727
0
ARC
5
1CE
100
AcDbEntity
67
0
8
aux
6
ByLayer
62
256
370
-1
100
AcDbCircle
10
335.317
20
28.0192
30
0
40
20
100
AcDbArc
50
153.2
51
177.032
0
ARC
5
1CF
100
AcDbEntity
67
0
8
aux
6
ByLayer
62
256
370
-1
100
AcDbCircle
10
335.317
20
45.0192
30
0
40
22
100
AcDbArc
50
-165.849
51
-142.621
0
ARC
5
1D0
100
AcDbEntity
67
0
8
aux
6
ByLayer
62
256
370
-1
100
AcDbCircle
10
350.374
20
33.431
30
0
40
32
100
AcDbArc
50
26.4592
51
40.6224
0
LINE
5
1D1
100
AcDbEntity
67
0
8
aux
6
ByLayer
62
256
370
-1
100
AcDbLine
10
316.247
20
34.0486
30
0
11
335.317
21
45.0192
31
0
0
LINE
5
1D2
100
AcDbEntity
67
0
8
aux
6
ByLayer
62
256
370
-1
100
AcDbLine
10
335.317
20
45.0192
30
0
11
350.374
21
33.431
31
0
0
LINE
5
1D4
100
AcDbEntity
67
0
8
aux
6
ByLayer
62
256
370
-1
100
AcDbLine
10
335.317
20
74.0192
30
0
11
335.317
21
57.0192
31
0
0
ARC
5
1D5
100
AcDbEntity
67
0
8
aux
6
ByLayer
62
256
370
-1
100
AcDbCircle
10
335.317
20
57.0192
30
0
40
19
100
AcDbArc
50
26.6822
51
53.9498
0
ARC
5
1D6
100
AcDbEntity
67
0
8
aux
6
ByLayer
62
256
370
-1
100
AcDbCircle
10
335.317
20
74.0192
30
0
40
16
100
AcDbArc
50
325.027
51
349.292
0
ARC
5
1D7
100
AcDbEntity
67
0
8
aux
6
ByLayer
62
256
370
-1
100
AcDbCircle
10
335.317
20
74.0192
30
0
40
20
100
AcDbArc
50
182.968
51
206.8
0
ARC
5
1D8
100
AcDbEntity
67
0
8
aux
6
ByLayer
62
256
370
-1
100
AcDbCircle
10
335.317
20
57.0192
30
0
40
22
100
AcDbArc
50
142.621
51
165.849
0
LINE
5
1D9
100
AcDbEntity
67
0
8
aux
6
ByLayer
62
256
370
-1
100
AcDbLine
10
316.247
20
67.9898
30
0
11
335.317
21
57.0192
31
0
0
LINE
5
1DA
100
AcDbEntity
67
0
8
aux
6
ByLayer
62
256
370
-1
100
AcDbLine
10
335.317
20
57.0192
30
0
11
350.374
21
68.6074
31
0
0
CIRCLE
5
1DC
100
AcDbEntity
67
0
8
aux
6
Continuous
62
256
370
-1
100
AcDbCircle
10
335.317
20
51.0192
30
0
40
0.4
0
LINE
5
1DD
100
AcDbEntity
67
0
8
aux
6
Continuous
62
256
370
-1
100
AcDbLine
10
334.917
20
51.0192
30
0
11
335.717
21
51.0192
31
0
0
LINE
5
1DE
100
AcDbEntity
67
0
8
aux
6
Continuous
62
256
370
-1
100
AcDbLine
10
335.317
20
51.4192
30
0
11
335.317
21
50.6192
31
0
0
CIRCLE
5
1DF
100
AcDbEntity
67
0
8
aux
6
Continuous
62
256
370
-1
100
AcDbCircle
10
335.317
20
57.0192
30
0
40
0.4
0
LINE
5
1E0
100
AcDbEntity
67
0
8
aux
6
Continuous
62
256
370
-1
100
AcDbLine
10
335.664
20
56.8197
30
0
11
334.97
21
57.2187
31
0
0
LINE
5
1E1
100
AcDbEntity
67
0
8
aux
6
Continuous
62
256
370
-1
100
AcDbLine
10
335.118
20
56.6725
30
0
11
335.516
21
57.3659
31
0
0
CIRCLE
5
1E2
100
AcDbEntity
67
0
8
aux
6
Continuous
62
256
370
-1
100
AcDbCircle
10
335.317
20
45.0192
30
0
40
0.4
0
LINE
5
1E3
100
AcDbEntity
67
0
8
aux
6
Continuous
62
256
370
-1
100
AcDbLine
10
334.917
20
45.0192
30
0
11
335.717
21
45.0192
31
0
0
LINE
5
1E4
100
AcDbEntity
67
0
8
aux
6
Continuous
62
256
370
-1
100
AcDbLine
10
335.317
20
45.4192
30
0
11
335.317
21
44.6192
31
0
0
CIRCLE
5
1E5
100
AcDbEntity
67
0
8
aux
6
Continuous
62
256
370
-1
100
AcDbCircle
10
335.317
20
28.0192
30
0
40
0.4
0
LINE
5
1E6
100
AcDbEntity
67
0
8
aux
6
Continuous
62
256
370
-1
100
AcDbLine
10
334.917
20
28.0192
30
0
11
335.717
21
28.0192
31
0
0
LINE
5
1E7
100
AcDbEntity
67
0
8
aux
6
Continuous
62
256
370
-1
100
AcDbLine
10
335.317
20
28.4192
30
0
11
335.317
21
27.6192
31
0
0
CIRCLE
5
1E8
100
AcDbEntity
67
0
8
aux
6
Continuous
62
256
370
-1
100
AcDbCircle
10
350.374
20
33.431
30
0
40
0.4
0
LINE
5
1E9
100
AcDbEntity
67
0
8
aux
6
Continuous
62
256
370
-1
100
AcDbLine
10
349.974
20
33.431
30
0
11
350.774
21
33.431
31
0
0
LINE
5
1EA
100
AcDbEntity
67
0
8
aux
6
Continuous
62
256
370
-1
100
AcDbLine
10
350.374
20
33.831
30
0
11
350.374
21
33.031
31
0
0
CIRCLE
5
1EB
100
AcDbEntity
67
0
8
aux
6
Continuous
62
256
370
-1
100
AcDbCircle
10
316.247
20
34.0486
30
0
40
0.4
0
LINE
5
1EC
100
AcDbEntity
67
0
8
aux
6
Continuous
62
256
370
-1
100
AcDbLine
10
315.847
20
34.0486
30
0
11
316.647
21
34.0486
31
0
0
LINE
5
1ED
100
AcDbEntity
67
0
8
aux
6
Continuous
62
256
370
-1
100
AcDbLine
10
316.247
20
34.4486
30
0
11
316.247
21
33.6486
31
0
0
CIRCLE
5
1EE
100
AcDbEntity
67
0
8
aux
6
Continuous
62
256
370
-1
100
AcDbCircle
10
316.247
20
67.99
30
0
40
0.4
0
LINE
5
1EF
100
AcDbEntity
67
0
8
aux
6
Continuous
62
256
370
-1
100
AcDbLine
10
315.9
20
68.1895
30
0
11
316.594
21
67.7906
31
0
0
LINE
5
1F0
100
AcDbEntity
67
0
8
aux
6
Continuous
62
256
370
-1
100
AcDbLine
10
316.447
20
68.3368
30
0
11
316.048
21
67.6433
31
0
0
CIRCLE
5
1F1
100
AcDbEntity
67
0
8
aux
6
Continuous
62
256
370
-1
100
AcDbCircle
10
350.374
20
68.6074
30
0
40
0.4
0
LINE
5
1F2
100
AcDbEntity
67
0
8
aux
6
Continuous
62
256
370
-1
100
AcDbLine
10
350.13
20
68.9244
30
0
11
350.618
21
68.2904
31
0
0
LINE
5
1F3
100
AcDbEntity
67
0
8
aux
6
Continuous
62
256
370
-1
100
AcDbLine
10
350.691
20
68.8514
30
0
11
350.057
21
68.3634
31
0
0
CIRCLE
5
1F4
100
AcDbEntity
67
0
8
aux
6
Continuous
62
256
370
-1
100
AcDbCircle
10
377.107
20
51.0192
30
0
40
0.4
0
LINE
5
1F5
100
AcDbEntity
67
0
8
aux
6
Continuous
62
256
370
-1
100
AcDbLine
10
376.707
20
51.0192
30
0
11
377.507
21
51.0192
31
0
0
LINE
5
1F6
100
AcDbEntity
67
0
8
aux
6
Continuous
62
256
370
-1
100
AcDbLine
10
377.107
20
51.4192
30
0
11
377.107
21
50.6192
31
0
0
LINE
5
1F7
100
AcDbEntity
67
0
8
aux
6
Continuous
62
256
370
-1
100
AcDbLine
10
334.917
20
28.0192
30
0
11
334.917
21
74.0192
31
0
0
LINE
5
1F8
100
AcDbEntity
67
0
8
aux
6
Continuous
62
256
370
-1
100
AcDbLine
10
334.917
20
74.0192
30
0
11
335.717
21
74.0192
31
0
0
LINE
5
1F9
100
AcDbEntity
67
0
8
aux
6
Continuous
62
256
370
-1
100
AcDbLine
10
335.717
20
74.0192
30
0
11
335.717
21
28.0192
31
0
0
LINE
5
1FA
100
AcDbEntity
67
0
8
aux
6
Continuous
62
256
370
-1
100
AcDbLine
10
335.073
20
57.3362
30
0
11
350.13
21
68.9244
31
0
0
LINE
5
1FB
100
AcDbEntity
67
0
8
aux
6
Continuous
62
256
370
-1
100
AcDbLine
10
335.561
20
56.7022
30
0
11
350.618
21
68.2904
31
0
0
LINE
5
1FC
100
AcDbEntity
67
0
8
aux
6
Continuous
62
256
370
-1
100
AcDbLine
10
316.447
20
68.3368
30
0
11
335.516
21
57.3659
31
0
0
LINE
5
1FD
100
AcDbEntity
67
0
8
aux
6
Continuous
62
256
370
-1
100
AcDbLine
10
335.118
20
56.6725
30
0
11
316.048
21
67.6433
31
0
0
LINE
5
1FE
100
AcDbEntity
67
0
8
aux
6
Continuous
62
256
370
-1
100
AcDbLine
10
335.317
20
51.4192
30
0
11
377.107
21
51.4192
31
0
0
LINE
5
1FF
100
AcDbEntity
67
0
8
aux
6
Continuous
62
256
370
-1
100
AcDbLine
10
377.107
20
50.6192
30
0
11
335.317
21
50.6192
31
0
0
LINE
5
200
100
AcDbEntity
67
0
8
aux
6
Continuous
62
256
370
-1
100
AcDbLine
10
335.118
20
45.3659
30
0
11
316.048
21
34.3951
31
0
0
LINE
5
201
100
AcDbEntity
67
0
8
aux
6
Continuous
62
256
370
-1
100
AcDbLine
10
316.447
20
33.7016
30
0
11
335.516
21
44.6725
31
0
0
LINE
5
202
100
AcDbEntity
67
0
8
aux
6
Continuous
62
256
370
-1
100
AcDbLine
10
335.561
20
45.3362
30
0
11
350.618
21
33.748
31
0
0
LINE
5
203
100
AcDbEntity
67
0
8
aux
6
Continuous
62
256
370
-1
100
AcDbLine
10
335.073
20
44.7022
30
0
11
350.13
21
33.114
31
0
0
CIRCLE
5
204
100
AcDbEntity
67
0
8
aux
6
Continuous
62
256
370
-1
100
AcDbCircle
10
335.317
20
51.0192
30
0
40
0.4
0
LINE
5
205
100
AcDbEntity
67
0
8
aux
6
Continuous
62
256
370
-1
100
AcDbLine
10
335.057
20
51.3231
30
0
11
335.577
21
50.7153
31
0
0
LINE
5
206
100
AcDbEntity
67
0
8
aux
6
Continuous
62
256
370
-1
100
AcDbLine
10
335.621
20
51.2793
30
0
11
335.013
21
50.7591
31
0
0
LINE
5
207
100
AcDbEntity
67
0
8
aux
6
Continuous
62
256
370
-1
100
AcDbLine
10
335.621
20
51.2793
30
0
11
350.678
21
33.6911
31
0
0
LINE
5
208
100
AcDbEntity
67
0
8
aux
6
Continuous
62
256
370
-1
100
AcDbLine
10
335.013
20
50.7591
30
0
11
350.07
21
33.1709
31
0
0
LINE
5
209
100
AcDbEntity
67
0
8
aux
6
Continuous
62
256
370
-1
100
AcDbLine
10
335.013
20
51.2793
30
0
11
350.07
21
68.8675
31
0
0
LINE
5
20A
100
AcDbEntity
67
0
8
aux
6
Continuous
62
256
370
-1
100
AcDbLine
10
335.621
20
50.7591
30
0
11
350.678
21
68.3473
31
0
0
LWPOLYLINE
5
20B
100
AcDbEntity
67
0
8
rudder
6
ByLayer
62
256
370
-1
100
AcDbPolyline
90
16
70
1
10
316.447
20
33.7016
30
0
42
-0.1
10
334.917
20
28.0192
30
0
42
-0.1
10
335.717
20
28.0192
30
0
42
-0.1
10
350.13
20
33.114
30
0
42
-0.1
10
350.678
20
33.6911
30
0
42
-0.1
10
377.107
20
50.6192
30
0
42
-0.1
10
377.107
20
51.4192
30
0
42
-0.1
10
350.678
20
68.3473
30
0
42
-0.1
10
350.07
20
68.8675
30
0
42
-0.1
10
335.717
20
74.0192
30
0
42
-0.1
10
334.917
20
74.0192
30
0
42
-0.1
10
316.447
20
68.3368
30
0
42
-0.1
10
316.048
20
67.6433
30
0
42
0
10
335.317
20
56.6192
30
0
42
0
10
335.317
20
45.4192
30
0
42
0
10
316.048
20
34.3951
30
0
42
-0.1
0
LWPOLYLINE
5
20D
100
AcDbEntity
67
0
8
rudder
6
Hidden
62
256
370
-1
100
AcDbPolyline
90
3
70
0
10
316.447
20
33.7016
30
0
42
0
10
334.917
20
44.3276
30
0
42
0
10
334.917
20
28.0192
30
0
0
LWPOLYLINE
5
20E
100
AcDbEntity
67
0
8
rudder
6
Hidden
62
256
370
-1
100
AcDbPolyline
90
3
70
0
10
335.717
20
28.0192
30
0
42
0
10
335.717
20
44.2066
30
0
42
0
10
350.13
20
33.114
30
0
0
LWPOLYLINE
5
20F
100
AcDbEntity
67
0
8
rudder
6
Hidden
62
256
370
-1
100
AcDbPolyline
90
3
70
0
10
335.717
20
45.2161
30
0
42
0
10
347.564
20
36.0985
30
0
42
0
10
335.317
20
50.4041
30
0
0
LWPOLYLINE
5
210
100
AcDbEntity
67
0
8
rudder
6
Hidden
62
256
370
-1
100
AcDbPolyline
90
3
70
0
10
350.678
20
33.6911
30
0
42
0
10
336.186
20
50.6192
30
0
42
0
10
377.107
20
50.6192
30
0
0
LWPOLYLINE
5
211
100
AcDbEntity
67
0
8
rudder
6
Hidden
62
256
370
-1
100
AcDbPolyline
90
3
70
0
10
377.107
20
51.4192
30
0
42
0
10
336.186
20
51.4192
30
0
42
0
10
350.678
20
68.3473
30
0
0
LWPOLYLINE
5
212
100
AcDbEntity
67
0
8
rudder
6
Hidden
62
256
370
-1
100
AcDbPolyline
90
3
70
0
10
335.317
20
51.6343
30
0
42
0
10
347.564
20
65.9399
30
0
42
0
10
335.317
20
56.6192
30
0
0
LWPOLYLINE
5
213
100
AcDbEntity
67
0
8
rudder
6
Hidden
62
256
370
-1
100
AcDbPolyline
90
3
70
0
10
350.07
20
68.8675
30
0
42
0
10
335.717
20
57.8318
30
0
42
0
10
335.717
20
74.0192
30
0
0
LWPOLYLINE
5
214
100
AcDbEntity
67
0
8
rudder
6
Hidden
62
256
370
-1
100
AcDbPolyline
90
3
70
0
10
334.917
20
74.0192
30
0
42
0
10
334.917
20
57.7108
30
0
42
0
10
316.447
20
68.3368
30
0
0
LWPOLYLINE
5
215
100
AcDbEntity
67
0
8
rudder
6
ByLayer
62
256
370
-1
100
AcDbPolyline
90
16
70
1
10
181.512
20
28.3799
30
0
42
-0.1
10
199.982
20
22.6975
30
0
42
-0.1
10
200.782
20
22.6975
30
0
42
-0.1
10
215.195
20
27.7923
30
0
42
-0.1
10
215.743
20
28.3694
30
0
42
-0.1
10
242.172
20
45.2975
30
0
42
-0.1
10
242.172
20
46.0974
30
0
42
-0.1
10
215.743
20
63.0255
30
0
42
-0.1
10
215.135
20
63.5458
30
0
42
-0.1
10
200.782
20
68.6975
30
0
42
-0.1
10
199.982
20
68.6975
30
0
42
-0.1
10
181.512
20
63.015
30
0
42
-0.1
10
181.113
20
62.3216
30
0
42
0
10
200.382
20
51.2975
30
0
42
0
10
200.382
20
40.0974
30
0
42
0
10
181.113
20
29.0733
30
0
42
-0.1
0
LWPOLYLINE
5
216
100
AcDbEntity
67
0
8
rudder
6
Hidden
62
256
370
-1
100
AcDbPolyline
90
3
70
0
10
181.512
20
28.3799
30
0
42
0
10
199.982
20
39.0059
30
0
42
0
10
199.982
20
22.6975
30
0
0
LWPOLYLINE
5
217
100
AcDbEntity
67
0
8
rudder
6
Hidden
62
256
370
-1
100
AcDbPolyline
90
3
70
0
10
200.782
20
22.6975
30
0
42
0
10
200.782
20
38.8849
30
0
42
0
10
215.195
20
27.7923
30
0
0
LWPOLYLINE
5
218
100
AcDbEntity
67
0
8
rudder
6
Hidden
62
256
370
-1
100
AcDbPolyline
90
3
70
0
10
200.782
20
39.8943
30
0
42
0
10
212.629
20
30.7768
30
0
42
0
10
200.382
20
45.0824
30
0
0
LWPOLYLINE
5
219
100
AcDbEntity
67
0
8
rudder
6
Hidden
62
256
370
-1
100
AcDbPolyline
90
3
70
0
10
215.743
20
28.3694
30
0
42
0
10
201.251
20
45.2975
30
0
42
0
10
242.172
20
45.2974
30
0
0
LWPOLYLINE
5
21A
100
AcDbEntity
67
0
8
rudder
6
Hidden
62
256
370
-1
100
AcDbPolyline
90
3
70
0
10
242.172
20
46.0975
30
0
42
0
10
201.251
20
46.0974
30
0
42
0
10
215.743
20
63.0255
30
0
0
LWPOLYLINE
5
21B
100
AcDbEntity
67
0
8
rudder
6
Hidden
62
256
370
-1
100
AcDbPolyline
90
3
70
0
10
200.382
20
46.3125
30
0
42
0
10
212.629
20
60.6181
30
0
42
0
10
200.382
20
51.2975
30
0
0
LWPOLYLINE
5
21C
100
AcDbEntity
67
0
8
rudder
6
Hidden
62
256
370
-1
100
AcDbPolyline
90
3
70
0
10
215.135
20
63.5458
30
0
42
0
10
200.782
20
52.51
30
0
42
0
10
200.782
20
68.6975
30
0
0
LWPOLYLINE
5
21D
100
AcDbEntity
67
0
8
rudder
6
Hidden
62
256
370
-1
100
AcDbPolyline
90
3
70
0
10
199.982
20
68.6975
30
0
42
0
10
199.982
20
52.389
30
0
42
0
10
181.512
20
63.015
30
0
0
LINE
5
21E
100
AcDbEntity
67
0
8
aux
6
ByLayer
62
256
370
-1
100
AcDbLine
10
247.928
20
-8.63534
30
0
11
78.4341
21
-8.63534
31
0
0
LINE
5
220
100
AcDbEntity
67
0
8
aux
6
ByLayer
62
256
370
-1
100
AcDbLine
10
131.37
20
-15.2127
30
0
11
106.065
21
-15.2127
31
0
0
LINE
5
221
100
AcDbEntity
67
0
8
aux
6
ByLayer
62
256
370
-1
100
AcDbLine
10
104.192
20
-3.1655
30
0
11
138.192
21
-3.1655
31
0
0
LINE
5
222
100
AcDbEntity
67
0
8
aux
6
ByLayer
62
256
370
-1
100
AcDbLine
10
121.192
20
-63.2127
30
0
11
121.192
21
2.96427
31
0
0
LINE
5
223
100
AcDbEntity
67
0
8
aux
6
ByLayer
62
256
370
-1
100
AcDbLine
10
102.692
20
-56.5059
30
0
11
139.692
21
-56.5059
31
0
0
LINE
5
226
100
AcDbEntity
67
0
8
aux
6
ByLayer
62
256
370
-1
100
AcDbLine
10
104.192
20
-10.6578
30
0
11
138.192
21
-10.6578
31
0
0
LINE
5
227
100
AcDbEntity
67
0
8
aux
6
ByLayer
62
256
370
-1
100
AcDbLine
10
102.692
20
-53.2127
30
0
11
139.692
21
-53.2127
31
0
0
LINE
5
228
100
AcDbEntity
67
0
8
aux
6
ByLayer
62
256
370
-1
100
AcDbLine
10
102.692
20
-53.2127
30
0
11
104.192
21
-10.6578
31
0
0
LINE
5
229
100
AcDbEntity
67
0
8
aux
6
ByLayer
62
256
370
-1
100
AcDbLine
10
138.192
20
-10.6578
30
0
11
139.692
21
-53.2127
31
0
0
CIRCLE
5
22D
100
AcDbEntity
67
0
8
aux
6
Continuous
62
256
370
-1
100
AcDbCircle
10
121.192
20
-53.2127
30
0
40
0.5
0
IMAGE
5
231
100
AcDbEntity
67
0
8
0
6
ByLayer
62
256
370
-1
100
AcDbRasterImage
90
0
10
10.7984
20
142.548
30
0
11
0.195002
21
0
31
0
12
0
22
0.195002
32
0
13
1041
23
477
340
230
70
3
0
LINE
5
232
100
AcDbEntity
67
0
8
aux
6
ByLayer
62
256
370
-1
100
AcDbLine
10
40.3214
20
179.458
30
0
11
40.3214
21
199.458
31
0
0
LINE
5
233
100
AcDbEntity
67
0
8
aux
6
ByLayer
62
256
370
-1
100
AcDbLine
10
17.9462
20
150.083
30
0
11
17.9462
21
228.833
31
0
0
LINE
5
234
100
AcDbEntity
67
0
8
aux
6
ByLayer
62
256
370
-1
100
AcDbLine
10
21.7402
20
169.708
30
0
11
21.7402
21
209.208
31
0
0
LINE
5
235
100
AcDbEntity
67
0
8
aux
6
ByLayer
62
256
370
-1
100
AcDbLine
10
25.242
20
173.708
30
0
11
25.242
21
205.208
31
0
0
LINE
5
236
100
AcDbEntity
67
0
8
aux
6
ByLayer
62
256
370
-1
100
AcDbLine
10
34.1746
20
226.833
30
0
11
34.1746
21
230.833
31
0
0
IMAGE
5
237
100
AcDbEntity
67
0
8
0
6
ByLayer
62
256
370
-1
100
AcDbRasterImage
90
0
10
74.2826
20
-116.375
30
0
11
-3.58214e-17
21
-0.195002
31
0
12
0.195002
22
-3.58214e-17
32
0
13
1041
23
477
340
230
70
3
0
LINE
5
238
100
AcDbEntity
67
0
8
aux
6
ByLayer
62
256
370
-1
100
AcDbLine
10
111.192
20
-145.898
30
0
11
131.192
21
-145.898
31
0
0
LINE
5
239
100
AcDbEntity
67
0
8
aux
6
ByLayer
62
256
370
-1
100
AcDbLine
10
81.817
20
-123.523
30
0
11
160.567
21
-123.523
31
0
0
LINE
5
23A
100
AcDbEntity
67
0
8
aux
6
ByLayer
62
256
370
-1
100
AcDbLine
10
101.442
20
-127.317
30
0
11
140.942
21
-127.317
31
0
0
LINE
5
23B
100
AcDbEntity
67
0
8
aux
6
ByLayer
62
256
370
-1
100
AcDbLine
10
105.442
20
-130.819
30
0
11
136.942
21
-130.819
31
0
0
LINE
5
23C
100
AcDbEntity
67
0
8
aux
6
ByLayer
62
256
370
-1
100
AcDbLine
10
158.567
20
-139.751
30
0
11
162.567
21
-139.751
31
0
0
LINE
5
23D
100
AcDbEntity
67
0
8
aux
6
ByLayer
62
256
370
-1
100
AcDbLine
10
160.567
20
-123.523
30
0
11
160.567
21
0.0841001
31
0
0
LINE
5
23E
100
AcDbEntity
67
0
8
aux
6
ByLayer
62
256
370
-1
100
AcDbLine
10
81.817
20
-123.523
30
0
11
81.817
21
-0.881425
31
0
0
LINE
5
23F
100
AcDbEntity
67
0
8
aux
6
ByLayer
62
256
370
-1
100
AcDbLine
10
111.192
20
-145.898
30
0
11
111.192
21
-50.5857
31
0
0
LINE
5
240
100
AcDbEntity
67
0
8
aux
6
ByLayer
62
256
370
-1
100
AcDbLine
10
131.192
20
-145.898
30
0
11
131.192
21
-48.6224
31
0
0
LINE
5
241
100
AcDbEntity
67
0
8
aux
6
ByLayer
62
256
370
-1
100
AcDbLine
10
101.442
20
-127.317
30
0
11
101.442
21
-34.8923
31
0
0
LINE
5
242
100
AcDbEntity
67
0
8
aux
6
ByLayer
62
256
370
-1
100
AcDbLine
10
140.942
20
-127.317
30
0
11
140.942
21
-28.7343
31
0
0
LINE
5
243
100
AcDbEntity
67
0
8
aux
6
ByLayer
62
256
370
-1
100
AcDbLine
10
105.442
20
-130.819
30
0
11
105.442
21
-38.9368
31
0
0
LINE
5
244
100
AcDbEntity
67
0
8
aux
6
ByLayer
62
256
370
-1
100
AcDbLine
10
136.942
20
-130.819
30
0
11
136.942
21
-30.1242
31
0
0
CIRCLE
5
256
100
AcDbEntity
67
0
8
aux
6
Continuous
62
256
370
-1
100
AcDbCircle
10
111.192
20
-53.2127
30
0
40
0.5
0
LINE
5
257
100
AcDbEntity
67
0
8
aux
6
Continuous
62
256
370
-1
100
AcDbLine
10
111.319
20
-52.7292
30
0
11
111.065
21
-53.6962
31
0
0
LINE
5
258
100
AcDbEntity
67
0
8
aux
6
Continuous
62
256
370
-1
100
AcDbLine
10
110.708
20
-53.0855
30
0
11
111.676
21
-53.3399
31
0
0
CIRCLE
5
259
100
AcDbEntity
67
0
8
aux
6
Continuous
62
256
370
-1
100
AcDbCircle
10
102.692
20
-53.2127
30
0
40
0.5
0
LINE
5
25A
100
AcDbEntity
67
0
8
aux
6
Continuous
62
256
370
-1
100
AcDbLine
10
102.71
20
-52.713
30
0
11
102.674
21
-53.7124
31
0
0
LINE
5
25B
100
AcDbEntity
67
0
8
aux
6
Continuous
62
256
370
-1
100
AcDbLine
10
102.192
20
-53.1951
30
0
11
103.192
21
-53.2303
31
0
0
CIRCLE
5
25C
100
AcDbEntity
67
0
8
aux
6
Continuous
62
256
370
-1
100
AcDbCircle
10
131.192
20
-53.2127
30
0
40
0.5
0
LINE
5
25D
100
AcDbEntity
67
0
8
aux
6
Continuous
62
256
370
-1
100
AcDbLine
10
131.065
20
-52.7292
30
0
11
131.319
21
-53.6962
31
0
0
LINE
5
25E
100
AcDbEntity
67
0
8
aux
6
Continuous
62
256
370
-1
100
AcDbLine
10
130.708
20
-53.3399
30
0
11
131.676
21
-53.0855
31
0
0
CIRCLE
5
25F
100
AcDbEntity
67
0
8
aux
6
Continuous
62
256
370
-1
100
AcDbCircle
10
139.692
20
-53.2127
30
0
40
0.5
0
LINE
5
260
100
AcDbEntity
67
0
8
aux
6
Continuous
62
256
370
-1
100
AcDbLine
10
139.674
20
-52.713
30
0
11
139.71
21
-53.7124
31
0
0
LINE
5
261
100
AcDbEntity
67
0
8
aux
6
Continuous
62
256
370
-1
100
AcDbLine
10
139.192
20
-53.2303
30
0
11
140.192
21
-53.1951
31
0
0
CIRCLE
5
262
100
AcDbEntity
67
0
8
aux
6
Continuous
62
256
370
-1
100
AcDbCircle
10
138.192
20
-10.6578
30
0
40
0.5
0
LINE
5
263
100
AcDbEntity
67
0
8
aux
6
Continuous
62
256
370
-1
100
AcDbLine
10
138.328
20
-10.1766
30
0
11
138.056
21
-11.139
31
0
0
LINE
5
264
100
AcDbEntity
67
0
8
aux
6
Continuous
62
256
370
-1
100
AcDbLine
10
137.711
20
-10.5221
30
0
11
138.673
21
-10.7935
31
0
0
CIRCLE
5
268
100
AcDbEntity
67
0
8
aux
6
Continuous
62
256
370
-1
100
AcDbCircle
10
121.192
20
-15.2127
30
0
40
0.5
0
LINE
5
269
100
AcDbEntity
67
0
8
aux
6
Continuous
62
256
370
-1
100
AcDbLine
10
121.319
20
-14.7292
30
0
11
121.065
21
-15.6962
31
0
0
LINE
5
26A
100
AcDbEntity
67
0
8
aux
6
Continuous
62
256
370
-1
100
AcDbLine
10
120.708
20
-15.0855
30
0
11
121.676
21
-15.3399
31
0
0
CIRCLE
5
26B
100
AcDbEntity
67
0
8
aux
6
Continuous
62
256
370
-1
100
AcDbCircle
10
104.192
20
-10.6578
30
0
40
0.5
0
LINE
5
26C
100
AcDbEntity
67
0
8
aux
6
Continuous
62
256
370
-1
100
AcDbLine
10
104.056
20
-10.1766
30
0
11
104.328
21
-11.139
31
0
0
LINE
5
26D
100
AcDbEntity
67
0
8
aux
6
Continuous
62
256
370
-1
100
AcDbLine
10
103.711
20
-10.7935
30
0
11
104.673
21
-10.5221
31
0
0
CIRCLE
5
26E
100
AcDbEntity
67
0
8
aux
6
Continuous
62
256
370
-1
100
AcDbCircle
10
81.817
20
-8.63534
30
0
40
0.5
0
LINE
5
26F
100
AcDbEntity
67
0
8
aux
6
Continuous
62
256
370
-1
100
AcDbLine
10
81.486
20
-8.2606
30
0
11
82.148
21
-9.01008
31
0
0
LINE
5
270
100
AcDbEntity
67
0
8
aux
6
Continuous
62
256
370
-1
100
AcDbLine
10
81.4423
20
-8.96635
30
0
11
82.1917
21
-8.30433
31
0
0
CIRCLE
5
271
100
AcDbEntity
67
0
8
aux
6
Continuous
62
256
370
-1
100
AcDbCircle
10
116.192
20
-53.2127
30
0
40
0.5
0
LINE
5
272
100
AcDbEntity
67
0
8
aux
6
Continuous
62
256
370
-1
100
AcDbLine
10
116.056
20
-52.7315
30
0
11
116.328
21
-53.6939
31
0
0
LINE
5
273
100
AcDbEntity
67
0
8
aux
6
Continuous
62
256
370
-1
100
AcDbLine
10
115.711
20
-53.3484
30
0
11
116.673
21
-53.077
31
0
0
CIRCLE
5
274
100
AcDbEntity
67
0
8
aux
6
Continuous
62
256
370
-1
100
AcDbCircle
10
126.192
20
-53.2127
30
0
40
0.5
0
LINE
5
275
100
AcDbEntity
67
0
8
aux
6
Continuous
62
256
370
-1
100
AcDbLine
10
126.328
20
-52.7315
30
0
11
126.056
21
-53.6939
31
0
0
LINE
5
276
100
AcDbEntity
67
0
8
aux
6
Continuous
62
256
370
-1
100
AcDbLine
10
125.711
20
-53.077
30
0
11
126.673
21
-53.3484
31
0
0
LINE
5
277
100
AcDbEntity
67
0
8
aux
6
Continuous
62
256
370
-1
100
AcDbLine
10
103.711
20
-10.7935
30
0
11
115.711
21
-53.3484
31
0
0
LINE
5
278
100
AcDbEntity
67
0
8
aux
6
Continuous
62
256
370
-1
100
AcDbLine
10
116.673
20
-53.077
30
0
11
104.673
21
-10.5221
31
0
0
LINE
5
279
100
AcDbEntity
67
0
8
aux
6
Continuous
62
256
370
-1
100
AcDbLine
10
125.711
20
-53.077
30
0
11
137.711
21
-10.5221
31
0
0
LINE
5
27A
100
AcDbEntity
67
0
8
aux
6
Continuous
62
256
370
-1
100
AcDbLine
10
138.673
20
-10.7935
30
0
11
126.673
21
-53.3484
31
0
0
LINE
5
27B
100
AcDbEntity
67
0
8
aux
6
Continuous
62
256
370
-1
100
AcDbLine
10
121.065
20
-14.7292
30
0
11
121.319
21
-15.6962
31
0
0
LINE
5
27C
100
AcDbEntity
67
0
8
aux
6
Continuous
62
256
370
-1
100
AcDbLine
10
120.708
20
-15.3399
30
0
11
121.676
21
-15.0855
31
0
0
CIRCLE
5
27D
100
AcDbEntity
67
0
8
aux
6
Continuous
62
256
370
-1
100
AcDbCircle
10
160.567
20
-8.6352
30
0
40
0.5
0
LINE
5
27E
100
AcDbEntity
67
0
8
aux
6
Continuous
62
256
370
-1
100
AcDbLine
10
160.897
20
-8.26013
30
0
11
160.236
21
-9.01029
31
0
0
LINE
5
27F
100
AcDbEntity
67
0
8
aux
6
Continuous
62
256
370
-1
100
AcDbLine
10
160.192
20
-8.30475
30
0
11
160.942
21
-8.96593
31
0
0
LINE
5
280
100
AcDbEntity
67
0
8
aux
6
Continuous
62
256
370
-1
100
AcDbLine
10
120.861
20
-52.838
30
0
11
121.523
21
-53.5874
31
0
0
LINE
5
281
100
AcDbEntity
67
0
8
aux
6
Continuous
62
256
370
-1
100
AcDbLine
10
120.817
20
-53.5437
30
0
11
121.567
21
-52.8817
31
0
0
LINE
5
282
100
AcDbEntity
67
0
8
aux
6
Continuous
62
256
370
-1
100
AcDbLine
10
121.567
20
-52.8817
30
0
11
82.1917
21
-8.30433
31
0
0
LINE
5
283
100
AcDbEntity
67
0
8
aux
6
Continuous
62
256
370
-1
100
AcDbLine
10
81.4423
20
-8.96635
30
0
11
120.817
21
-53.5437
31
0
0
LINE
5
284
100
AcDbEntity
67
0
8
aux
6
Continuous
62
256
370
-1
100
AcDbLine
10
120.861
20
-52.838
30
0
11
160.192
21
-8.30475
31
0
0
LINE
5
285
100
AcDbEntity
67
0
8
aux
6
Continuous
62
256
370
-1
100
AcDbLine
10
160.942
20
-8.96593
30
0
11
121.523
21
-53.5874
31
0
0
LINE
5
286
100
AcDbEntity
67
0
8
aux
6
Continuous
62
256
370
-1
100
AcDbLine
10
121.676
20
-15.0855
30
0
11
131.676
21
-53.0855
31
0
0
LINE
5
287
100
AcDbEntity
67
0
8
aux
6
Continuous
62
256
370
-1
100
AcDbLine
10
130.708
20
-53.3399
30
0
11
120.708
21
-15.3399
31
0
0
LINE
5
288
100
AcDbEntity
67
0
8
aux
6
Continuous
62
256
370
-1
100
AcDbLine
10
121.676
20
-15.3399
30
0
11
111.676
21
-53.3399
31
0
0
LINE
5
289
100
AcDbEntity
67
0
8
aux
6
Continuous
62
256
370
-1
100
AcDbLine
10
110.708
20
-53.0855
30
0
11
120.708
21
-15.0855
31
0
0
LINE
5
28A
100
AcDbEntity
67
0
8
aux
6
Continuous
62
256
370
-1
100
AcDbLine
10
140.192
20
-53.1951
30
0
11
138.692
21
-10.6402
31
0
0
LINE
5
28C
100
AcDbEntity
67
0
8
aux
6
Continuous
62
256
370
-1
100
AcDbLine
10
139.192
20
-53.2303
30
0
11
137.692
21
-10.6754
31
0
0
LINE
5
28D
100
AcDbEntity
67
0
8
aux
6
Continuous
62
256
370
-1
100
AcDbLine
10
102.192
20
-53.1951
30
0
11
103.692
21
-10.6402
31
0
0
LINE
5
28E
100
AcDbEntity
67
0
8
aux
6
Continuous
62
256
370
-1
100
AcDbLine
10
103.192
20
-53.2303
30
0
11
104.692
21
-10.6754
31
0
0
LINE
5
28F
100
AcDbEntity
67
0
8
aux
6
Continuous
62
256
370
-1
100
AcDbLine
10
121.192
20
-52.7127
30
0
11
121.192
21
-53.7127
31
0
0
LINE
5
290
100
AcDbEntity
67
0
8
aux
6
Continuous
62
256
370
-1
100
AcDbLine
10
122.392
20
-52.7127
30
0
11
122.392
21
-53.7127
31
0
0
LINE
5
291
100
AcDbEntity
67
0
8
aux
6
Continuous
62
256
370
-1
100
AcDbLine
10
121.192
20
-53.2127
30
0
11
122.392
21
-53.2127
31
0
0
LINE
5
292
100
AcDbEntity
67
0
8
aux
6
Continuous
62
256
370
-1
100
AcDbLine
10
126.792
20
-52.7127
30
0
11
126.792
21
-53.7127
31
0
0
LINE
5
293
100
AcDbEntity
67
0
8
aux
6
Continuous
62
256
370
-1
100
AcDbLine
10
125.592
20
-52.7127
30
0
11
125.592
21
-53.7127
31
0
0
LINE
5
294
100
AcDbEntity
67
0
8
aux
6
Continuous
62
256
370
-1
100
AcDbLine
10
125.592
20
-53.2127
30
0
11
126.792
21
-53.2127
31
0
0
LINE
5
295
100
AcDbEntity
67
0
8
aux
6
Continuous
62
256
370
-1
100
AcDbLine
10
131.792
20
-52.7127
30
0
11
131.792
21
-53.7127
31
0
0
LINE
5
296
100
AcDbEntity
67
0
8
aux
6
Continuous
62
256
370
-1
100
AcDbLine
10
130.592
20
-52.7127
30
0
11
130.592
21
-53.7127
31
0
0
LINE
5
297
100
AcDbEntity
67
0
8
aux
6
Continuous
62
256
370
-1
100
AcDbLine
10
130.592
20
-53.2127
30
0
11
131.792
21
-53.2127
31
0
0
LINE
5
298
100
AcDbEntity
67
0
8
aux
6
Continuous
62
256
370
-1
100
AcDbLine
10
140.192
20
-52.6951
30
0
11
140.192
21
-53.6951
31
0
0
LINE
5
299
100
AcDbEntity
67
0
8
aux
6
Continuous
62
256
370
-1
100
AcDbLine
10
138.992
20
-52.6951
30
0
11
138.992
21
-53.6951
31
0
0
LINE
5
29A
100
AcDbEntity
67
0
8
aux
6
Continuous
62
256
370
-1
100
AcDbLine
10
138.992
20
-53.1951
30
0
11
140.192
21
-53.1951
31
0
0
LINE
5
29B
100
AcDbEntity
67
0
8
aux
6
Continuous
62
256
370
-1
100
AcDbLine
10
116.792
20
-52.7127
30
0
11
116.792
21
-53.7127
31
0
0
LINE
5
29C
100
AcDbEntity
67
0
8
aux
6
Continuous
62
256
370
-1
100
AcDbLine
10
115.592
20
-52.7127
30
0
11
115.592
21
-53.7127
31
0
0
LINE
5
29D
100
AcDbEntity
67
0
8
aux
6
Continuous
62
256
370
-1
100
AcDbLine
10
115.592
20
-53.2127
30
0
11
116.792
21
-53.2127
31
0
0
LINE
5
29E
100
AcDbEntity
67
0
8
aux
6
Continuous
62
256
370
-1
100
AcDbLine
10
111.792
20
-52.7127
30
0
11
111.792
21
-53.7127
31
0
0
LINE
5
29F
100
AcDbEntity
67
0
8
aux
6
Continuous
62
256
370
-1
100
AcDbLine
10
110.592
20
-52.7127
30
0
11
110.592
21
-53.7127
31
0
0
LINE
5
2A0
100
AcDbEntity
67
0
8
aux
6
Continuous
62
256
370
-1
100
AcDbLine
10
110.592
20
-53.2127
30
0
11
111.792
21
-53.2127
31
0
0
LINE
5
2A1
100
AcDbEntity
67
0
8
aux
6
Continuous
62
256
370
-1
100
AcDbLine
10
103.392
20
-52.7127
30
0
11
103.392
21
-53.7127
31
0
0
LINE
5
2A2
100
AcDbEntity
67
0
8
aux
6
Continuous
62
256
370
-1
100
AcDbLine
10
102.192
20
-52.7127
30
0
11
102.192
21
-53.7127
31
0
0
LINE
5
2A3
100
AcDbEntity
67
0
8
aux
6
Continuous
62
256
370
-1
100
AcDbLine
10
102.192
20
-53.2127
30
0
11
103.392
21
-53.2127
31
0
0
LINE
5
2A4
100
AcDbEntity
67
0
8
aux
6
Continuous
62
256
370
-1
100
AcDbLine
10
121.192
20
-52.7127
30
0
11
121.192
21
-53.7127
31
0
0
LINE
5
2A5
100
AcDbEntity
67
0
8
aux
6
Continuous
62
256
370
-1
100
AcDbLine
10
119.992
20
-52.7127
30
0
11
119.992
21
-53.7127
31
0
0
LINE
5
2A6
100
AcDbEntity
67
0
8
aux
6
Continuous
62
256
370
-1
100
AcDbLine
10
119.992
20
-53.2127
30
0
11
121.192
21
-53.2127
31
0
0
SPLINE
5
2A7
100
AcDbEntity
67
0
8
aux
6
Continuous
62
256
370
-1
100
AcDbSpline
70
0
71
3
72
7
73
3
74
3
40
0
40
0
40
0
40
0
40
0
40
0
40
0
10
0
20
-5.80448
30
0
10
0
20
3.66727
30
0
10
1
20
-0.073505
30
0
11
121.192
21
-14.7127
31
0
11
138.192
21
-10.1578
31
0
11
160.567
21
-8.1352
31
0
0
SPLINE
5
2A8
100
AcDbEntity
67
0
8
aux
6
Continuous
62
256
370
-1
100
AcDbSpline
70
0
71
3
72
7
73
3
74
3
40
0
40
0
40
0
40
0
40
0
40
0
40
0
10
0
20
-5.80448
30
0
10
0
20
3.66727
30
0
10
1
20
-0.073505
30
0
11
121.192
21
-14.7127
31
0
11
138.192
21
-10.1578
31
0
11
160.567
21
-8.1352
31
0
0
LWPOLYLINE
5
2AD
100
AcDbEntity
67
0
8
aux
6
Continuous
62
256
370
-1
100
AcDbPolyline
90
23
70
0
10
121.192
20
-14.7127
30
0
42
-0.095
10
164.875
20
-8.22694
30
0
42
0
10
164.875
20
-7.24035
30
0
42
0.1
10
174.801
20
-6.3274
30
0
42
0.1
10
183.371
20
-6.33516
30
0
42
0.1
10
192.264
20
-6.41179
30
0
42
0.1
10
201.611
20
-6.40417
30
0
42
0.1
10
211.246
20
-6.38309
30
0
42
0.1
10
220.471
20
-6.61792
30
0
42
0.1
10
229.343
20
-6.60141
30
0
42
0
10
229.343
20
-21.376
30
0
42
0.1
10
220.383
20
-21.376
30
0
42
0.1
10
211.194
20
-21.4233
30
0
42
0.1
10
201.876
20
-21.1321
30
0
42
0.1
10
192.466
20
-21.115
30
0
42
0.1
10
183.594
20
-21.0908
30
0
42
0.1
10
174.806
20
-21.4851
30
0
42
0.1
10
165.257
20
-21.6955
30
0
42
0.1
10
156.089
20
-21.8558
30
0
42
0.1
10
148.176
20
-22.7503
30
0
42
0.1
10
138.543
20
-23.7824
30
0
42
0.1
10
129.812
20
-25.8015
30
0
42
0.1
10
121.192
20
-28.5628
30
0
0
ENDSEC
0
SECTION
2
OBJECTS
0
DICTIONARY
5
22
100
AcDbDictionary
281
1
3
ACAD_COLOR
350
23
3
ACAD_GROUP
350
26
3
ACAD_LAYOUT
350
27
3
ACAD_MATERIAL
350
28
3
ACAD_MLINESTYLE
350
29
3
ACAD_PLOTSETTINGS
350
2A
3
ACAD_PLOTSTYLENAME
350
2B
3
ACAD_TABLESTYLE
350
2C
3
AcadDim
350
2D
0
DICTIONARY
5
23
100
AcDbDictionary
0
DICTIONARY
5
26
100
AcDbDictionary
0
DICTIONARY
5
27
100
AcDbDictionary
0
DICTIONARY
5
28
100
AcDbDictionary
0
DICTIONARY
5
29
100
AcDbDictionary
0
DICTIONARY
5
2A
100
AcDbDictionary
0
DICTIONARY
5
2B
100
AcDbDictionary
0
DICTIONARY
5
2C
100
AcDbDictionary
0
DICTIONARY
5
2D
100
AcDbDictionary
0
IMAGEDEF
5
2E
100
AcDbRasterImageDef
90
0
1
corpo-grande.png
0
IMAGEDEF
5
86
100
AcDbRasterImageDef
90
0
1
001i_signature_santos_dumont_400.png
0
IMAGEDEF
5
88
100
AcDbRasterImageDef
90
0
1
001i_portrait_santos_dumont_350.png
0
IMAGEDEF
5
AA
100
AcDbRasterImageDef
90
0
1
leme-det7.png
0
IMAGEDEF
5
1C4
100
AcDbRasterImageDef
90
0
1
leme-det1.png
0
IMAGEDEF
5
230
100
AcDbRasterImageDef
90
0
1
leme-det8.png
0
ENDSEC
0
EOF
