999
CadZinho - Minimalist CAD by Zecruel
0
SECTION
2
HEADER
9
$ACADVER
1
AC1021
9
$HANDSEED
5
13F
9
$INSUNITS
70
4
9
$LWDISPLAY
290
1
9
$LTSCALE
40
5
0
ENDSEC
0
SECTION
2
CLASSES
0
ENDSEC
0
SECTION
2
TABLES
0
TABLE
2
VPORT
5
1
100
AcDbSymbolTable
70
1000
0
VPORT
5
25
100
AcDbSymbolTableRecord
100
AcDbViewportTableRecord
2
*ACTIVE
70
0
10
0
20
0
11
1
21
1
12
20
22
320
13
0
23
0
14
100
24
100
15
100
25
100
16
0
26
0
36
1
17
0
27
0
37
0
40
25
41
1.8
42
50
43
0
44
0
50
0
51
0
0
ENDTAB
0
TABLE
2
LTYPE
5
4
100
AcDbSymbolTable
70
1000
0
LTYPE
5
5
100
AcDbSymbolTableRecord
100
AcDbLinetypeTableRecord
2
ByBlock
70
0
3

72
65
73
0
40
0
0
LTYPE
5
6
100
AcDbSymbolTableRecord
100
AcDbLinetypeTableRecord
2
ByLayer
70
0
3

72
65
73
0
40
0
0
LTYPE
5
7
100
AcDbSymbolTableRecord
100
AcDbLinetypeTableRecord
2
Continuous
70
0
3
___________________________________
72
65
73
0
40
0
0
LTYPE
5
8
100
AcDbSymbolTableRecord
100
AcDbLinetypeTableRecord
2
Border
70
0
3
____ . ____ ____ . ____ ____ . ____
72
65
73
6
40
1.75
49
0.5
74
0
49
-0.25
74
0
49
0.5
74
0
49
-0.25
74
0
49
0
74
0
49
-0.25
74
0
0
LTYPE
5
9
100
AcDbSymbolTableRecord
100
AcDbLinetypeTableRecord
2
Center
70
0
3
____ _ ____ _ ____ _ ____ _ ____ _
72
65
73
4
40
2
49
1.25
74
0
49
-0.25
74
0
49
0.25
74
0
49
-0.25
74
0
0
LTYPE
5
A
100
AcDbSymbolTableRecord
100
AcDbLinetypeTableRecord
2
Dashdot
70
0
3
____ . ____ . ____ . ____ . ____ .
72
65
73
4
40
1
49
0.5
74
0
49
-0.25
74
0
49
0
74
0
49
-0.25
74
0
0
LTYPE
5
B
100
AcDbSymbolTableRecord
100
AcDbLinetypeTableRecord
2
Dashed
70
0
3
____ ____ ____ ____ ____ ____ ____
72
65
73
2
40
0.75
49
0.5
74
0
49
-0.25
74
0
0
LTYPE
5
C
100
AcDbSymbolTableRecord
100
AcDbLinetypeTableRecord
2
Divide
70
0
3
____ . . ____ . . ____ . . ____ . .
72
65
73
6
40
1.25
49
0.5
74
0
49
-0.25
74
0
49
0
74
0
49
-0.25
74
0
49
0
74
0
49
-0.25
74
0
0
LTYPE
5
D
100
AcDbSymbolTableRecord
100
AcDbLinetypeTableRecord
2
Dot
70
0
3
. . . . . . . . . . . . . . . . . .
72
65
73
2
40
0.25
49
0
74
0
49
-0.25
74
0
0
LTYPE
5
E
100
AcDbSymbolTableRecord
100
AcDbLinetypeTableRecord
2
Hidden
70
0
3
__ __ __ __ __ __ __ __ __ __ __ __
72
65
73
2
40
0.375
49
0.25
74
0
49
-0.125
74
0
0
LTYPE
5
F
100
AcDbSymbolTableRecord
100
AcDbLinetypeTableRecord
2
Phantom
70
0
3
_____ _ _ _____ _ _ _____ _ _ _____
72
65
73
6
40
2.5
49
1.25
74
0
49
-0.25
74
0
49
0.25
74
0
49
-0.25
74
0
49
0.25
74
0
49
-0.25
74
0
0
ENDTAB
0
TABLE
2
LAYER
5
10
100
AcDbSymbolTable
70
1000
0
LAYER
5
11
100
AcDbSymbolTableRecord
100
AcDbLayerTableRecord
2
0
70
0
62
7
6
Continuous
370
0
390
2B
0
LAYER
5
39
100
AcDbSymbolTableRecord
100
AcDbLayerTableRecord
2
aux
70
0
62
-7
6
Dot
370
0
390
2B
0
LAYER
5
3A
100
AcDbSymbolTableRecord
100
AcDbLayerTableRecord
2
wheel
70
0
62
250
6
Continuous
370
0
390
2B
0
LAYER
5
3B
100
AcDbSymbolTableRecord
100
AcDbLayerTableRecord
2
frame
70
0
62
1
6
Continuous
370
0
390
2B
0
LAYER
5
3C
100
AcDbSymbolTableRecord
100
AcDbLayerTableRecord
2
wing
70
0
62
3
6
Continuous
370
0
390
2B
0
LAYER
5
3D
100
AcDbSymbolTableRecord
100
AcDbLayerTableRecord
2
propeler
70
0
62
4
6
Continuous
370
0
390
2B
0
LAYER
5
3E
100
AcDbSymbolTableRecord
100
AcDbLayerTableRecord
2
tail
70
0
62
5
6
Continuous
370
0
390
2B
0
LAYER
5
66
100
AcDbSymbolTableRecord
100
AcDbLayerTableRecord
2
ground
70
0
62
28
6
Continuous
370
0
390
2B
0
LAYER
5
92
100
AcDbSymbolTableRecord
100
AcDbLayerTableRecord
2
signature
70
0
62
7
6
Continuous
370
0
390
2B
0
ENDTAB
0
TABLE
2
STYLE
5
12
100
AcDbSymbolTable
70
1000
0
STYLE
5
13
100
AcDbSymbolTableRecord
100
AcDbTextStyleTableRecord
2
Standard
70
0
40
0
41
1
50
0
71
0
42
1
3
TXT.SHX
4

0
STYLE
5
24
100
AcDbSymbolTableRecord
100
AcDbTextStyleTableRecord
2

70
1
40
0
41
1
50
0
71
0
42
1
3
LTYPESHP.SHX
4

0
ENDTAB
0
TABLE
2
VIEW
5
14
100
AcDbSymbolTable
70
0
0
ENDTAB
0
TABLE
2
UCS
5
15
100
AcDbSymbolTable
70
0
0
ENDTAB
0
TABLE
2
APPID
5
16
100
AcDbSymbolTable
70
10
0
APPID
5
17
100
AcDbSymbolTableRecord
100
AcDbRegAppTableRecord
2
ACAD
70
0
0
APPID
5
18
100
AcDbSymbolTableRecord
100
AcDbRegAppTableRecord
2
CADZINHO
70
0
0
ENDTAB
0
TABLE
2
DIMSTYLE
5
19
100
AcDbSymbolTable
70
1
100
AcDbDimStyleTable
71
1
0
DIMSTYLE
105
1A
100
AcDbSymbolTableRecord
100
AcDbDimStyleTableRecord
2
Standard
70
0
3
<>
5
OPEN30
40
1
41
1
42
0.5
44
1
140
1
144
1
147
0.5
77
1
271
2
340
13
0
ENDTAB
0
TABLE
2
BLOCK_RECORD
5
1B
100
AcDbSymbolTable
70
9999
0
BLOCK_RECORD
5
1C
100
AcDbSymbolTableRecord
100
AcDbBlockTableRecord
2
*Model_Space
70
0
0
BLOCK_RECORD
5
1D
100
AcDbSymbolTableRecord
100
AcDbBlockTableRecord
2
*Paper_Space
70
0
0
BLOCK_RECORD
5
9E
100
AcDbSymbolTableRecord
100
AcDbBlockTableRecord
2
sd_sig
70
0
0
ENDTAB
0
ENDSEC
0
SECTION
2
BLOCKS
0
BLOCK
5
1E
100
AcDbEntity
8
0
100
AcDbBlockBegin
2
*Model_Space
70
0
10
0
20
0
30
0
3
*Model_Space
1

0
ENDBLK
5
1F
100
AcDbEntity
8
0
100
AcDbBlockEnd
0
BLOCK
5
20
100
AcDbEntity
8
0
100
AcDbBlockBegin
2
*Paper_Space
70
0
10
0
20
0
30
0
3
*Paper_Space
1

0
ENDBLK
5
21
100
AcDbEntity
8
0
100
AcDbBlockEnd
0
BLOCK
5
9F
330
9E
100
AcDbEntity
8
0
100
AcDbBlockBegin
2
sd_sig
70
0
10
0
20
0
30
0
3
sd_sig
1

4
Alberto Santos Dumont signature
0
SPLINE
5
A0
100
AcDbEntity
67
0
8
0
6
ByBlock
62
0
370
-2
100
AcDbSpline
70
0
71
3
72
19
73
15
74
0
40
0
40
0
40
0
40
0
40
1
40
2
40
3
40
4
40
5
40
6
40
7
40
8
40
9
40
10
40
11
40
12
40
12
40
12
40
12
10
8.07421
20
5.52331
30
0
10
6.78003
20
5.5565
30
0
10
6.61411
20
6.12063
30
0
10
6.94595
20
6.75113
30
0
10
8.53879
20
8.04531
30
0
10
8.53879
20
8.04531
30
0
10
6.28226
20
6.25337
30
0
10
5.28674
20
5.85515
30
0
10
4.19166
20
5.82197
30
0
10
4.3244
20
7.04979
30
0
10
5.28674
20
8.31079
30
0
10
7.01232
20
9.10721
30
0
10
8.14058
20
9.00766
30
0
10
8.57518
20
8.53987
30
0
10
8.54497
20
8.11695
30
0
0
SPLINE
5
A1
100
AcDbEntity
67
0
8
0
6
ByBlock
62
0
370
-2
100
AcDbSpline
70
0
71
3
72
9
73
5
74
0
40
0
40
0
40
0
40
0
40
1
40
2
40
2
40
2
40
2
10
10.1032
20
5.54647
30
0
10
9.57897
20
5.39229
30
0
10
9.65606
20
5.00684
30
0
10
10.2111
20
5.05309
30
0
10
10.1957
20
5.42313
30
0
0
SPLINE
5
A2
100
AcDbEntity
67
0
8
0
6
ByBlock
62
0
370
-2
100
AcDbSpline
70
0
71
3
72
16
73
12
74
0
40
0
40
0
40
0
40
0
40
1
40
2
40
3
40
4
40
5
40
6
40
7
40
8
40
9
40
9
40
9
40
9
10
13.6114
20
8.01912
30
0
10
17.0877
20
8.03641
30
0
10
19.3361
20
8.7801
30
0
10
19.7339
20
9.00494
30
0
10
20.1143
20
9.76593
30
0
10
19.8549
20
10.1291
30
0
10
19.2323
20
10.1637
30
0
10
18.4021
20
9.99077
30
0
10
17.3471
20
8.50338
30
0
10
16.3267
20
6.92952
30
0
10
15.6003
20
5.73615
30
0
10
14.1648
20
4.56008
30
0
0
SPLINE
5
A3
100
AcDbEntity
67
0
8
0
6
ByBlock
62
0
370
-2
100
AcDbSpline
70
0
71
3
72
53
73
49
74
0
40
0
40
0
40
0
40
0
40
1
40
2
40
3
40
4
40
5
40
6
40
7
40
8
40
9
40
10
40
11
40
12
40
13
40
14
40
15
40
16
40
17
40
18
40
19
40
20
40
21
40
22
40
23
40
24
40
25
40
26
40
27
40
28
40
29
40
30
40
31
40
32
40
33
40
34
40
35
40
36
40
37
40
38
40
39
40
40
40
41
40
42
40
43
40
44
40
45
40
46
40
46
40
46
40
46
10
19.9703
20
6.58912
30
0
10
19.8888
20
7.02369
30
0
10
19.3184
20
7.02369
30
0
10
18.7888
20
7.06443
30
0
10
17.8517
20
6.33109
30
0
10
17.3629
20
5.82861
30
0
10
17.648
20
5.10885
30
0
10
18.4493
20
5.05453
30
0
10
19.332
20
5.77429
30
0
10
19.9296
20
6.54838
30
0
10
19.9296
20
6.54838
30
0
10
19.074
20
5.4891
30
0
10
19.1555
20
5.02736
30
0
10
19.5086
20
4.95946
30
0
10
20.5271
20
5.46194
30
0
10
21.9938
20
6.43973
30
0
10
22.116
20
6.34467
30
0
10
21.179
20
5.23107
30
0
10
21.179
20
4.97304
30
0
10
22.3876
20
5.4212
30
0
10
23.3654
20
6.1817
30
0
10
23.5148
20
6.10022
30
0
10
22.8901
20
5.36688
30
0
10
22.9716
20
4.97304
30
0
10
23.4062
20
4.82366
30
0
10
26.015
20
5.89032
30
0
10
30.1571
20
10.4588
30
0
10
30.0657
20
10.5501
30
0
10
28.6342
20
9.33188
30
0
10
25.4059
20
5.70759
30
0
10
25.6099
20
5.0006
30
0
10
27.1057
20
5.05467
30
0
10
28.0428
20
5.79355
30
0
10
28.0788
20
5.75751
30
0
10
27.4301
20
4.92852
30
0
10
27.4661
20
4.42392
30
0
10
28.1509
20
4.38788
30
0
10
28.6375
20
4.98258
30
0
10
28.6916
20
5.99179
30
0
10
27.9707
20
5.81157
30
0
10
27.9887
20
5.37906
30
0
10
28.9439
20
5.82959
30
0
10
29.8668
20
6.26676
30
0
10
31.4067
20
6.29367
30
0
10
32.3295
20
5.98609
30
0
10
32.1586
20
5.08041
30
0
10
31.5947
20
4.63612
30
0
10
30.7915
20
4.82409
30
0
10
30.7061
20
5.25129
30
0
0
SPLINE
5
A4
100
AcDbEntity
67
0
8
0
6
ByBlock
62
0
370
-2
100
AcDbSpline
70
0
71
3
72
8
73
4
74
0
40
0
40
0
40
0
40
0
40
1
40
1
40
1
40
1
10
24.0264
20
8.62933
30
0
10
25.8953
20
8.60441
30
0
10
33.396
20
8.67917
30
0
10
33.695
20
8.77885
30
0
0
SPLINE
5
A5
100
AcDbEntity
67
0
8
0
6
ByBlock
62
0
370
-2
100
AcDbSpline
70
0
71
3
72
8
73
4
74
0
40
0
40
0
40
0
40
0
40
1
40
1
40
1
40
1
10
33.8065
20
6.01284
30
0
10
34.8387
20
6.07603
30
0
10
36.3553
20
6.13922
30
0
10
36.5238
20
6.18135
30
0
0
SPLINE
5
A6
100
AcDbEntity
67
0
8
0
6
ByBlock
62
0
370
-2
100
AcDbSpline
70
0
71
3
72
8
73
4
74
0
40
0
40
0
40
0
40
0
40
1
40
1
40
1
40
1
10
33.5748
20
4.89643
30
0
10
34.628
20
5.1492
30
0
10
35.6602
20
5.17027
30
0
10
36.2921
20
5.17027
30
0
0
SPLINE
5
A7
100
AcDbEntity
67
0
8
0
6
ByBlock
62
0
370
-2
100
AcDbSpline
70
0
71
3
72
82
73
78
74
0
40
0
40
0
40
0
40
0
40
1
40
2
40
3
40
4
40
5
40
6
40
7
40
8
40
9
40
10
40
11
40
12
40
13
40
14
40
15
40
16
40
17
40
18
40
19
40
20
40
21
40
22
40
23
40
24
40
25
40
26
40
27
40
28
40
29
40
30
40
31
40
32
40
33
40
34
40
35
40
36
40
37
40
38
40
39
40
40
40
41
40
42
40
43
40
44
40
45
40
46
40
47
40
48
40
49
40
50
40
51
40
52
40
53
40
54
40
55
40
56
40
57
40
58
40
59
40
60
40
61
40
62
40
63
40
64
40
65
40
66
40
67
40
68
40
69
40
70
40
71
40
72
40
73
40
74
40
75
40
75
40
75
40
75
10
40.9648
20
9.67515
30
0
10
37.6384
20
5.25864
30
0
10
37.6384
20
5.25864
30
0
10
37.6384
20
5.25864
30
0
10
38.7565
20
6.29289
30
0
10
39.2317
20
6.12517
30
0
10
39.5112
20
4.75549
30
0
10
40.4057
20
4.36416
30
0
10
41.8033
20
5.09092
30
0
10
42.3065
20
6.48855
30
0
10
42.1667
20
8.0539
30
0
10
41.2722
20
8.80862
30
0
10
39.5112
20
9.36767
30
0
10
37.7223
20
9.36767
30
0
10
35.8774
20
9.08814
30
0
10
35.9613
20
8.41728
30
0
10
37.4707
20
8.24957
30
0
10
40.4337
20
7.99799
30
0
10
43.7321
20
7.63461
30
0
10
44.2352
20
7.27123
30
0
10
43.7041
20
6.29289
30
0
10
42.8935
20
5.3425
30
0
10
43.1451
20
5.03502
30
0
10
44.6266
20
5.3425
30
0
10
46.2199
20
7.10351
30
0
10
46.108
20
7.04761
30
0
10
44.962
20
5.48226
30
0
10
45.2695
20
4.97911
30
0
10
46.3876
20
5.20273
30
0
10
47.5616
20
6.48855
30
0
10
48.2883
20
6.60036
30
0
10
48.6517
20
6.51651
30
0
10
47.897
20
5.09092
30
0
10
47.897
20
5.09092
30
0
10
48.7356
20
5.84564
30
0
10
49.9375
20
6.54446
30
0
10
50.6643
20
6.43265
30
0
10
50.7761
20
5.84564
30
0
10
50.1891
20
5.09092
30
0
10
50.1891
20
5.09092
30
0
10
50.8985
20
6.03388
30
0
10
51.7933
20
6.28714
30
0
10
51.9115
20
6.03388
30
0
10
51.7933
20
5.3923
30
0
10
51.9284
20
5.30789
30
0
10
53.8988
20
6.67787
30
0
10
53.8518
20
6.5524
30
0
10
53.4597
20
5.92507
30
0
10
53.6165
20
5.06248
30
0
10
54.1027
20
4.96838
30
0
10
54.4164
20
5.83097
30
0
10
54.3536
20
6.74061
30
0
10
53.789
20
6.58377
30
0
10
53.8047
20
6.05053
30
0
10
54.5628
20
6.51972
30
0
10
56.5332
20
6.51972
30
0
10
56.6915
20
6.23824
30
0
10
55.5656
20
5.23546
30
0
10
55.8889
20
5.09905
30
0
10
57.3781
20
5.8089
30
0
10
58.0014
20
6.06554
30
0
10
58.0747
20
5.90055
30
0
10
57.5615
20
5.18563
30
0
10
57.9831
20
4.98398
30
0
10
59.8572
20
5.34128
30
0
10
63.0135
20
7.9111
30
0
10
65.1217
20
10.6122
30
0
10
65.1217
20
10.6122
30
0
10
64.7264
20
10.7439
30
0
10
61.4324
20
4.48534
30
0
10
61.4324
20
4.48534
30
0
10
61.4324
20
4.48534
30
0
10
61.4349
20
5.53442
30
0
10
59.3658
20
6.94377
30
0
10
58.6461
20
8.17321
30
0
10
61.9179
20
8.16224
30
0
10
69.6543
20
8.2103
30
0
10
72.105
20
7.82588
30
0
0
ENDBLK
5
A8
330
9F
100
AcDbEntity
8
0
100
AcDbBlockEnd
0
ENDSEC
0
SECTION
2
ENTITIES
0
IMAGE
5
2F
100
AcDbEntity
67
0
8
0
6
ByLayer
62
256
370
-1
100
AcDbRasterImage
90
0
10
0.103776
20
-73.7506
30
0
11
0.155914
21
0
31
0
12
0
22
0.155914
32
0
13
1605
23
1117
340
2E
70
3
0
LINE
5
30
100
AcDbEntity
67
0
8
aux
6
ByLayer
62
256
370
-1
100
AcDbLine
10
13.4928
20
9.34782
30
0
11
23.4928
21
9.34782
31
0
0
LINE
5
31
100
AcDbEntity
67
0
8
aux
6
ByLayer
62
256
370
-1
100
AcDbLine
10
23.4928
20
9.34782
30
0
11
242.493
21
9.34782
31
0
0
LINE
5
32
100
AcDbEntity
67
0
8
aux
6
ByLayer
62
256
370
-1
100
AcDbLine
10
23.4318
20
19.8661
30
0
11
62.6818
21
19.8661
31
0
0
LINE
5
33
100
AcDbEntity
67
0
8
aux
6
ByLayer
62
2
370
-1
100
AcDbLine
10
62.6818
20
19.8661
30
0
11
98.1818
21
19.8661
31
0
0
LINE
5
34
100
AcDbEntity
67
0
8
aux
6
ByLayer
62
256
370
-1
100
AcDbLine
10
98.1818
20
19.8661
30
0
11
133.182
21
19.8661
31
0
0
LINE
5
35
100
AcDbEntity
67
0
8
aux
6
ByLayer
62
2
370
-1
100
AcDbLine
10
133.182
20
19.8661
30
0
11
168.682
21
19.8661
31
0
0
LINE
5
36
100
AcDbEntity
67
0
8
aux
6
ByLayer
62
256
370
-1
100
AcDbLine
10
168.682
20
19.8661
30
0
11
197.682
21
19.8661
31
0
0
LINE
5
37
100
AcDbEntity
67
0
8
aux
6
ByLayer
62
2
370
-1
100
AcDbLine
10
197.682
20
19.8661
30
0
11
199.682
21
19.8661
31
0
0
LINE
5
38
100
AcDbEntity
67
0
8
aux
6
ByLayer
62
256
370
-1
100
AcDbLine
10
199.682
20
19.8661
30
0
11
242.432
21
19.8661
31
0
0
CIRCLE
5
3F
100
AcDbEntity
67
0
8
wheel
6
ByLayer
62
256
370
-1
100
AcDbCircle
10
23.4318
20
23.4293
30
0
40
10
0
CIRCLE
5
40
100
AcDbEntity
67
0
8
wheel
6
ByLayer
62
256
370
-1
100
AcDbCircle
10
23.4318
20
23.4293
30
0
40
8.5
0
CIRCLE
5
41
100
AcDbEntity
67
0
8
wheel
6
ByLayer
62
256
370
-1
100
AcDbCircle
10
23.4318
20
23.4293
30
0
40
0.8
0
LINE
5
42
100
AcDbEntity
67
0
8
wheel
6
ByLayer
62
256
370
-1
100
AcDbLine
10
22.6318
20
23.4293
30
0
11
14.9318
21
23.4293
31
0
0
LINE
5
43
100
AcDbEntity
67
0
8
wheel
6
ByLayer
62
256
370
-1
100
AcDbLine
10
22.6493
20
23.2629
30
0
11
15.1175
21
21.662
31
0
0
LINE
5
44
100
AcDbEntity
67
0
8
wheel
6
ByLayer
62
256
370
-1
100
AcDbLine
10
22.701
20
23.1039
30
0
11
15.6667
21
19.972
31
0
0
LINE
5
45
100
AcDbEntity
67
0
8
wheel
6
ByLayer
62
256
370
-1
100
AcDbLine
10
22.7846
20
22.959
30
0
11
16.5552
21
18.4331
31
0
0
LINE
5
46
100
AcDbEntity
67
0
8
wheel
6
ByLayer
62
256
370
-1
100
AcDbLine
10
22.8965
20
22.8347
30
0
11
17.7442
21
17.1125
31
0
0
LINE
5
47
100
AcDbEntity
67
0
8
wheel
6
ByLayer
62
256
370
-1
100
AcDbLine
10
23.0318
20
22.7364
30
0
11
19.1818
21
16.068
31
0
0
LINE
5
48
100
AcDbEntity
67
0
8
wheel
6
ByLayer
62
256
370
-1
100
AcDbLine
10
23.1846
20
22.6684
30
0
11
20.8052
21
15.3453
31
0
0
LINE
5
49
100
AcDbEntity
67
0
8
wheel
6
ByLayer
62
256
370
-1
100
AcDbLine
10
23.3482
20
22.6336
30
0
11
22.5433
21
14.9758
31
0
0
LINE
5
4A
100
AcDbEntity
67
0
8
wheel
6
ByLayer
62
256
370
-1
100
AcDbLine
10
23.5154
20
22.6336
30
0
11
24.3203
21
14.9758
31
0
0
LINE
5
4B
100
AcDbEntity
67
0
8
wheel
6
ByLayer
62
256
370
-1
100
AcDbLine
10
23.679
20
22.6684
30
0
11
26.0584
21
15.3453
31
0
0
LINE
5
4C
100
AcDbEntity
67
0
8
wheel
6
ByLayer
62
256
370
-1
100
AcDbLine
10
23.8318
20
22.7364
30
0
11
27.6818
21
16.068
31
0
0
LINE
5
4D
100
AcDbEntity
67
0
8
wheel
6
ByLayer
62
256
370
-1
100
AcDbLine
10
23.9671
20
22.8347
30
0
11
29.1194
21
17.1125
31
0
0
LINE
5
4E
100
AcDbEntity
67
0
8
wheel
6
ByLayer
62
256
370
-1
100
AcDbLine
10
24.079
20
22.959
30
0
11
30.3084
21
18.4331
31
0
0
LINE
5
4F
100
AcDbEntity
67
0
8
wheel
6
ByLayer
62
256
370
-1
100
AcDbLine
10
24.1626
20
23.1039
30
0
11
31.1969
21
19.972
31
0
0
LINE
5
50
100
AcDbEntity
67
0
8
wheel
6
ByLayer
62
256
370
-1
100
AcDbLine
10
24.2143
20
23.2629
30
0
11
31.7461
21
21.662
31
0
0
LINE
5
51
100
AcDbEntity
67
0
8
wheel
6
ByLayer
62
256
370
-1
100
AcDbLine
10
24.2318
20
23.4293
30
0
11
31.9318
21
23.4293
31
0
0
LINE
5
52
100
AcDbEntity
67
0
8
wheel
6
ByLayer
62
256
370
-1
100
AcDbLine
10
24.2143
20
23.5956
30
0
11
31.7461
21
25.1965
31
0
0
LINE
5
53
100
AcDbEntity
67
0
8
wheel
6
ByLayer
62
256
370
-1
100
AcDbLine
10
24.1626
20
23.7547
30
0
11
31.1969
21
26.8865
31
0
0
LINE
5
54
100
AcDbEntity
67
0
8
wheel
6
ByLayer
62
256
370
-1
100
AcDbLine
10
24.079
20
23.8995
30
0
11
30.3084
21
28.4254
31
0
0
LINE
5
55
100
AcDbEntity
67
0
8
wheel
6
ByLayer
62
256
370
-1
100
AcDbLine
10
23.9671
20
24.0238
30
0
11
29.1194
21
29.746
31
0
0
LINE
5
56
100
AcDbEntity
67
0
8
wheel
6
ByLayer
62
256
370
-1
100
AcDbLine
10
23.8318
20
24.1221
30
0
11
27.6818
21
30.7905
31
0
0
LINE
5
57
100
AcDbEntity
67
0
8
wheel
6
ByLayer
62
256
370
-1
100
AcDbLine
10
23.679
20
24.1901
30
0
11
26.0584
21
31.5132
31
0
0
LINE
5
58
100
AcDbEntity
67
0
8
wheel
6
ByLayer
62
256
370
-1
100
AcDbLine
10
23.5154
20
24.2249
30
0
11
24.3203
21
31.8827
31
0
0
LINE
5
59
100
AcDbEntity
67
0
8
wheel
6
ByLayer
62
256
370
-1
100
AcDbLine
10
23.3482
20
24.2249
30
0
11
22.5433
21
31.8827
31
0
0
LINE
5
5A
100
AcDbEntity
67
0
8
wheel
6
ByLayer
62
256
370
-1
100
AcDbLine
10
23.1846
20
24.1901
30
0
11
20.8052
21
31.5132
31
0
0
LINE
5
5B
100
AcDbEntity
67
0
8
wheel
6
ByLayer
62
256
370
-1
100
AcDbLine
10
23.0318
20
24.1221
30
0
11
19.1818
21
30.7905
31
0
0
LINE
5
5C
100
AcDbEntity
67
0
8
wheel
6
ByLayer
62
256
370
-1
100
AcDbLine
10
22.8965
20
24.0238
30
0
11
17.7442
21
29.746
31
0
0
LINE
5
5D
100
AcDbEntity
67
0
8
wheel
6
ByLayer
62
256
370
-1
100
AcDbLine
10
22.7846
20
23.8995
30
0
11
16.5552
21
28.4254
31
0
0
LINE
5
5E
100
AcDbEntity
67
0
8
wheel
6
ByLayer
62
256
370
-1
100
AcDbLine
10
22.701
20
23.7547
30
0
11
15.6667
21
26.8865
31
0
0
LINE
5
5F
100
AcDbEntity
67
0
8
wheel
6
ByLayer
62
256
370
-1
100
AcDbLine
10
22.6493
20
23.5956
30
0
11
15.1175
21
25.1965
31
0
0
LINE
5
60
100
AcDbEntity
67
0
8
propeler
6
ByLayer
62
256
370
-1
100
AcDbLine
10
2.45585
20
70.3158
30
0
11
12.472
21
70.3158
31
0
0
LWPOLYLINE
5
61
100
AcDbEntity
67
0
8
propeler
6
ByLayer
62
256
370
-1
100
AcDbPolyline
90
11
70
0
10
12.472
20
70.3158
30
0
42
0
10
12.472
20
65.3222
30
0
42
0.1
10
11.5411
20
62.064
30
0
42
0
10
11.9339
20
27.902
30
0
42
-0.8
10
8.10022
20
27.902
30
0
42
-0.1
10
7.38935
20
32.4719
30
0
42
-0.05
10
7.38935
20
40.6398
30
0
42
-0.02
10
9.53287
20
61.9158
30
0
42
0.1
10
9.22996
20
65.2781
30
0
42
0.1
10
8.47267
20
66.2475
30
0
42
0
10
8.47267
20
70.3158
30
0
0
LWPOLYLINE
5
62
100
AcDbEntity
67
0
8
propeler
6
ByLayer
62
256
370
-1
100
AcDbPolyline
90
11
70
0
10
8.47267
20
70.3158
30
0
42
0
10
8.47267
20
75.3095
30
0
42
0.1
10
9.40356
20
78.5676
30
0
42
0
10
9.01081
20
112.73
30
0
42
-0.8
10
12.8445
20
112.73
30
0
42
-0.1
10
13.5553
20
108.16
30
0
42
-0.05
10
13.5553
20
99.9918
30
0
42
-0.02
10
11.4118
20
78.7159
30
0
42
0.1
10
11.7147
20
75.3535
30
0
42
0.1
10
12.472
20
74.3842
30
0
42
0
10
12.472
20
70.3158
30
0
0
LINE
5
67
100
AcDbEntity
67
0
8
ground
6
ByLayer
62
256
370
-1
100
AcDbLine
10
7.98333
20
13.4293
30
0
11
237.139
21
13.4293
31
0
0
HATCH
5
69
100
AcDbEntity
67
0
8
ground
6
ByLayer
62
256
370
-1
100
AcDbHatch
10
0
20
0
30
0
210
0
220
0
230
1
2
USER_DEF
70
0
71
0
91
1
92
0
93
4
72
1
10
7.98333
20
13.4293
11
7.98333
21
12.1099
72
1
10
7.98333
20
12.1099
11
237.139
21
12.1099
72
1
10
237.139
20
12.1099
11
237.139
21
13.4293
72
1
10
237.139
20
13.4293
11
7.98333
21
13.4293
97
0
75
0
76
0
52
0
41
1
77
0
78
1
53
45
43
0
44
0
45
-0.565685
46
0.565685
79
0
98
0
0
LINE
5
6A
100
AcDbEntity
67
0
8
ground
6
ByLayer
62
256
370
-1
100
AcDbLine
10
61.5323
20
-63.2127
30
0
11
183.082
21
-63.2127
31
0
0
HATCH
5
6B
100
AcDbEntity
67
0
8
ground
6
ByLayer
62
256
370
-1
100
AcDbHatch
10
0
20
0
30
0
210
0
220
0
230
1
2
USER_DEF
70
0
71
0
91
1
92
0
93
4
72
1
10
61.5323
20
-63.2127
11
61.5323
21
-64.4522
72
1
10
61.5323
20
-64.4522
11
183.082
21
-64.4522
72
1
10
183.082
20
-64.4522
11
183.082
21
-63.2127
72
1
10
183.082
20
-63.2127
11
61.5323
21
-63.2127
97
0
75
0
76
0
52
0
41
1
77
0
78
1
53
45
43
0
44
0
45
-0.565685
46
0.565685
79
0
98
0
0
LINE
5
6C
100
AcDbEntity
67
0
8
aux
6
ByLayer
62
256
370
-1
100
AcDbLine
10
9.30161
20
13.4293
30
0
11
9.30161
21
67.9293
31
0
0
LINE
5
6D
100
AcDbEntity
67
0
8
aux
6
ByLayer
62
256
370
-1
100
AcDbLine
10
14.6146
20
13.4293
30
0
11
14.6146
21
61.4293
31
0
0
LINE
5
6E
100
AcDbEntity
67
0
8
aux
6
ByLayer
62
256
370
-1
100
AcDbLine
10
3.40655
20
67.9293
30
0
11
15.4065
21
67.9293
31
0
0
LINE
5
6F
100
AcDbEntity
67
0
8
aux
6
ByLayer
62
256
370
-1
100
AcDbLine
10
15.4065
20
67.9293
30
0
11
82.4065
21
67.9293
31
0
0
LINE
5
70
100
AcDbEntity
67
0
8
aux
6
ByLayer
62
256
370
-1
100
AcDbLine
10
82.4065
20
57.9797
30
0
11
82.4065
21
42.9797
31
0
0
LWPOLYLINE
5
71
100
AcDbEntity
67
0
8
wing
6
ByLayer
62
256
370
-1
100
AcDbPolyline
90
2
70
0
10
3.40655
20
67.9293
30
0
42
-0.1
10
82.4065
20
54.0615
30
0
0
LINE
5
72
100
AcDbEntity
67
0
8
aux
6
ByLayer
62
256
370
-1
100
AcDbLine
10
3.40655
20
61.4293
30
0
11
15.4065
21
61.4293
31
0
0
LWPOLYLINE
5
73
100
AcDbEntity
67
0
8
wing
6
ByLayer
62
256
370
-1
100
AcDbPolyline
90
2
70
0
10
14.6146
20
61.4293
30
0
42
-0.1
10
82.4065
20
42.9797
30
0
0
LWPOLYLINE
5
74
100
AcDbEntity
67
0
8
wing
6
ByLayer
62
256
370
-1
100
AcDbPolyline
90
2
70
0
10
3.40655
20
66.9293
30
0
42
-0.1
10
82.4065
20
53.0615
30
0
0
LWPOLYLINE
5
75
100
AcDbEntity
67
0
8
wing
6
ByLayer
62
256
370
-1
100
AcDbPolyline
90
2
70
0
10
3.40655
20
65.9293
30
0
42
-0.1
10
82.4065
20
52.0615
30
0
0
LINE
5
7A
100
AcDbEntity
67
0
8
aux
6
ByLayer
62
256
370
-1
100
AcDbLine
10
14.6146
20
61.4293
30
0
11
14.6146
21
62.4293
31
0
0
LINE
5
7B
100
AcDbEntity
67
0
8
aux
6
ByLayer
62
256
370
-1
100
AcDbLine
10
14.6146
20
62.4293
30
0
11
14.6146
21
63.4293
31
0
0
LINE
5
7C
100
AcDbEntity
67
0
8
aux
6
ByLayer
62
256
370
-1
100
AcDbLine
10
14.6146
20
63.4293
30
0
11
14.6146
21
64.734
31
0
0
LWPOLYLINE
5
7D
100
AcDbEntity
67
0
8
wing
6
ByLayer
62
256
370
-1
100
AcDbPolyline
90
2
70
0
10
14.6146
20
62.4293
30
0
42
-0.1
10
82.4065
20
45.5962
30
0
0
LWPOLYLINE
5
7E
100
AcDbEntity
67
0
8
wing
6
ByLayer
62
256
370
-1
100
AcDbPolyline
90
2
70
0
10
14.6146
20
63.4293
30
0
42
-0.1
10
82.4065
20
48.1829
30
0
0
LWPOLYLINE
5
7F
100
AcDbEntity
67
0
8
wing
6
ByLayer
62
256
370
-1
100
AcDbPolyline
90
2
70
0
10
14.6146
20
64.734
30
0
42
-0.1
10
82.4065
20
50.1343
30
0
0
LINE
5
81
100
AcDbEntity
67
0
8
wing
6
ByLayer
62
256
370
-1
100
AcDbLine
10
3.40655
20
65.9293
30
0
11
3.40655
21
67.9293
31
0
0
LINE
5
82
100
AcDbEntity
67
0
8
wing
6
ByLayer
62
256
370
-1
100
AcDbLine
10
14.6146
20
61.4293
30
0
11
14.6146
21
64.734
31
0
0
LINE
5
84
100
AcDbEntity
67
0
8
wing
6
ByLayer
62
256
370
-1
100
AcDbLine
10
14.6146
20
64.734
30
0
11
14.6146
21
65.9056
31
0
0
LINE
5
85
100
AcDbEntity
67
0
8
wing
6
ByLayer
62
256
370
-1
100
AcDbLine
10
82.4065
20
42.9797
30
0
11
82.4065
21
54.0615
31
0
0
IMAGE
5
89
100
AcDbEntity
67
0
8
wing
6
ByLayer
62
256
370
-1
100
AcDbRasterImage
90
0
10
50.8547
20
-127.209
30
0
11
0.104908
21
0
31
0
12
0
22
0.104908
32
0
13
350
23
386
340
88
70
3
0
INSERT
5
A9
100
AcDbEntity
67
0
8
0
6
ByLayer
62
2
370
-2
100
AcDbBlockReference
66
0
2
sd_sig
10
96.6094
20
-92.2896
30
0
41
1
42
1
43
1
50
0
0
IMAGE
5
AB
100
AcDbEntity
67
0
8
0
6
ByLayer
62
256
370
-1
100
AcDbRasterImage
90
0
10
617.413
20
-75.4422
30
0
11
0.198457
21
-0.00258913
31
0
12
0.00258913
22
0.198457
32
0
13
1093
23
461
340
AA
70
3
0
LINE
5
AC
100
AcDbEntity
67
0
8
aux
6
ByLayer
62
256
370
-1
100
AcDbLine
10
633.054
20
-55.0389
30
0
11
672.304
21
-55.0389
31
0
0
LINE
5
AE
100
AcDbEntity
67
0
8
aux
6
ByLayer
62
2
370
-1
100
AcDbLine
10
672.304
20
-55.0389
30
0
11
707.804
21
-55.0389
31
0
0
LINE
5
AF
100
AcDbEntity
67
0
8
aux
6
ByLayer
62
256
370
-1
100
AcDbLine
10
707.804
20
-55.0389
30
0
11
742.804
21
-55.0389
31
0
0
LINE
5
B0
100
AcDbEntity
67
0
8
aux
6
ByLayer
62
2
370
-1
100
AcDbLine
10
742.804
20
-55.0389
30
0
11
778.304
21
-55.0389
31
0
0
LINE
5
B1
100
AcDbEntity
67
0
8
aux
6
ByLayer
62
256
370
-1
100
AcDbLine
10
778.304
20
-55.0389
30
0
11
807.304
21
-55.0389
31
0
0
LINE
5
B2
100
AcDbEntity
67
0
8
aux
6
ByLayer
62
256
370
-1
100
AcDbLine
10
181.615
20
45.515
30
0
11
181.615
21
63.015
31
0
0
LINE
5
B3
100
AcDbEntity
67
0
8
aux
6
ByLayer
62
2
370
-1
100
AcDbLine
10
170.019
20
38.2792
30
0
11
170.019
21
52.2792
31
0
0
LINE
5
B4
100
AcDbEntity
67
0
8
aux
6
ByLayer
62
256
370
-1
100
AcDbLine
10
170.019
20
38.2792
30
0
11
170.019
21
13.2792
31
0
0
LINE
5
B5
100
AcDbEntity
67
0
8
aux
6
ByLayer
62
256
370
-1
100
AcDbLine
10
170.019
20
52.2792
30
0
11
170.019
21
75.2792
31
0
0
LINE
5
B6
100
AcDbEntity
67
0
8
aux
6
ByLayer
62
256
370
-1
100
AcDbLine
10
778.304
20
-23.9646
30
0
11
778.304
21
-0.964572
31
0
0
LINE
5
B7
100
AcDbEntity
67
0
8
aux
6
ByLayer
62
256
370
-1
100
AcDbLine
10
778.304
20
-37.9646
30
0
11
778.304
21
-62.9646
31
0
0
LINE
5
B8
100
AcDbEntity
67
0
8
aux
6
ByLayer
62
2
370
-1
100
AcDbLine
10
778.304
20
-37.9646
30
0
11
778.304
21
-23.9646
31
0
0
CIRCLE
5
B9
100
AcDbEntity
67
0
8
aux
6
Continuous
62
256
370
-1
100
AcDbCircle
10
633.054
20
-52.1323
30
0
40
0.75
0
LINE
5
BD
100
AcDbEntity
67
0
8
aux
6
ByLayer
62
256
370
-1
100
AcDbLine
10
633.804
20
-52.1323
30
0
11
807.304
21
-35.1212
31
0
0
LINE
5
BF
100
AcDbEntity
67
0
8
aux
6
ByLayer
62
256
370
-1
100
AcDbLine
10
633.054
20
-14.3823
30
0
11
633.054
21
-51.3823
31
0
0
LINE
5
C0
100
AcDbEntity
67
0
8
aux
6
ByLayer
62
256
370
-1
100
AcDbLine
10
807.304
20
-25.8777
30
0
11
633.054
21
-14.3823
31
0
0
LINE
5
C4
100
AcDbEntity
67
0
8
aux
6
ByLayer
62
256
370
-1
100
AcDbLine
10
672.304
20
-55.0389
30
0
11
672.304
21
-7.41292
31
0
0
LINE
5
C5
100
AcDbEntity
67
0
8
aux
6
ByLayer
62
256
370
-1
100
AcDbLine
10
707.804
20
-55.0389
30
0
11
707.804
21
-11.6013
31
0
0
LINE
5
C6
100
AcDbEntity
67
0
8
aux
6
ByLayer
62
256
370
-1
100
AcDbLine
10
742.804
20
-55.0389
30
0
11
742.804
21
-10.4991
31
0
0
LINE
5
C7
100
AcDbEntity
67
0
8
aux
6
ByLayer
62
256
370
-1
100
AcDbLine
10
807.304
20
-55.0389
30
0
11
807.304
21
-11.1619
31
0
0
LINE
5
CB
100
AcDbEntity
67
0
8
aux
6
ByLayer
62
256
370
-1
100
AcDbLine
10
807.304
20
-21.333
30
0
11
752.423
21
-17.7125
31
0
0
LINE
5
CC
100
AcDbEntity
67
0
8
aux
6
ByLayer
62
2
370
-1
100
AcDbLine
10
752.423
20
-17.7125
30
0
11
695.048
21
-13.9274
31
0
0
LINE
5
CD
100
AcDbEntity
67
0
8
aux
6
ByLayer
62
256
370
-1
100
AcDbLine
10
695.048
20
-13.9274
30
0
11
626.198
21
-9.38529
31
0
0
LINE
5
CE
100
AcDbEntity
67
0
8
aux
6
ByLayer
62
2
370
-1
100
AcDbLine
10
633.054
20
-14.3823
30
0
11
626.064
21
-14.0024
31
0
0
LINE
5
CF
100
AcDbEntity
67
0
8
aux
6
ByLayer
62
2
370
-1
100
AcDbLine
10
633.054
20
-51.3823
30
0
11
626.064
21
-14.0024
31
0
0
LINE
5
D0
100
AcDbEntity
67
0
8
aux
6
ByLayer
62
2
370
-1
100
AcDbLine
10
626.064
20
-14.0024
30
0
11
626.248
21
-7.50496
31
0
0
CIRCLE
5
D3
100
AcDbEntity
67
0
8
aux
6
Continuous
62
256
370
-1
100
AcDbCircle
10
672.304
20
-48.3575
30
0
40
0.75
0
CIRCLE
5
D4
100
AcDbEntity
67
0
8
aux
6
Continuous
62
256
370
-1
100
AcDbCircle
10
707.804
20
-44.8769
30
0
40
0.75
0
CIRCLE
5
D5
100
AcDbEntity
67
0
8
aux
6
Continuous
62
256
370
-1
100
AcDbCircle
10
742.804
20
-41.4452
30
0
40
0.75
0
CIRCLE
5
D6
100
AcDbEntity
67
0
8
aux
6
Continuous
62
256
370
-1
100
AcDbCircle
10
778.304
20
-37.9646
30
0
40
0.75
0
CIRCLE
5
D7
100
AcDbEntity
67
0
8
aux
6
Continuous
62
256
370
-1
100
AcDbCircle
10
807.304
20
-35.1212
30
0
40
0.75
0
CIRCLE
5
D8
100
AcDbEntity
67
0
8
aux
6
Continuous
62
256
370
-1
100
AcDbCircle
10
807.304
20
-25.8777
30
0
40
0.75
0
CIRCLE
5
D9
100
AcDbEntity
67
0
8
aux
6
Continuous
62
256
370
-1
100
AcDbCircle
10
778.304
20
-23.9646
30
0
40
0.75
0
CIRCLE
5
DA
100
AcDbEntity
67
0
8
aux
6
Continuous
62
256
370
-1
100
AcDbCircle
10
742.804
20
-21.6226
30
0
40
0.75
0
CIRCLE
5
DB
100
AcDbEntity
67
0
8
aux
6
Continuous
62
256
370
-1
100
AcDbCircle
10
707.804
20
-19.3136
30
0
40
0.75
0
CIRCLE
5
DC
100
AcDbEntity
67
0
8
aux
6
Continuous
62
256
370
-1
100
AcDbCircle
10
672.304
20
-16.9717
30
0
40
0.75
0
CIRCLE
5
DD
100
AcDbEntity
67
0
8
aux
6
Continuous
62
256
370
-1
100
AcDbCircle
10
633.054
20
-14.3823
30
0
40
0.75
0
CIRCLE
5
DE
100
AcDbEntity
67
0
8
aux
6
Continuous
62
256
370
-1
100
AcDbCircle
10
626.064
20
-14.0024
30
0
40
0.75
0
CIRCLE
5
DF
100
AcDbEntity
67
0
8
aux
6
Continuous
62
256
370
-1
100
AcDbCircle
10
626.248
20
-7.50496
30
0
40
0.75
0
LINE
5
E1
100
AcDbEntity
67
0
8
aux
6
Continuous
62
256
370
-1
100
AcDbLine
10
807.304
20
-34.3712
30
0
11
633.054
21
-51.3823
31
0
0
LINE
5
E2
100
AcDbEntity
67
0
8
aux
6
Continuous
62
256
370
-1
100
AcDbLine
10
633.054
20
-52.8823
30
0
11
807.304
21
-35.8712
31
0
0
LINE
5
E3
100
AcDbEntity
67
0
8
aux
6
Continuous
62
256
370
-1
100
AcDbLine
10
807.304
20
-26.6277
30
0
11
626.064
21
-14.7524
31
0
0
LINE
5
E4
100
AcDbEntity
67
0
8
aux
6
Continuous
62
256
370
-1
100
AcDbLine
10
626.064
20
-13.2524
30
0
11
807.304
21
-25.1277
31
0
0
LINE
5
EB
100
AcDbEntity
67
0
8
aux
6
Continuous
62
256
370
-1
100
AcDbLine
10
632.304
20
-52.1323
30
0
11
625.314
21
-14.0024
31
0
0
LINE
5
EC
100
AcDbEntity
67
0
8
aux
6
Continuous
62
256
370
-1
100
AcDbLine
10
625.314
20
-14.0024
30
0
11
625.498
21
-7.50496
31
0
0
LINE
5
ED
100
AcDbEntity
67
0
8
aux
6
Continuous
62
256
370
-1
100
AcDbLine
10
626.814
20
-14.0024
30
0
11
626.998
21
-7.50496
31
0
0
LINE
5
EE
100
AcDbEntity
67
0
8
aux
6
Continuous
62
256
370
-1
100
AcDbLine
10
626.814
20
-14.0024
30
0
11
633.804
21
-52.1323
31
0
0
LINE
5
EF
100
AcDbEntity
67
0
8
aux
6
Continuous
62
256
370
-1
100
AcDbLine
10
632.304
20
-14.3823
30
0
11
632.304
21
-52.1323
31
0
0
LINE
5
F0
100
AcDbEntity
67
0
8
aux
6
Continuous
62
256
370
-1
100
AcDbLine
10
633.804
20
-52.1323
30
0
11
633.804
21
-14.3823
31
0
0
LINE
5
F1
100
AcDbEntity
67
0
8
aux
6
Continuous
62
256
370
-1
100
AcDbLine
10
671.554
20
-16.9717
30
0
11
671.554
21
-48.3575
31
0
0
LINE
5
F2
100
AcDbEntity
67
0
8
aux
6
Continuous
62
256
370
-1
100
AcDbLine
10
673.054
20
-48.3575
30
0
11
673.054
21
-16.9717
31
0
0
LINE
5
F3
100
AcDbEntity
67
0
8
aux
6
Continuous
62
256
370
-1
100
AcDbLine
10
707.054
20
-19.3136
30
0
11
707.054
21
-44.8769
31
0
0
LINE
5
F4
100
AcDbEntity
67
0
8
aux
6
Continuous
62
256
370
-1
100
AcDbLine
10
708.554
20
-44.8769
30
0
11
708.554
21
-19.3136
31
0
0
LINE
5
F5
100
AcDbEntity
67
0
8
aux
6
Continuous
62
256
370
-1
100
AcDbLine
10
742.054
20
-21.6226
30
0
11
742.054
21
-41.4452
31
0
0
LINE
5
F6
100
AcDbEntity
67
0
8
aux
6
Continuous
62
256
370
-1
100
AcDbLine
10
743.554
20
-41.4452
30
0
11
743.554
21
-21.6226
31
0
0
LINE
5
F7
100
AcDbEntity
67
0
8
aux
6
Continuous
62
256
370
-1
100
AcDbLine
10
777.554
20
-23.9646
30
0
11
777.554
21
-37.9646
31
0
0
LINE
5
F8
100
AcDbEntity
67
0
8
aux
6
Continuous
62
256
370
-1
100
AcDbLine
10
779.054
20
-37.9646
30
0
11
779.054
21
-23.9646
31
0
0
LINE
5
F9
100
AcDbEntity
67
0
8
aux
6
Continuous
62
256
370
-1
100
AcDbLine
10
808.054
20
-35.1212
30
0
11
808.054
21
-25.8777
31
0
0
LINE
5
FA
100
AcDbEntity
67
0
8
aux
6
Continuous
62
256
370
-1
100
AcDbLine
10
806.554
20
-25.8777
30
0
11
806.554
21
-35.1212
31
0
0
LWPOLYLINE
5
FB
100
AcDbEntity
67
0
8
frame
6
ByLayer
62
256
370
-1
100
AcDbPolyline
90
10
70
1
10
625.498
20
-7.50496
30
0
42
0
10
625.314
20
-14.0024
30
0
42
0
10
632.304
20
-52.1323
30
0
42
0
10
633.054
20
-52.8823
30
0
42
0
10
807.304
20
-35.8712
30
0
42
0
10
808.054
20
-35.1212
30
0
42
0
10
808.054
20
-25.8777
30
0
42
0
10
807.304
20
-25.1277
30
0
42
0
10
626.834
20
-13.3028
30
0
42
0
10
626.998
20
-7.50496
30
0
42
0
0
LWPOLYLINE
5
FC
100
AcDbEntity
67
0
8
frame
6
ByLayer
62
256
370
-1
100
AcDbPolyline
90
4
70
1
10
626.963
20
-14.8112
30
0
42
0
10
633.656
20
-51.3236
30
0
42
0
10
806.554
20
-34.4444
30
0
42
0
10
806.554
20
-26.5786
30
0
42
0
0
LWPOLYLINE
5
FD
100
AcDbEntity
67
0
8
frame
6
ByLayer
62
256
370
-1
100
AcDbPolyline
90
5
70
1
10
632.304
20
-15.1612
30
0
42
0
10
632.304
20
-43.9496
30
0
42
0
10
633.656
20
-51.3236
30
0
42
0
10
633.804
20
-51.3091
30
0
42
0
10
633.804
20
-15.2595
30
0
42
0
0
LWPOLYLINE
5
FE
100
AcDbEntity
67
0
8
frame
6
ByLayer
62
256
370
-1
100
AcDbPolyline
90
4
70
1
10
671.554
20
-17.733
30
0
42
0
10
671.554
20
-47.6238
30
0
42
0
10
673.054
20
-47.4773
30
0
42
0
10
673.054
20
-17.8313
30
0
42
0
0
LWPOLYLINE
5
FF
100
AcDbEntity
67
0
8
frame
6
ByLayer
62
256
370
-1
100
AcDbPolyline
90
4
70
1
10
707.054
20
-20.0591
30
0
42
0
10
707.054
20
-44.1581
30
0
42
0
10
708.554
20
-44.0117
30
0
42
0
10
708.554
20
-20.1573
30
0
42
0
0
LWPOLYLINE
5
100
100
AcDbEntity
67
0
8
frame
6
ByLayer
62
256
370
-1
100
AcDbPolyline
90
4
70
1
10
742.054
20
-22.3524
30
0
42
0
10
742.054
20
-40.7412
30
0
42
0
10
743.554
20
-40.5948
30
0
42
0
10
743.554
20
-22.4506
30
0
42
0
0
LWPOLYLINE
5
101
100
AcDbEntity
67
0
8
frame
6
ByLayer
62
256
370
-1
100
AcDbPolyline
90
4
70
1
10
777.554
20
-24.6784
30
0
42
0
10
777.554
20
-37.2023
30
0
42
0
10
779.054
20
-37.1291
30
0
42
0
10
779.054
20
-24.7767
30
0
42
0
0
LWPOLYLINE
5
102
100
AcDbEntity
67
0
8
frame
6
ByLayer
62
256
370
-1
100
AcDbPolyline
90
10
70
1
10
15.8756
20
68.0067
30
0
42
0
10
15.6921
20
61.5093
30
0
42
0
10
22.6818
20
23.3793
30
0
42
0
10
23.4318
20
22.6293
30
0
42
0
10
197.682
20
39.6404
30
0
42
0
10
198.432
20
40.3904
30
0
42
0
10
198.432
20
49.6339
30
0
42
0
10
197.682
20
50.3839
30
0
42
0
10
17.2119
20
62.2088
30
0
42
0
10
17.3756
20
68.0067
30
0
42
0
0
LWPOLYLINE
5
103
100
AcDbEntity
67
0
8
frame
6
ByLayer
62
256
370
-1
100
AcDbPolyline
90
4
70
1
10
17.3404
20
60.7004
30
0
42
0
10
24.0335
20
24.188
30
0
42
0
10
196.932
20
41.0672
30
0
42
0
10
196.932
20
48.933
30
0
42
0
0
LWPOLYLINE
5
104
100
AcDbEntity
67
0
8
frame
6
ByLayer
62
256
370
-1
100
AcDbPolyline
90
5
70
1
10
22.6818
20
60.3504
30
0
42
0
10
22.6818
20
31.5621
30
0
42
0
10
24.0335
20
24.188
30
0
42
0
10
24.1818
20
24.2025
30
0
42
0
10
24.1818
20
60.2521
30
0
42
0
0
LWPOLYLINE
5
105
100
AcDbEntity
67
0
8
frame
6
ByLayer
62
256
370
-1
100
AcDbPolyline
90
4
70
1
10
61.9318
20
57.7786
30
0
42
0
10
61.9318
20
27.8879
30
0
42
0
10
63.4318
20
28.0343
30
0
42
0
10
63.4318
20
57.6804
30
0
42
0
0
LWPOLYLINE
5
106
100
AcDbEntity
67
0
8
frame
6
ByLayer
62
256
370
-1
100
AcDbPolyline
90
4
70
1
10
97.4318
20
55.4526
30
0
42
0
10
97.4318
20
31.3535
30
0
42
0
10
98.9318
20
31.5
30
0
42
0
10
98.9318
20
55.3543
30
0
42
0
0
LWPOLYLINE
5
107
100
AcDbEntity
67
0
8
frame
6
ByLayer
62
256
370
-1
100
AcDbPolyline
90
4
70
1
10
132.432
20
53.1593
30
0
42
0
10
132.432
20
34.7704
30
0
42
0
10
133.932
20
34.9168
30
0
42
0
10
133.932
20
53.061
30
0
42
0
0
LWPOLYLINE
5
108
100
AcDbEntity
67
0
8
frame
6
ByLayer
62
256
370
-1
100
AcDbPolyline
90
4
70
1
10
167.932
20
50.8332
30
0
42
0
10
167.932
20
38.3093
30
0
42
0
10
169.432
20
38.3825
30
0
42
0
10
169.432
20
50.7349
30
0
42
0
0
CIRCLE
5
109
100
AcDbEntity
67
0
8
wheel
6
ByLayer
62
256
370
-1
100
AcDbCircle
10
255.484
20
-53.2127
30
0
40
10
0
CIRCLE
5
10A
100
AcDbEntity
67
0
8
wheel
6
ByLayer
62
256
370
-1
100
AcDbCircle
10
255.484
20
-53.2127
30
0
40
8.5
0
CIRCLE
5
10B
100
AcDbEntity
67
0
8
wheel
6
ByLayer
62
256
370
-1
100
AcDbCircle
10
255.484
20
-53.2127
30
0
40
0.8
0
LINE
5
10C
100
AcDbEntity
67
0
8
wheel
6
ByLayer
62
256
370
-1
100
AcDbLine
10
254.684
20
-53.2127
30
0
11
246.984
21
-53.2127
31
0
0
LINE
5
10D
100
AcDbEntity
67
0
8
wheel
6
ByLayer
62
256
370
-1
100
AcDbLine
10
254.701
20
-53.3791
30
0
11
247.17
21
-54.98
31
0
0
LINE
5
10E
100
AcDbEntity
67
0
8
wheel
6
ByLayer
62
256
370
-1
100
AcDbLine
10
254.753
20
-53.5381
30
0
11
247.719
21
-56.67
31
0
0
LINE
5
10F
100
AcDbEntity
67
0
8
wheel
6
ByLayer
62
256
370
-1
100
AcDbLine
10
254.837
20
-53.683
30
0
11
248.607
21
-58.2089
31
0
0
LINE
5
110
100
AcDbEntity
67
0
8
wheel
6
ByLayer
62
256
370
-1
100
AcDbLine
10
254.949
20
-53.8073
30
0
11
249.796
21
-59.5295
31
0
0
LINE
5
111
100
AcDbEntity
67
0
8
wheel
6
ByLayer
62
256
370
-1
100
AcDbLine
10
255.084
20
-53.9056
30
0
11
251.234
21
-60.574
31
0
0
LINE
5
112
100
AcDbEntity
67
0
8
wheel
6
ByLayer
62
256
370
-1
100
AcDbLine
10
255.237
20
-53.9736
30
0
11
252.857
21
-61.2967
31
0
0
LINE
5
113
100
AcDbEntity
67
0
8
wheel
6
ByLayer
62
256
370
-1
100
AcDbLine
10
255.4
20
-54.0084
30
0
11
254.595
21
-61.6662
31
0
0
LINE
5
114
100
AcDbEntity
67
0
8
wheel
6
ByLayer
62
256
370
-1
100
AcDbLine
10
255.568
20
-54.0084
30
0
11
256.372
21
-61.6662
31
0
0
LINE
5
115
100
AcDbEntity
67
0
8
wheel
6
ByLayer
62
256
370
-1
100
AcDbLine
10
255.731
20
-53.9736
30
0
11
258.111
21
-61.2967
31
0
0
LINE
5
116
100
AcDbEntity
67
0
8
wheel
6
ByLayer
62
256
370
-1
100
AcDbLine
10
255.884
20
-53.9056
30
0
11
259.734
21
-60.574
31
0
0
LINE
5
117
100
AcDbEntity
67
0
8
wheel
6
ByLayer
62
256
370
-1
100
AcDbLine
10
256.019
20
-53.8073
30
0
11
261.172
21
-59.5295
31
0
0
LINE
5
118
100
AcDbEntity
67
0
8
wheel
6
ByLayer
62
256
370
-1
100
AcDbLine
10
256.131
20
-53.683
30
0
11
262.361
21
-58.2089
31
0
0
LINE
5
119
100
AcDbEntity
67
0
8
wheel
6
ByLayer
62
256
370
-1
100
AcDbLine
10
256.215
20
-53.5381
30
0
11
263.249
21
-56.67
31
0
0
LINE
5
11A
100
AcDbEntity
67
0
8
wheel
6
ByLayer
62
256
370
-1
100
AcDbLine
10
256.266
20
-53.3791
30
0
11
263.798
21
-54.98
31
0
0
LINE
5
11B
100
AcDbEntity
67
0
8
wheel
6
ByLayer
62
256
370
-1
100
AcDbLine
10
256.284
20
-53.2127
30
0
11
263.984
21
-53.2127
31
0
0
LINE
5
11C
100
AcDbEntity
67
0
8
wheel
6
ByLayer
62
256
370
-1
100
AcDbLine
10
256.266
20
-53.0464
30
0
11
263.798
21
-51.4455
31
0
0
LINE
5
11D
100
AcDbEntity
67
0
8
wheel
6
ByLayer
62
256
370
-1
100
AcDbLine
10
256.215
20
-52.8873
30
0
11
263.249
21
-49.7555
31
0
0
LINE
5
11E
100
AcDbEntity
67
0
8
wheel
6
ByLayer
62
256
370
-1
100
AcDbLine
10
256.131
20
-52.7425
30
0
11
262.361
21
-48.2166
31
0
0
LINE
5
11F
100
AcDbEntity
67
0
8
wheel
6
ByLayer
62
256
370
-1
100
AcDbLine
10
256.019
20
-52.6182
30
0
11
261.172
21
-46.896
31
0
0
LINE
5
120
100
AcDbEntity
67
0
8
wheel
6
ByLayer
62
256
370
-1
100
AcDbLine
10
255.884
20
-52.5199
30
0
11
259.734
21
-45.8515
31
0
0
LINE
5
121
100
AcDbEntity
67
0
8
wheel
6
ByLayer
62
256
370
-1
100
AcDbLine
10
255.731
20
-52.4519
30
0
11
258.111
21
-45.1288
31
0
0
LINE
5
122
100
AcDbEntity
67
0
8
wheel
6
ByLayer
62
256
370
-1
100
AcDbLine
10
255.568
20
-52.4171
30
0
11
256.372
21
-44.7593
31
0
0
LINE
5
123
100
AcDbEntity
67
0
8
wheel
6
ByLayer
62
256
370
-1
100
AcDbLine
10
255.4
20
-52.4171
30
0
11
254.595
21
-44.7593
31
0
0
LINE
5
124
100
AcDbEntity
67
0
8
wheel
6
ByLayer
62
256
370
-1
100
AcDbLine
10
255.237
20
-52.4519
30
0
11
252.857
21
-45.1288
31
0
0
LINE
5
125
100
AcDbEntity
67
0
8
wheel
6
ByLayer
62
256
370
-1
100
AcDbLine
10
255.084
20
-52.5199
30
0
11
251.234
21
-45.8515
31
0
0
LINE
5
126
100
AcDbEntity
67
0
8
wheel
6
ByLayer
62
256
370
-1
100
AcDbLine
10
254.949
20
-52.6182
30
0
11
249.796
21
-46.896
31
0
0
LINE
5
127
100
AcDbEntity
67
0
8
wheel
6
ByLayer
62
256
370
-1
100
AcDbLine
10
254.837
20
-52.7425
30
0
11
248.607
21
-48.2166
31
0
0
LINE
5
128
100
AcDbEntity
67
0
8
wheel
6
ByLayer
62
256
370
-1
100
AcDbLine
10
254.753
20
-52.8873
30
0
11
247.719
21
-49.7555
31
0
0
LINE
5
129
100
AcDbEntity
67
0
8
wheel
6
ByLayer
62
256
370
-1
100
AcDbLine
10
254.701
20
-53.0464
30
0
11
247.17
21
-51.4455
31
0
0
LINE
5
12A
100
AcDbEntity
67
0
8
propeler
6
ByLayer
62
256
370
-1
100
AcDbLine
10
234.508
20
-6.3262
30
0
11
244.524
21
-6.3262
31
0
0
LWPOLYLINE
5
12B
100
AcDbEntity
67
0
8
propeler
6
ByLayer
62
256
370
-1
100
AcDbPolyline
90
11
70
0
10
244.524
20
-6.3262
30
0
42
0
10
244.524
20
-11.3198
30
0
42
0.1
10
243.593
20
-14.578
30
0
42
0
10
243.986
20
-48.74
30
0
42
-0.8
10
240.152
20
-48.74
30
0
42
-0.1
10
239.441
20
-44.1701
30
0
42
-0.05
10
239.441
20
-36.0022
30
0
42
-0.02
10
241.585
20
-14.7262
30
0
42
0.1
10
241.282
20
-11.3639
30
0
42
0.1
10
240.525
20
-10.3945
30
0
42
0
10
240.525
20
-6.3262
30
0
0
LWPOLYLINE
5
12C
100
AcDbEntity
67
0
8
propeler
6
ByLayer
62
256
370
-1
100
AcDbPolyline
90
11
70
0
10
240.525
20
-6.3262
30
0
42
0
10
240.525
20
-1.3325
30
0
42
0.1
10
241.456
20
1.9256
30
0
42
0
10
241.063
20
36.088
30
0
42
-0.8
10
244.897
20
36.088
30
0
42
-0.1
10
245.607
20
31.518
30
0
42
-0.05
10
245.607
20
23.3498
30
0
42
-0.02
10
243.464
20
2.0739
30
0
42
0.1
10
243.767
20
-1.2885
30
0
42
0.1
10
244.524
20
-2.2578
30
0
42
0
10
244.524
20
-6.3262
30
0
0
LWPOLYLINE
5
12D
100
AcDbEntity
67
0
8
wing
6
ByLayer
62
256
370
-1
100
AcDbPolyline
90
2
70
0
10
235.459
20
-8.7127
30
0
42
-0.1
10
314.459
20
-22.5805
30
0
0
LWPOLYLINE
5
12E
100
AcDbEntity
67
0
8
wing
6
ByLayer
62
256
370
-1
100
AcDbPolyline
90
2
70
0
10
246.667
20
-15.2127
30
0
42
-0.1
10
314.459
20
-33.6623
30
0
0
LWPOLYLINE
5
12F
100
AcDbEntity
67
0
8
wing
6
ByLayer
62
256
370
-1
100
AcDbPolyline
90
2
70
0
10
235.459
20
-9.7127
30
0
42
-0.1
10
314.459
20
-23.5805
30
0
0
LWPOLYLINE
5
130
100
AcDbEntity
67
0
8
wing
6
ByLayer
62
256
370
-1
100
AcDbPolyline
90
2
70
0
10
235.459
20
-10.7127
30
0
42
-0.1
10
314.459
20
-24.5805
30
0
0
LWPOLYLINE
5
131
100
AcDbEntity
67
0
8
wing
6
ByLayer
62
256
370
-1
100
AcDbPolyline
90
2
70
0
10
246.667
20
-14.2127
30
0
42
-0.1
10
314.459
20
-31.0458
30
0
0
LWPOLYLINE
5
132
100
AcDbEntity
67
0
8
wing
6
ByLayer
62
256
370
-1
100
AcDbPolyline
90
2
70
0
10
246.667
20
-13.2127
30
0
42
-0.1
10
314.459
20
-28.4591
30
0
0
LWPOLYLINE
5
133
100
AcDbEntity
67
0
8
wing
6
ByLayer
62
256
370
-1
100
AcDbPolyline
90
2
70
0
10
246.667
20
-11.908
30
0
42
-0.1
10
314.459
20
-26.5077
30
0
0
LINE
5
134
100
AcDbEntity
67
0
8
wing
6
ByLayer
62
256
370
-1
100
AcDbLine
10
235.459
20
-10.7127
30
0
11
235.459
21
-8.7127
31
0
0
LINE
5
135
100
AcDbEntity
67
0
8
wing
6
ByLayer
62
256
370
-1
100
AcDbLine
10
246.667
20
-15.2127
30
0
11
246.667
21
-11.908
31
0
0
LINE
5
136
100
AcDbEntity
67
0
8
wing
6
ByLayer
62
256
370
-1
100
AcDbLine
10
246.667
20
-11.908
30
0
11
246.667
21
-10.7364
31
0
0
LINE
5
137
100
AcDbEntity
67
0
8
wing
6
ByLayer
62
256
370
-1
100
AcDbLine
10
314.459
20
-33.6623
30
0
11
314.459
21
-22.5805
31
0
0
LWPOLYLINE
5
138
100
AcDbEntity
67
0
8
frame
6
ByLayer
62
256
370
-1
100
AcDbPolyline
90
10
70
1
10
247.928
20
-8.63534
30
0
42
0
10
247.744
20
-15.1327
30
0
42
0
10
254.734
20
-53.2627
30
0
42
0
10
255.484
20
-54.0127
30
0
42
0
10
429.734
20
-37.0016
30
0
42
0
10
430.484
20
-36.2516
30
0
42
0
10
430.484
20
-27.0081
30
0
42
0
10
429.734
20
-26.2581
30
0
42
0
10
249.264
20
-14.4332
30
0
42
0
10
249.428
20
-8.63534
30
0
42
0
0
LWPOLYLINE
5
139
100
AcDbEntity
67
0
8
frame
6
ByLayer
62
256
370
-1
100
AcDbPolyline
90
4
70
1
10
249.393
20
-15.9416
30
0
42
0
10
256.086
20
-52.454
30
0
42
0
10
428.984
20
-35.5748
30
0
42
0
10
428.984
20
-27.709
30
0
42
0
0
LWPOLYLINE
5
13A
100
AcDbEntity
67
0
8
frame
6
ByLayer
62
256
370
-1
100
AcDbPolyline
90
5
70
1
10
254.734
20
-16.2916
30
0
42
0
10
254.734
20
-45.0799
30
0
42
0
10
256.086
20
-52.454
30
0
42
0
10
256.234
20
-52.4395
30
0
42
0
10
256.234
20
-16.3899
30
0
42
0
0
LWPOLYLINE
5
13B
100
AcDbEntity
67
0
8
frame
6
ByLayer
62
256
370
-1
100
AcDbPolyline
90
4
70
1
10
293.984
20
-18.8634
30
0
42
0
10
293.984
20
-48.7541
30
0
42
0
10
295.484
20
-48.6077
30
0
42
0
10
295.484
20
-18.9616
30
0
42
0
0
LWPOLYLINE
5
13C
100
AcDbEntity
67
0
8
frame
6
ByLayer
62
256
370
-1
100
AcDbPolyline
90
4
70
1
10
329.484
20
-21.1894
30
0
42
0
10
329.484
20
-45.2885
30
0
42
0
10
330.984
20
-45.142
30
0
42
0
10
330.984
20
-21.2877
30
0
42
0
0
LWPOLYLINE
5
13D
100
AcDbEntity
67
0
8
frame
6
ByLayer
62
256
370
-1
100
AcDbPolyline
90
4
70
1
10
364.484
20
-23.4827
30
0
42
0
10
364.484
20
-41.8716
30
0
42
0
10
365.984
20
-41.7252
30
0
42
0
10
365.984
20
-23.581
30
0
42
0
0
LWPOLYLINE
5
13E
100
AcDbEntity
67
0
8
frame
6
ByLayer
62
256
370
-1
100
AcDbPolyline
90
4
70
1
10
399.984
20
-25.8088
30
0
42
0
10
399.984
20
-38.3327
30
0
42
0
10
401.484
20
-38.2595
30
0
42
0
10
401.484
20
-25.9071
30
0
42
0
0
ENDSEC
0
SECTION
2
OBJECTS
0
DICTIONARY
5
22
100
AcDbDictionary
281
1
3
ACAD_COLOR
350
23
3
ACAD_GROUP
350
26
3
ACAD_LAYOUT
350
27
3
ACAD_MATERIAL
350
28
3
ACAD_MLINESTYLE
350
29
3
ACAD_PLOTSETTINGS
350
2A
3
ACAD_PLOTSTYLENAME
350
2B
3
ACAD_TABLESTYLE
350
2C
3
AcadDim
350
2D
0
DICTIONARY
5
23
100
AcDbDictionary
0
DICTIONARY
5
26
100
AcDbDictionary
0
DICTIONARY
5
27
100
AcDbDictionary
0
DICTIONARY
5
28
100
AcDbDictionary
0
DICTIONARY
5
29
100
AcDbDictionary
0
DICTIONARY
5
2A
100
AcDbDictionary
0
DICTIONARY
5
2B
100
AcDbDictionary
0
DICTIONARY
5
2C
100
AcDbDictionary
0
DICTIONARY
5
2D
100
AcDbDictionary
0
IMAGEDEF
5
2E
100
AcDbRasterImageDef
90
0
1
corpo-grande.png
0
IMAGEDEF
5
86
100
AcDbRasterImageDef
90
0
1
001i_signature_santos_dumont_400.png
0
IMAGEDEF
5
88
100
AcDbRasterImageDef
90
0
1
001i_portrait_santos_dumont_350.png
0
IMAGEDEF
5
AA
100
AcDbRasterImageDef
90
0
1
leme-det7.png
0
ENDSEC
0
EOF
