999
CadZinho - Minimalist CAD by Zecruel
0
SECTION
2
HEADER
9
$ACADVER
1
AC1021
9
$HANDSEED
5
21E
9
$INSUNITS
70
4
9
$LWDISPLAY
290
1
9
$LTSCALE
40
5
0
ENDSEC
0
SECTION
2
CLASSES
0
ENDSEC
0
SECTION
2
TABLES
0
TABLE
2
VPORT
5
1
100
AcDbSymbolTable
70
1000
0
VPORT
5
25
100
AcDbSymbolTableRecord
100
AcDbViewportTableRecord
2
*ACTIVE
70
0
10
0
20
0
11
1
21
1
12
20
22
320
13
0
23
0
14
100
24
100
15
100
25
100
16
0
26
0
36
1
17
0
27
0
37
0
40
25
41
1.8
42
50
43
0
44
0
50
0
51
0
0
ENDTAB
0
TABLE
2
LTYPE
5
4
100
AcDbSymbolTable
70
1000
0
LTYPE
5
5
100
AcDbSymbolTableRecord
100
AcDbLinetypeTableRecord
2
ByBlock
70
0
3

72
65
73
0
40
0
0
LTYPE
5
6
100
AcDbSymbolTableRecord
100
AcDbLinetypeTableRecord
2
ByLayer
70
0
3

72
65
73
0
40
0
0
LTYPE
5
7
100
AcDbSymbolTableRecord
100
AcDbLinetypeTableRecord
2
Continuous
70
0
3
___________________________________
72
65
73
0
40
0
0
LTYPE
5
8
100
AcDbSymbolTableRecord
100
AcDbLinetypeTableRecord
2
Border
70
0
3
____ . ____ ____ . ____ ____ . ____
72
65
73
6
40
1.75
49
0.5
74
0
49
-0.25
74
0
49
0.5
74
0
49
-0.25
74
0
49
0
74
0
49
-0.25
74
0
0
LTYPE
5
9
100
AcDbSymbolTableRecord
100
AcDbLinetypeTableRecord
2
Center
70
0
3
____ _ ____ _ ____ _ ____ _ ____ _
72
65
73
4
40
2
49
1.25
74
0
49
-0.25
74
0
49
0.25
74
0
49
-0.25
74
0
0
LTYPE
5
A
100
AcDbSymbolTableRecord
100
AcDbLinetypeTableRecord
2
Dashdot
70
0
3
____ . ____ . ____ . ____ . ____ .
72
65
73
4
40
1
49
0.5
74
0
49
-0.25
74
0
49
0
74
0
49
-0.25
74
0
0
LTYPE
5
B
100
AcDbSymbolTableRecord
100
AcDbLinetypeTableRecord
2
Dashed
70
0
3
____ ____ ____ ____ ____ ____ ____
72
65
73
2
40
0.75
49
0.5
74
0
49
-0.25
74
0
0
LTYPE
5
C
100
AcDbSymbolTableRecord
100
AcDbLinetypeTableRecord
2
Divide
70
0
3
____ . . ____ . . ____ . . ____ . .
72
65
73
6
40
1.25
49
0.5
74
0
49
-0.25
74
0
49
0
74
0
49
-0.25
74
0
49
0
74
0
49
-0.25
74
0
0
LTYPE
5
D
100
AcDbSymbolTableRecord
100
AcDbLinetypeTableRecord
2
Dot
70
0
3
. . . . . . . . . . . . . . . . . .
72
65
73
2
40
0.25
49
0
74
0
49
-0.25
74
0
0
LTYPE
5
E
100
AcDbSymbolTableRecord
100
AcDbLinetypeTableRecord
2
Hidden
70
0
3
__ __ __ __ __ __ __ __ __ __ __ __
72
65
73
2
40
0.375
49
0.25
74
0
49
-0.125
74
0
0
LTYPE
5
F
100
AcDbSymbolTableRecord
100
AcDbLinetypeTableRecord
2
Phantom
70
0
3
_____ _ _ _____ _ _ _____ _ _ _____
72
65
73
6
40
2.5
49
1.25
74
0
49
-0.25
74
0
49
0.25
74
0
49
-0.25
74
0
49
0.25
74
0
49
-0.25
74
0
0
ENDTAB
0
TABLE
2
LAYER
5
10
100
AcDbSymbolTable
70
1000
0
LAYER
5
11
100
AcDbSymbolTableRecord
100
AcDbLayerTableRecord
2
0
70
0
62
7
6
Continuous
370
0
390
2B
0
LAYER
5
39
100
AcDbSymbolTableRecord
100
AcDbLayerTableRecord
2
aux
70
0
62
7
6
Dot
370
0
390
2B
0
LAYER
5
3A
100
AcDbSymbolTableRecord
100
AcDbLayerTableRecord
2
wheel
70
0
62
250
6
Continuous
370
0
390
2B
0
LAYER
5
3B
100
AcDbSymbolTableRecord
100
AcDbLayerTableRecord
2
frame
70
0
62
1
6
Continuous
370
0
390
2B
0
LAYER
5
3C
100
AcDbSymbolTableRecord
100
AcDbLayerTableRecord
2
wing
70
0
62
3
6
Continuous
370
0
390
2B
0
LAYER
5
3D
100
AcDbSymbolTableRecord
100
AcDbLayerTableRecord
2
propeler
70
0
62
4
6
Continuous
370
0
390
2B
0
LAYER
5
3E
100
AcDbSymbolTableRecord
100
AcDbLayerTableRecord
2
tail
70
0
62
5
6
Continuous
370
0
390
2B
0
LAYER
5
66
100
AcDbSymbolTableRecord
100
AcDbLayerTableRecord
2
ground
70
0
62
28
6
Continuous
370
0
390
2B
0
LAYER
5
92
100
AcDbSymbolTableRecord
100
AcDbLayerTableRecord
2
signature
70
0
62
7
6
Continuous
370
0
390
2B
0
LAYER
5
1DB
100
AcDbSymbolTableRecord
100
AcDbLayerTableRecord
2
rudder
70
0
62
5
6
Continuous
370
0
390
2B
0
ENDTAB
0
TABLE
2
STYLE
5
12
100
AcDbSymbolTable
70
1000
0
STYLE
5
13
100
AcDbSymbolTableRecord
100
AcDbTextStyleTableRecord
2
Standard
70
0
40
0
41
1
50
0
71
0
42
1
3
TXT.SHX
4

0
STYLE
5
24
100
AcDbSymbolTableRecord
100
AcDbTextStyleTableRecord
2

70
1
40
0
41
1
50
0
71
0
42
1
3
LTYPESHP.SHX
4

0
ENDTAB
0
TABLE
2
VIEW
5
14
100
AcDbSymbolTable
70
0
0
ENDTAB
0
TABLE
2
UCS
5
15
100
AcDbSymbolTable
70
0
0
ENDTAB
0
TABLE
2
APPID
5
16
100
AcDbSymbolTable
70
10
0
APPID
5
17
100
AcDbSymbolTableRecord
100
AcDbRegAppTableRecord
2
ACAD
70
0
0
APPID
5
18
100
AcDbSymbolTableRecord
100
AcDbRegAppTableRecord
2
CADZINHO
70
0
0
ENDTAB
0
TABLE
2
DIMSTYLE
5
19
100
AcDbSymbolTable
70
1
100
AcDbDimStyleTable
71
1
0
DIMSTYLE
105
1A
100
AcDbSymbolTableRecord
100
AcDbDimStyleTableRecord
2
Standard
70
0
3
<>
5
OPEN30
40
1
41
1
42
0.5
44
1
140
1
144
1
147
0.5
77
1
271
2
340
13
0
ENDTAB
0
TABLE
2
BLOCK_RECORD
5
1B
100
AcDbSymbolTable
70
9999
0
BLOCK_RECORD
5
1C
100
AcDbSymbolTableRecord
100
AcDbBlockTableRecord
2
*Model_Space
70
0
0
BLOCK_RECORD
5
1D
100
AcDbSymbolTableRecord
100
AcDbBlockTableRecord
2
*Paper_Space
70
0
0
BLOCK_RECORD
5
9E
100
AcDbSymbolTableRecord
100
AcDbBlockTableRecord
2
sd_sig
70
0
0
ENDTAB
0
ENDSEC
0
SECTION
2
BLOCKS
0
BLOCK
5
1E
100
AcDbEntity
8
0
100
AcDbBlockBegin
2
*Model_Space
70
0
10
0
20
0
30
0
3
*Model_Space
1

0
ENDBLK
5
1F
100
AcDbEntity
8
0
100
AcDbBlockEnd
0
BLOCK
5
20
100
AcDbEntity
8
0
100
AcDbBlockBegin
2
*Paper_Space
70
0
10
0
20
0
30
0
3
*Paper_Space
1

0
ENDBLK
5
21
100
AcDbEntity
8
0
100
AcDbBlockEnd
0
BLOCK
5
9F
330
9E
100
AcDbEntity
8
0
100
AcDbBlockBegin
2
sd_sig
70
0
10
0
20
0
30
0
3
sd_sig
1

4
Alberto Santos Dumont signature
0
SPLINE
5
A0
100
AcDbEntity
67
0
8
0
6
ByBlock
62
0
370
-2
100
AcDbSpline
70
0
71
3
72
19
73
15
74
0
40
0
40
0
40
0
40
0
40
1
40
2
40
3
40
4
40
5
40
6
40
7
40
8
40
9
40
10
40
11
40
12
40
12
40
12
40
12
10
8.07421
20
5.52331
30
0
10
6.78003
20
5.5565
30
0
10
6.61411
20
6.12063
30
0
10
6.94595
20
6.75113
30
0
10
8.53879
20
8.04531
30
0
10
8.53879
20
8.04531
30
0
10
6.28226
20
6.25337
30
0
10
5.28674
20
5.85515
30
0
10
4.19166
20
5.82197
30
0
10
4.3244
20
7.04979
30
0
10
5.28674
20
8.31079
30
0
10
7.01232
20
9.10721
30
0
10
8.14058
20
9.00766
30
0
10
8.57518
20
8.53987
30
0
10
8.54497
20
8.11695
30
0
0
SPLINE
5
A1
100
AcDbEntity
67
0
8
0
6
ByBlock
62
0
370
-2
100
AcDbSpline
70
0
71
3
72
9
73
5
74
0
40
0
40
0
40
0
40
0
40
1
40
2
40
2
40
2
40
2
10
10.1032
20
5.54647
30
0
10
9.57897
20
5.39229
30
0
10
9.65606
20
5.00684
30
0
10
10.2111
20
5.05309
30
0
10
10.1957
20
5.42313
30
0
0
SPLINE
5
A2
100
AcDbEntity
67
0
8
0
6
ByBlock
62
0
370
-2
100
AcDbSpline
70
0
71
3
72
16
73
12
74
0
40
0
40
0
40
0
40
0
40
1
40
2
40
3
40
4
40
5
40
6
40
7
40
8
40
9
40
9
40
9
40
9
10
13.6114
20
8.01912
30
0
10
17.0877
20
8.03641
30
0
10
19.3361
20
8.7801
30
0
10
19.7339
20
9.00494
30
0
10
20.1143
20
9.76593
30
0
10
19.8549
20
10.1291
30
0
10
19.2323
20
10.1637
30
0
10
18.4021
20
9.99077
30
0
10
17.3471
20
8.50338
30
0
10
16.3267
20
6.92952
30
0
10
15.6003
20
5.73615
30
0
10
14.1648
20
4.56008
30
0
0
SPLINE
5
A3
100
AcDbEntity
67
0
8
0
6
ByBlock
62
0
370
-2
100
AcDbSpline
70
0
71
3
72
53
73
49
74
0
40
0
40
0
40
0
40
0
40
1
40
2
40
3
40
4
40
5
40
6
40
7
40
8
40
9
40
10
40
11
40
12
40
13
40
14
40
15
40
16
40
17
40
18
40
19
40
20
40
21
40
22
40
23
40
24
40
25
40
26
40
27
40
28
40
29
40
30
40
31
40
32
40
33
40
34
40
35
40
36
40
37
40
38
40
39
40
40
40
41
40
42
40
43
40
44
40
45
40
46
40
46
40
46
40
46
10
19.9703
20
6.58912
30
0
10
19.8888
20
7.02369
30
0
10
19.3184
20
7.02369
30
0
10
18.7888
20
7.06443
30
0
10
17.8517
20
6.33109
30
0
10
17.3629
20
5.82861
30
0
10
17.648
20
5.10885
30
0
10
18.4493
20
5.05453
30
0
10
19.332
20
5.77429
30
0
10
19.9296
20
6.54838
30
0
10
19.9296
20
6.54838
30
0
10
19.074
20
5.4891
30
0
10
19.1555
20
5.02736
30
0
10
19.5086
20
4.95946
30
0
10
20.5271
20
5.46194
30
0
10
21.9938
20
6.43973
30
0
10
22.116
20
6.34467
30
0
10
21.179
20
5.23107
30
0
10
21.179
20
4.97304
30
0
10
22.3876
20
5.4212
30
0
10
23.3654
20
6.1817
30
0
10
23.5148
20
6.10022
30
0
10
22.8901
20
5.36688
30
0
10
22.9716
20
4.97304
30
0
10
23.4062
20
4.82366
30
0
10
26.015
20
5.89032
30
0
10
30.1571
20
10.4588
30
0
10
30.0657
20
10.5501
30
0
10
28.6342
20
9.33188
30
0
10
25.4059
20
5.70759
30
0
10
25.6099
20
5.0006
30
0
10
27.1057
20
5.05467
30
0
10
28.0428
20
5.79355
30
0
10
28.0788
20
5.75751
30
0
10
27.4301
20
4.92852
30
0
10
27.4661
20
4.42392
30
0
10
28.1509
20
4.38788
30
0
10
28.6375
20
4.98258
30
0
10
28.6916
20
5.99179
30
0
10
27.9707
20
5.81157
30
0
10
27.9887
20
5.37906
30
0
10
28.9439
20
5.82959
30
0
10
29.8668
20
6.26676
30
0
10
31.4067
20
6.29367
30
0
10
32.3295
20
5.98609
30
0
10
32.1586
20
5.08041
30
0
10
31.5947
20
4.63612
30
0
10
30.7915
20
4.82409
30
0
10
30.7061
20
5.25129
30
0
0
SPLINE
5
A4
100
AcDbEntity
67
0
8
0
6
ByBlock
62
0
370
-2
100
AcDbSpline
70
0
71
3
72
8
73
4
74
0
40
0
40
0
40
0
40
0
40
1
40
1
40
1
40
1
10
24.0264
20
8.62933
30
0
10
25.8953
20
8.60441
30
0
10
33.396
20
8.67917
30
0
10
33.695
20
8.77885
30
0
0
SPLINE
5
A5
100
AcDbEntity
67
0
8
0
6
ByBlock
62
0
370
-2
100
AcDbSpline
70
0
71
3
72
8
73
4
74
0
40
0
40
0
40
0
40
0
40
1
40
1
40
1
40
1
10
33.8065
20
6.01284
30
0
10
34.8387
20
6.07603
30
0
10
36.3553
20
6.13922
30
0
10
36.5238
20
6.18135
30
0
0
SPLINE
5
A6
100
AcDbEntity
67
0
8
0
6
ByBlock
62
0
370
-2
100
AcDbSpline
70
0
71
3
72
8
73
4
74
0
40
0
40
0
40
0
40
0
40
1
40
1
40
1
40
1
10
33.5748
20
4.89643
30
0
10
34.628
20
5.1492
30
0
10
35.6602
20
5.17027
30
0
10
36.2921
20
5.17027
30
0
0
SPLINE
5
A7
100
AcDbEntity
67
0
8
0
6
ByBlock
62
0
370
-2
100
AcDbSpline
70
0
71
3
72
82
73
78
74
0
40
0
40
0
40
0
40
0
40
1
40
2
40
3
40
4
40
5
40
6
40
7
40
8
40
9
40
10
40
11
40
12
40
13
40
14
40
15
40
16
40
17
40
18
40
19
40
20
40
21
40
22
40
23
40
24
40
25
40
26
40
27
40
28
40
29
40
30
40
31
40
32
40
33
40
34
40
35
40
36
40
37
40
38
40
39
40
40
40
41
40
42
40
43
40
44
40
45
40
46
40
47
40
48
40
49
40
50
40
51
40
52
40
53
40
54
40
55
40
56
40
57
40
58
40
59
40
60
40
61
40
62
40
63
40
64
40
65
40
66
40
67
40
68
40
69
40
70
40
71
40
72
40
73
40
74
40
75
40
75
40
75
40
75
10
40.9648
20
9.67515
30
0
10
37.6384
20
5.25864
30
0
10
37.6384
20
5.25864
30
0
10
37.6384
20
5.25864
30
0
10
38.7565
20
6.29289
30
0
10
39.2317
20
6.12517
30
0
10
39.5112
20
4.75549
30
0
10
40.4057
20
4.36416
30
0
10
41.8033
20
5.09092
30
0
10
42.3065
20
6.48855
30
0
10
42.1667
20
8.0539
30
0
10
41.2722
20
8.80862
30
0
10
39.5112
20
9.36767
30
0
10
37.7223
20
9.36767
30
0
10
35.8774
20
9.08814
30
0
10
35.9613
20
8.41728
30
0
10
37.4707
20
8.24957
30
0
10
40.4337
20
7.99799
30
0
10
43.7321
20
7.63461
30
0
10
44.2352
20
7.27123
30
0
10
43.7041
20
6.29289
30
0
10
42.8935
20
5.3425
30
0
10
43.1451
20
5.03502
30
0
10
44.6266
20
5.3425
30
0
10
46.2199
20
7.10351
30
0
10
46.108
20
7.04761
30
0
10
44.962
20
5.48226
30
0
10
45.2695
20
4.97911
30
0
10
46.3876
20
5.20273
30
0
10
47.5616
20
6.48855
30
0
10
48.2883
20
6.60036
30
0
10
48.6517
20
6.51651
30
0
10
47.897
20
5.09092
30
0
10
47.897
20
5.09092
30
0
10
48.7356
20
5.84564
30
0
10
49.9375
20
6.54446
30
0
10
50.6643
20
6.43265
30
0
10
50.7761
20
5.84564
30
0
10
50.1891
20
5.09092
30
0
10
50.1891
20
5.09092
30
0
10
50.8985
20
6.03388
30
0
10
51.7933
20
6.28714
30
0
10
51.9115
20
6.03388
30
0
10
51.7933
20
5.3923
30
0
10
51.9284
20
5.30789
30
0
10
53.8988
20
6.67787
30
0
10
53.8518
20
6.5524
30
0
10
53.4597
20
5.92507
30
0
10
53.6165
20
5.06248
30
0
10
54.1027
20
4.96838
30
0
10
54.4164
20
5.83097
30
0
10
54.3536
20
6.74061
30
0
10
53.789
20
6.58377
30
0
10
53.8047
20
6.05053
30
0
10
54.5628
20
6.51972
30
0
10
56.5332
20
6.51972
30
0
10
56.6915
20
6.23824
30
0
10
55.5656
20
5.23546
30
0
10
55.8889
20
5.09905
30
0
10
57.3781
20
5.8089
30
0
10
58.0014
20
6.06554
30
0
10
58.0747
20
5.90055
30
0
10
57.5615
20
5.18563
30
0
10
57.9831
20
4.98398
30
0
10
59.8572
20
5.34128
30
0
10
63.0135
20
7.9111
30
0
10
65.1217
20
10.6122
30
0
10
65.1217
20
10.6122
30
0
10
64.7264
20
10.7439
30
0
10
61.4324
20
4.48534
30
0
10
61.4324
20
4.48534
30
0
10
61.4324
20
4.48534
30
0
10
61.4349
20
5.53442
30
0
10
59.3658
20
6.94377
30
0
10
58.6461
20
8.17321
30
0
10
61.9179
20
8.16224
30
0
10
69.6543
20
8.2103
30
0
10
72.105
20
7.82588
30
0
0
ENDBLK
5
A8
330
9F
100
AcDbEntity
8
0
100
AcDbBlockEnd
0
ENDSEC
0
SECTION
2
ENTITIES
0
IMAGE
5
2F
100
AcDbEntity
67
0
8
0
6
ByLayer
62
256
370
-1
100
AcDbRasterImage
90
0
10
0.103776
20
-73.7506
30
0
11
0.155914
21
0
31
0
12
0
22
0.155914
32
0
13
1605
23
1117
340
2E
70
3
0
LINE
5
30
100
AcDbEntity
67
0
8
aux
6
ByLayer
62
256
370
-1
100
AcDbLine
10
13.4928
20
9.34782
30
0
11
23.4928
21
9.34782
31
0
0
LINE
5
31
100
AcDbEntity
67
0
8
aux
6
ByLayer
62
256
370
-1
100
AcDbLine
10
23.4928
20
9.34782
30
0
11
242.493
21
9.34782
31
0
0
LINE
5
32
100
AcDbEntity
67
0
8
aux
6
ByLayer
62
256
370
-1
100
AcDbLine
10
23.4318
20
19.8661
30
0
11
62.6818
21
19.8661
31
0
0
LINE
5
33
100
AcDbEntity
67
0
8
aux
6
ByLayer
62
2
370
-1
100
AcDbLine
10
62.6818
20
19.8661
30
0
11
98.1818
21
19.8661
31
0
0
LINE
5
34
100
AcDbEntity
67
0
8
aux
6
ByLayer
62
256
370
-1
100
AcDbLine
10
98.1818
20
19.8661
30
0
11
133.182
21
19.8661
31
0
0
LINE
5
35
100
AcDbEntity
67
0
8
aux
6
ByLayer
62
2
370
-1
100
AcDbLine
10
133.182
20
19.8661
30
0
11
168.682
21
19.8661
31
0
0
LINE
5
36
100
AcDbEntity
67
0
8
aux
6
ByLayer
62
256
370
-1
100
AcDbLine
10
168.682
20
19.8661
30
0
11
197.682
21
19.8661
31
0
0
LINE
5
37
100
AcDbEntity
67
0
8
aux
6
ByLayer
62
2
370
-1
100
AcDbLine
10
197.682
20
19.8661
30
0
11
199.682
21
19.8661
31
0
0
LINE
5
38
100
AcDbEntity
67
0
8
aux
6
ByLayer
62
256
370
-1
100
AcDbLine
10
199.682
20
19.8661
30
0
11
242.432
21
19.8661
31
0
0
CIRCLE
5
3F
100
AcDbEntity
67
0
8
wheel
6
ByLayer
62
256
370
-1
100
AcDbCircle
10
23.4318
20
23.4293
30
0
40
10
0
CIRCLE
5
40
100
AcDbEntity
67
0
8
wheel
6
ByLayer
62
256
370
-1
100
AcDbCircle
10
23.4318
20
23.4293
30
0
40
8.5
0
CIRCLE
5
41
100
AcDbEntity
67
0
8
wheel
6
ByLayer
62
256
370
-1
100
AcDbCircle
10
23.4318
20
23.4293
30
0
40
0.8
0
LINE
5
42
100
AcDbEntity
67
0
8
wheel
6
ByLayer
62
256
370
-1
100
AcDbLine
10
22.6318
20
23.4293
30
0
11
14.9318
21
23.4293
31
0
0
LINE
5
43
100
AcDbEntity
67
0
8
wheel
6
ByLayer
62
256
370
-1
100
AcDbLine
10
22.6493
20
23.2629
30
0
11
15.1175
21
21.662
31
0
0
LINE
5
44
100
AcDbEntity
67
0
8
wheel
6
ByLayer
62
256
370
-1
100
AcDbLine
10
22.701
20
23.1039
30
0
11
15.6667
21
19.972
31
0
0
LINE
5
45
100
AcDbEntity
67
0
8
wheel
6
ByLayer
62
256
370
-1
100
AcDbLine
10
22.7846
20
22.959
30
0
11
16.5552
21
18.4331
31
0
0
LINE
5
46
100
AcDbEntity
67
0
8
wheel
6
ByLayer
62
256
370
-1
100
AcDbLine
10
22.8965
20
22.8347
30
0
11
17.7442
21
17.1125
31
0
0
LINE
5
47
100
AcDbEntity
67
0
8
wheel
6
ByLayer
62
256
370
-1
100
AcDbLine
10
23.0318
20
22.7364
30
0
11
19.1818
21
16.068
31
0
0
LINE
5
48
100
AcDbEntity
67
0
8
wheel
6
ByLayer
62
256
370
-1
100
AcDbLine
10
23.1846
20
22.6684
30
0
11
20.8052
21
15.3453
31
0
0
LINE
5
49
100
AcDbEntity
67
0
8
wheel
6
ByLayer
62
256
370
-1
100
AcDbLine
10
23.3482
20
22.6336
30
0
11
22.5433
21
14.9758
31
0
0
LINE
5
4A
100
AcDbEntity
67
0
8
wheel
6
ByLayer
62
256
370
-1
100
AcDbLine
10
23.5154
20
22.6336
30
0
11
24.3203
21
14.9758
31
0
0
LINE
5
4B
100
AcDbEntity
67
0
8
wheel
6
ByLayer
62
256
370
-1
100
AcDbLine
10
23.679
20
22.6684
30
0
11
26.0584
21
15.3453
31
0
0
LINE
5
4C
100
AcDbEntity
67
0
8
wheel
6
ByLayer
62
256
370
-1
100
AcDbLine
10
23.8318
20
22.7364
30
0
11
27.6818
21
16.068
31
0
0
LINE
5
4D
100
AcDbEntity
67
0
8
wheel
6
ByLayer
62
256
370
-1
100
AcDbLine
10
23.9671
20
22.8347
30
0
11
29.1194
21
17.1125
31
0
0
LINE
5
4E
100
AcDbEntity
67
0
8
wheel
6
ByLayer
62
256
370
-1
100
AcDbLine
10
24.079
20
22.959
30
0
11
30.3084
21
18.4331
31
0
0
LINE
5
4F
100
AcDbEntity
67
0
8
wheel
6
ByLayer
62
256
370
-1
100
AcDbLine
10
24.1626
20
23.1039
30
0
11
31.1969
21
19.972
31
0
0
LINE
5
50
100
AcDbEntity
67
0
8
wheel
6
ByLayer
62
256
370
-1
100
AcDbLine
10
24.2143
20
23.2629
30
0
11
31.7461
21
21.662
31
0
0
LINE
5
51
100
AcDbEntity
67
0
8
wheel
6
ByLayer
62
256
370
-1
100
AcDbLine
10
24.2318
20
23.4293
30
0
11
31.9318
21
23.4293
31
0
0
LINE
5
52
100
AcDbEntity
67
0
8
wheel
6
ByLayer
62
256
370
-1
100
AcDbLine
10
24.2143
20
23.5956
30
0
11
31.7461
21
25.1965
31
0
0
LINE
5
53
100
AcDbEntity
67
0
8
wheel
6
ByLayer
62
256
370
-1
100
AcDbLine
10
24.1626
20
23.7547
30
0
11
31.1969
21
26.8865
31
0
0
LINE
5
54
100
AcDbEntity
67
0
8
wheel
6
ByLayer
62
256
370
-1
100
AcDbLine
10
24.079
20
23.8995
30
0
11
30.3084
21
28.4254
31
0
0
LINE
5
55
100
AcDbEntity
67
0
8
wheel
6
ByLayer
62
256
370
-1
100
AcDbLine
10
23.9671
20
24.0238
30
0
11
29.1194
21
29.746
31
0
0
LINE
5
56
100
AcDbEntity
67
0
8
wheel
6
ByLayer
62
256
370
-1
100
AcDbLine
10
23.8318
20
24.1221
30
0
11
27.6818
21
30.7905
31
0
0
LINE
5
57
100
AcDbEntity
67
0
8
wheel
6
ByLayer
62
256
370
-1
100
AcDbLine
10
23.679
20
24.1901
30
0
11
26.0584
21
31.5132
31
0
0
LINE
5
58
100
AcDbEntity
67
0
8
wheel
6
ByLayer
62
256
370
-1
100
AcDbLine
10
23.5154
20
24.2249
30
0
11
24.3203
21
31.8827
31
0
0
LINE
5
59
100
AcDbEntity
67
0
8
wheel
6
ByLayer
62
256
370
-1
100
AcDbLine
10
23.3482
20
24.2249
30
0
11
22.5433
21
31.8827
31
0
0
LINE
5
5A
100
AcDbEntity
67
0
8
wheel
6
ByLayer
62
256
370
-1
100
AcDbLine
10
23.1846
20
24.1901
30
0
11
20.8052
21
31.5132
31
0
0
LINE
5
5B
100
AcDbEntity
67
0
8
wheel
6
ByLayer
62
256
370
-1
100
AcDbLine
10
23.0318
20
24.1221
30
0
11
19.1818
21
30.7905
31
0
0
LINE
5
5C
100
AcDbEntity
67
0
8
wheel
6
ByLayer
62
256
370
-1
100
AcDbLine
10
22.8965
20
24.0238
30
0
11
17.7442
21
29.746
31
0
0
LINE
5
5D
100
AcDbEntity
67
0
8
wheel
6
ByLayer
62
256
370
-1
100
AcDbLine
10
22.7846
20
23.8995
30
0
11
16.5552
21
28.4254
31
0
0
LINE
5
5E
100
AcDbEntity
67
0
8
wheel
6
ByLayer
62
256
370
-1
100
AcDbLine
10
22.701
20
23.7547
30
0
11
15.6667
21
26.8865
31
0
0
LINE
5
5F
100
AcDbEntity
67
0
8
wheel
6
ByLayer
62
256
370
-1
100
AcDbLine
10
22.6493
20
23.5956
30
0
11
15.1175
21
25.1965
31
0
0
LINE
5
60
100
AcDbEntity
67
0
8
propeler
6
ByLayer
62
256
370
-1
100
AcDbLine
10
2.45585
20
70.3158
30
0
11
12.472
21
70.3158
31
0
0
LWPOLYLINE
5
61
100
AcDbEntity
67
0
8
propeler
6
ByLayer
62
256
370
-1
100
AcDbPolyline
90
11
70
0
10
12.472
20
70.3158
30
0
42
0
10
12.472
20
65.3222
30
0
42
0.1
10
11.5411
20
62.064
30
0
42
0
10
11.9339
20
27.902
30
0
42
-0.8
10
8.10022
20
27.902
30
0
42
-0.1
10
7.38935
20
32.4719
30
0
42
-0.05
10
7.38935
20
40.6398
30
0
42
-0.02
10
9.53287
20
61.9158
30
0
42
0.1
10
9.22996
20
65.2781
30
0
42
0.1
10
8.47267
20
66.2475
30
0
42
0
10
8.47267
20
70.3158
30
0
0
LWPOLYLINE
5
62
100
AcDbEntity
67
0
8
propeler
6
ByLayer
62
256
370
-1
100
AcDbPolyline
90
11
70
0
10
8.47267
20
70.3158
30
0
42
0
10
8.47267
20
75.3095
30
0
42
0.1
10
9.40356
20
78.5676
30
0
42
0
10
9.01081
20
112.73
30
0
42
-0.8
10
12.8445
20
112.73
30
0
42
-0.1
10
13.5553
20
108.16
30
0
42
-0.05
10
13.5553
20
99.9918
30
0
42
-0.02
10
11.4118
20
78.7159
30
0
42
0.1
10
11.7147
20
75.3535
30
0
42
0.1
10
12.472
20
74.3842
30
0
42
0
10
12.472
20
70.3158
30
0
0
LINE
5
67
100
AcDbEntity
67
0
8
ground
6
ByLayer
62
256
370
-1
100
AcDbLine
10
7.98333
20
13.4293
30
0
11
237.139
21
13.4293
31
0
0
HATCH
5
69
100
AcDbEntity
67
0
8
ground
6
ByLayer
62
256
370
-1
100
AcDbHatch
10
0
20
0
30
0
210
0
220
0
230
1
2
USER_DEF
70
0
71
0
91
1
92
0
93
4
72
1
10
7.98333
20
13.4293
11
7.98333
21
12.1099
72
1
10
7.98333
20
12.1099
11
237.139
21
12.1099
72
1
10
237.139
20
12.1099
11
237.139
21
13.4293
72
1
10
237.139
20
13.4293
11
7.98333
21
13.4293
97
0
75
0
76
0
52
0
41
1
77
0
78
1
53
45
43
0
44
0
45
-0.565685
46
0.565685
79
0
98
0
0
LINE
5
6A
100
AcDbEntity
67
0
8
ground
6
ByLayer
62
256
370
-1
100
AcDbLine
10
61.5323
20
-63.2127
30
0
11
183.082
21
-63.2127
31
0
0
HATCH
5
6B
100
AcDbEntity
67
0
8
ground
6
ByLayer
62
256
370
-1
100
AcDbHatch
10
0
20
0
30
0
210
0
220
0
230
1
2
USER_DEF
70
0
71
0
91
1
92
0
93
4
72
1
10
61.5323
20
-63.2127
11
61.5323
21
-64.4522
72
1
10
61.5323
20
-64.4522
11
183.082
21
-64.4522
72
1
10
183.082
20
-64.4522
11
183.082
21
-63.2127
72
1
10
183.082
20
-63.2127
11
61.5323
21
-63.2127
97
0
75
0
76
0
52
0
41
1
77
0
78
1
53
45
43
0
44
0
45
-0.565685
46
0.565685
79
0
98
0
0
LINE
5
6C
100
AcDbEntity
67
0
8
aux
6
ByLayer
62
256
370
-1
100
AcDbLine
10
9.30161
20
13.4293
30
0
11
9.30161
21
67.9293
31
0
0
LINE
5
6D
100
AcDbEntity
67
0
8
aux
6
ByLayer
62
256
370
-1
100
AcDbLine
10
14.6146
20
13.4293
30
0
11
14.6146
21
61.4293
31
0
0
LINE
5
6E
100
AcDbEntity
67
0
8
aux
6
ByLayer
62
256
370
-1
100
AcDbLine
10
3.40655
20
67.9293
30
0
11
15.4065
21
67.9293
31
0
0
LINE
5
6F
100
AcDbEntity
67
0
8
aux
6
ByLayer
62
256
370
-1
100
AcDbLine
10
15.4065
20
67.9293
30
0
11
82.4065
21
67.9293
31
0
0
LINE
5
70
100
AcDbEntity
67
0
8
aux
6
ByLayer
62
256
370
-1
100
AcDbLine
10
82.4065
20
57.9797
30
0
11
82.4065
21
42.9797
31
0
0
LWPOLYLINE
5
71
100
AcDbEntity
67
0
8
wing
6
ByLayer
62
256
370
-1
100
AcDbPolyline
90
2
70
0
10
3.40655
20
67.9293
30
0
42
-0.1
10
82.4065
20
54.0615
30
0
0
LINE
5
72
100
AcDbEntity
67
0
8
aux
6
ByLayer
62
256
370
-1
100
AcDbLine
10
3.40655
20
61.4293
30
0
11
15.4065
21
61.4293
31
0
0
LWPOLYLINE
5
73
100
AcDbEntity
67
0
8
wing
6
ByLayer
62
256
370
-1
100
AcDbPolyline
90
2
70
0
10
14.6146
20
61.4293
30
0
42
-0.1
10
82.4065
20
42.9797
30
0
0
LWPOLYLINE
5
74
100
AcDbEntity
67
0
8
wing
6
ByLayer
62
256
370
-1
100
AcDbPolyline
90
2
70
0
10
3.40655
20
66.9293
30
0
42
-0.1
10
82.4065
20
53.0615
30
0
0
LWPOLYLINE
5
75
100
AcDbEntity
67
0
8
wing
6
ByLayer
62
256
370
-1
100
AcDbPolyline
90
2
70
0
10
3.40655
20
65.9293
30
0
42
-0.1
10
82.4065
20
52.0615
30
0
0
LINE
5
7A
100
AcDbEntity
67
0
8
aux
6
ByLayer
62
256
370
-1
100
AcDbLine
10
14.6146
20
61.4293
30
0
11
14.6146
21
62.4293
31
0
0
LINE
5
7B
100
AcDbEntity
67
0
8
aux
6
ByLayer
62
256
370
-1
100
AcDbLine
10
14.6146
20
62.4293
30
0
11
14.6146
21
63.4293
31
0
0
LINE
5
7C
100
AcDbEntity
67
0
8
aux
6
ByLayer
62
256
370
-1
100
AcDbLine
10
14.6146
20
63.4293
30
0
11
14.6146
21
64.734
31
0
0
LWPOLYLINE
5
7D
100
AcDbEntity
67
0
8
wing
6
ByLayer
62
256
370
-1
100
AcDbPolyline
90
2
70
0
10
14.6146
20
62.4293
30
0
42
-0.1
10
82.4065
20
45.5962
30
0
0
LWPOLYLINE
5
7E
100
AcDbEntity
67
0
8
wing
6
ByLayer
62
256
370
-1
100
AcDbPolyline
90
2
70
0
10
14.6146
20
63.4293
30
0
42
-0.1
10
82.4065
20
48.1829
30
0
0
LWPOLYLINE
5
7F
100
AcDbEntity
67
0
8
wing
6
ByLayer
62
256
370
-1
100
AcDbPolyline
90
2
70
0
10
14.6146
20
64.734
30
0
42
-0.1
10
82.4065
20
50.1343
30
0
0
LINE
5
81
100
AcDbEntity
67
0
8
wing
6
ByLayer
62
256
370
-1
100
AcDbLine
10
3.40655
20
65.9293
30
0
11
3.40655
21
67.9293
31
0
0
LINE
5
82
100
AcDbEntity
67
0
8
wing
6
ByLayer
62
256
370
-1
100
AcDbLine
10
14.6146
20
61.4293
30
0
11
14.6146
21
64.734
31
0
0
LINE
5
84
100
AcDbEntity
67
0
8
wing
6
ByLayer
62
256
370
-1
100
AcDbLine
10
14.6146
20
64.734
30
0
11
14.6146
21
65.9056
31
0
0
LINE
5
85
100
AcDbEntity
67
0
8
wing
6
ByLayer
62
256
370
-1
100
AcDbLine
10
82.4065
20
42.9797
30
0
11
82.4065
21
54.0615
31
0
0
IMAGE
5
89
100
AcDbEntity
67
0
8
wing
6
ByLayer
62
256
370
-1
100
AcDbRasterImage
90
0
10
50.8547
20
-127.209
30
0
11
0.104908
21
0
31
0
12
0
22
0.104908
32
0
13
350
23
386
340
88
70
3
0
INSERT
5
A9
100
AcDbEntity
67
0
8
0
6
ByLayer
62
2
370
-2
100
AcDbBlockReference
66
0
2
sd_sig
10
96.6094
20
-92.2896
30
0
41
1
42
1
43
1
50
0
0
IMAGE
5
AB
100
AcDbEntity
67
0
8
0
6
ByLayer
62
256
370
-1
100
AcDbRasterImage
90
0
10
617.413
20
-75.4422
30
0
11
0.198457
21
-0.00258913
31
0
12
0.00258913
22
0.198457
32
0
13
1093
23
461
340
AA
70
3
0
LINE
5
AC
100
AcDbEntity
67
0
8
aux
6
ByLayer
62
256
370
-1
100
AcDbLine
10
633.054
20
-55.0389
30
0
11
672.304
21
-55.0389
31
0
0
LINE
5
AE
100
AcDbEntity
67
0
8
aux
6
ByLayer
62
2
370
-1
100
AcDbLine
10
672.304
20
-55.0389
30
0
11
707.804
21
-55.0389
31
0
0
LINE
5
AF
100
AcDbEntity
67
0
8
aux
6
ByLayer
62
256
370
-1
100
AcDbLine
10
707.804
20
-55.0389
30
0
11
742.804
21
-55.0389
31
0
0
LINE
5
B0
100
AcDbEntity
67
0
8
aux
6
ByLayer
62
2
370
-1
100
AcDbLine
10
742.804
20
-55.0389
30
0
11
778.304
21
-55.0389
31
0
0
LINE
5
B1
100
AcDbEntity
67
0
8
aux
6
ByLayer
62
256
370
-1
100
AcDbLine
10
778.304
20
-55.0389
30
0
11
807.304
21
-55.0389
31
0
0
LINE
5
B2
100
AcDbEntity
67
0
8
aux
6
ByLayer
62
256
370
-1
100
AcDbLine
10
181.615
20
45.515
30
0
11
181.615
21
63.015
31
0
0
LINE
5
B3
100
AcDbEntity
67
0
8
aux
6
ByLayer
62
2
370
-1
100
AcDbLine
10
170.019
20
38.2792
30
0
11
170.019
21
52.2792
31
0
0
LINE
5
B4
100
AcDbEntity
67
0
8
aux
6
ByLayer
62
256
370
-1
100
AcDbLine
10
170.019
20
38.2792
30
0
11
170.019
21
13.2792
31
0
0
LINE
5
B5
100
AcDbEntity
67
0
8
aux
6
ByLayer
62
256
370
-1
100
AcDbLine
10
170.019
20
52.2792
30
0
11
170.019
21
75.2792
31
0
0
LINE
5
B6
100
AcDbEntity
67
0
8
aux
6
ByLayer
62
256
370
-1
100
AcDbLine
10
778.304
20
-23.9646
30
0
11
778.304
21
-0.964572
31
0
0
LINE
5
B7
100
AcDbEntity
67
0
8
aux
6
ByLayer
62
256
370
-1
100
AcDbLine
10
778.304
20
-37.9646
30
0
11
778.304
21
-62.9646
31
0
0
LINE
5
B8
100
AcDbEntity
67
0
8
aux
6
ByLayer
62
2
370
-1
100
AcDbLine
10
778.304
20
-37.9646
30
0
11
778.304
21
-23.9646
31
0
0
CIRCLE
5
B9
100
AcDbEntity
67
0
8
aux
6
Continuous
62
256
370
-1
100
AcDbCircle
10
633.054
20
-52.1323
30
0
40
0.75
0
LINE
5
BD
100
AcDbEntity
67
0
8
aux
6
ByLayer
62
256
370
-1
100
AcDbLine
10
633.804
20
-52.1323
30
0
11
807.304
21
-35.1212
31
0
0
LINE
5
BF
100
AcDbEntity
67
0
8
aux
6
ByLayer
62
256
370
-1
100
AcDbLine
10
633.054
20
-14.3823
30
0
11
633.054
21
-51.3823
31
0
0
LINE
5
C0
100
AcDbEntity
67
0
8
aux
6
ByLayer
62
256
370
-1
100
AcDbLine
10
807.304
20
-25.8777
30
0
11
633.054
21
-14.3823
31
0
0
LINE
5
C4
100
AcDbEntity
67
0
8
aux
6
ByLayer
62
256
370
-1
100
AcDbLine
10
672.304
20
-55.0389
30
0
11
672.304
21
-7.41292
31
0
0
LINE
5
C5
100
AcDbEntity
67
0
8
aux
6
ByLayer
62
256
370
-1
100
AcDbLine
10
707.804
20
-55.0389
30
0
11
707.804
21
-11.6013
31
0
0
LINE
5
C6
100
AcDbEntity
67
0
8
aux
6
ByLayer
62
256
370
-1
100
AcDbLine
10
742.804
20
-55.0389
30
0
11
742.804
21
-10.4991
31
0
0
LINE
5
C7
100
AcDbEntity
67
0
8
aux
6
ByLayer
62
256
370
-1
100
AcDbLine
10
807.304
20
-55.0389
30
0
11
807.304
21
-11.1619
31
0
0
LINE
5
CB
100
AcDbEntity
67
0
8
aux
6
ByLayer
62
256
370
-1
100
AcDbLine
10
807.304
20
-21.333
30
0
11
752.423
21
-17.7125
31
0
0
LINE
5
CC
100
AcDbEntity
67
0
8
aux
6
ByLayer
62
2
370
-1
100
AcDbLine
10
752.423
20
-17.7125
30
0
11
695.048
21
-13.9274
31
0
0
LINE
5
CD
100
AcDbEntity
67
0
8
aux
6
ByLayer
62
256
370
-1
100
AcDbLine
10
695.048
20
-13.9274
30
0
11
626.198
21
-9.38529
31
0
0
LINE
5
CE
100
AcDbEntity
67
0
8
aux
6
ByLayer
62
2
370
-1
100
AcDbLine
10
633.054
20
-14.3823
30
0
11
626.064
21
-14.0024
31
0
0
LINE
5
CF
100
AcDbEntity
67
0
8
aux
6
ByLayer
62
2
370
-1
100
AcDbLine
10
633.054
20
-51.3823
30
0
11
626.064
21
-14.0024
31
0
0
LINE
5
D0
100
AcDbEntity
67
0
8
aux
6
ByLayer
62
2
370
-1
100
AcDbLine
10
626.064
20
-14.0024
30
0
11
626.248
21
-7.50496
31
0
0
CIRCLE
5
D7
100
AcDbEntity
67
0
8
aux
6
Continuous
62
256
370
-1
100
AcDbCircle
10
807.304
20
-35.1212
30
0
40
0.75
0
CIRCLE
5
D8
100
AcDbEntity
67
0
8
aux
6
Continuous
62
256
370
-1
100
AcDbCircle
10
807.304
20
-25.8777
30
0
40
0.75
0
CIRCLE
5
DE
100
AcDbEntity
67
0
8
aux
6
Continuous
62
256
370
-1
100
AcDbCircle
10
626.064
20
-14.0024
30
0
40
0.75
0
CIRCLE
5
DF
100
AcDbEntity
67
0
8
aux
6
Continuous
62
256
370
-1
100
AcDbCircle
10
626.248
20
-7.50496
30
0
40
0.75
0
LINE
5
E1
100
AcDbEntity
67
0
8
aux
6
Continuous
62
256
370
-1
100
AcDbLine
10
807.304
20
-34.3712
30
0
11
633.054
21
-51.3823
31
0
0
LINE
5
E2
100
AcDbEntity
67
0
8
aux
6
Continuous
62
256
370
-1
100
AcDbLine
10
633.054
20
-52.8823
30
0
11
807.304
21
-35.8712
31
0
0
LINE
5
E3
100
AcDbEntity
67
0
8
aux
6
Continuous
62
256
370
-1
100
AcDbLine
10
807.304
20
-26.6277
30
0
11
626.064
21
-14.7524
31
0
0
LINE
5
E4
100
AcDbEntity
67
0
8
aux
6
Continuous
62
256
370
-1
100
AcDbLine
10
626.064
20
-13.2524
30
0
11
807.304
21
-25.1277
31
0
0
LINE
5
F9
100
AcDbEntity
67
0
8
aux
6
Continuous
62
256
370
-1
100
AcDbLine
10
808.054
20
-35.1212
30
0
11
808.054
21
-25.8777
31
0
0
CIRCLE
5
109
100
AcDbEntity
67
0
8
wheel
6
ByLayer
62
256
370
-1
100
AcDbCircle
10
255.484
20
-53.2127
30
0
40
10
0
CIRCLE
5
10A
100
AcDbEntity
67
0
8
wheel
6
ByLayer
62
256
370
-1
100
AcDbCircle
10
255.484
20
-53.2127
30
0
40
8.5
0
CIRCLE
5
10B
100
AcDbEntity
67
0
8
wheel
6
ByLayer
62
256
370
-1
100
AcDbCircle
10
255.484
20
-53.2127
30
0
40
0.8
0
LINE
5
10C
100
AcDbEntity
67
0
8
wheel
6
ByLayer
62
256
370
-1
100
AcDbLine
10
254.684
20
-53.2127
30
0
11
246.984
21
-53.2127
31
0
0
LINE
5
10D
100
AcDbEntity
67
0
8
wheel
6
ByLayer
62
256
370
-1
100
AcDbLine
10
254.701
20
-53.3791
30
0
11
247.17
21
-54.98
31
0
0
LINE
5
10E
100
AcDbEntity
67
0
8
wheel
6
ByLayer
62
256
370
-1
100
AcDbLine
10
254.753
20
-53.5381
30
0
11
247.719
21
-56.67
31
0
0
LINE
5
10F
100
AcDbEntity
67
0
8
wheel
6
ByLayer
62
256
370
-1
100
AcDbLine
10
254.837
20
-53.683
30
0
11
248.607
21
-58.2089
31
0
0
LINE
5
110
100
AcDbEntity
67
0
8
wheel
6
ByLayer
62
256
370
-1
100
AcDbLine
10
254.949
20
-53.8073
30
0
11
249.796
21
-59.5295
31
0
0
LINE
5
111
100
AcDbEntity
67
0
8
wheel
6
ByLayer
62
256
370
-1
100
AcDbLine
10
255.084
20
-53.9056
30
0
11
251.234
21
-60.574
31
0
0
LINE
5
112
100
AcDbEntity
67
0
8
wheel
6
ByLayer
62
256
370
-1
100
AcDbLine
10
255.237
20
-53.9736
30
0
11
252.857
21
-61.2967
31
0
0
LINE
5
113
100
AcDbEntity
67
0
8
wheel
6
ByLayer
62
256
370
-1
100
AcDbLine
10
255.4
20
-54.0084
30
0
11
254.595
21
-61.6662
31
0
0
LINE
5
114
100
AcDbEntity
67
0
8
wheel
6
ByLayer
62
256
370
-1
100
AcDbLine
10
255.568
20
-54.0084
30
0
11
256.372
21
-61.6662
31
0
0
LINE
5
115
100
AcDbEntity
67
0
8
wheel
6
ByLayer
62
256
370
-1
100
AcDbLine
10
255.731
20
-53.9736
30
0
11
258.111
21
-61.2967
31
0
0
LINE
5
116
100
AcDbEntity
67
0
8
wheel
6
ByLayer
62
256
370
-1
100
AcDbLine
10
255.884
20
-53.9056
30
0
11
259.734
21
-60.574
31
0
0
LINE
5
117
100
AcDbEntity
67
0
8
wheel
6
ByLayer
62
256
370
-1
100
AcDbLine
10
256.019
20
-53.8073
30
0
11
261.172
21
-59.5295
31
0
0
LINE
5
118
100
AcDbEntity
67
0
8
wheel
6
ByLayer
62
256
370
-1
100
AcDbLine
10
256.131
20
-53.683
30
0
11
262.361
21
-58.2089
31
0
0
LINE
5
119
100
AcDbEntity
67
0
8
wheel
6
ByLayer
62
256
370
-1
100
AcDbLine
10
256.215
20
-53.5381
30
0
11
263.249
21
-56.67
31
0
0
LINE
5
11A
100
AcDbEntity
67
0
8
wheel
6
ByLayer
62
256
370
-1
100
AcDbLine
10
256.266
20
-53.3791
30
0
11
263.798
21
-54.98
31
0
0
LINE
5
11B
100
AcDbEntity
67
0
8
wheel
6
ByLayer
62
256
370
-1
100
AcDbLine
10
256.284
20
-53.2127
30
0
11
263.984
21
-53.2127
31
0
0
LINE
5
11C
100
AcDbEntity
67
0
8
wheel
6
ByLayer
62
256
370
-1
100
AcDbLine
10
256.266
20
-53.0464
30
0
11
263.798
21
-51.4455
31
0
0
LINE
5
11D
100
AcDbEntity
67
0
8
wheel
6
ByLayer
62
256
370
-1
100
AcDbLine
10
256.215
20
-52.8873
30
0
11
263.249
21
-49.7555
31
0
0
LINE
5
11E
100
AcDbEntity
67
0
8
wheel
6
ByLayer
62
256
370
-1
100
AcDbLine
10
256.131
20
-52.7425
30
0
11
262.361
21
-48.2166
31
0
0
LINE
5
11F
100
AcDbEntity
67
0
8
wheel
6
ByLayer
62
256
370
-1
100
AcDbLine
10
256.019
20
-52.6182
30
0
11
261.172
21
-46.896
31
0
0
LINE
5
120
100
AcDbEntity
67
0
8
wheel
6
ByLayer
62
256
370
-1
100
AcDbLine
10
255.884
20
-52.5199
30
0
11
259.734
21
-45.8515
31
0
0
LINE
5
121
100
AcDbEntity
67
0
8
wheel
6
ByLayer
62
256
370
-1
100
AcDbLine
10
255.731
20
-52.4519
30
0
11
258.111
21
-45.1288
31
0
0
LINE
5
122
100
AcDbEntity
67
0
8
wheel
6
ByLayer
62
256
370
-1
100
AcDbLine
10
255.568
20
-52.4171
30
0
11
256.372
21
-44.7593
31
0
0
LINE
5
123
100
AcDbEntity
67
0
8
wheel
6
ByLayer
62
256
370
-1
100
AcDbLine
10
255.4
20
-52.4171
30
0
11
254.595
21
-44.7593
31
0
0
LINE
5
124
100
AcDbEntity
67
0
8
wheel
6
ByLayer
62
256
370
-1
100
AcDbLine
10
255.237
20
-52.4519
30
0
11
252.857
21
-45.1288
31
0
0
LINE
5
125
100
AcDbEntity
67
0
8
wheel
6
ByLayer
62
256
370
-1
100
AcDbLine
10
255.084
20
-52.5199
30
0
11
251.234
21
-45.8515
31
0
0
LINE
5
126
100
AcDbEntity
67
0
8
wheel
6
ByLayer
62
256
370
-1
100
AcDbLine
10
254.949
20
-52.6182
30
0
11
249.796
21
-46.896
31
0
0
LINE
5
127
100
AcDbEntity
67
0
8
wheel
6
ByLayer
62
256
370
-1
100
AcDbLine
10
254.837
20
-52.7425
30
0
11
248.607
21
-48.2166
31
0
0
LINE
5
128
100
AcDbEntity
67
0
8
wheel
6
ByLayer
62
256
370
-1
100
AcDbLine
10
254.753
20
-52.8873
30
0
11
247.719
21
-49.7555
31
0
0
LINE
5
129
100
AcDbEntity
67
0
8
wheel
6
ByLayer
62
256
370
-1
100
AcDbLine
10
254.701
20
-53.0464
30
0
11
247.17
21
-51.4455
31
0
0
LINE
5
12A
100
AcDbEntity
67
0
8
propeler
6
ByLayer
62
256
370
-1
100
AcDbLine
10
234.508
20
-6.3262
30
0
11
244.524
21
-6.3262
31
0
0
LWPOLYLINE
5
12B
100
AcDbEntity
67
0
8
propeler
6
ByLayer
62
256
370
-1
100
AcDbPolyline
90
11
70
0
10
244.524
20
-6.3262
30
0
42
0
10
244.524
20
-11.3198
30
0
42
0.1
10
243.593
20
-14.578
30
0
42
0
10
243.986
20
-48.74
30
0
42
-0.8
10
240.152
20
-48.74
30
0
42
-0.1
10
239.441
20
-44.1701
30
0
42
-0.05
10
239.441
20
-36.0022
30
0
42
-0.02
10
241.585
20
-14.7262
30
0
42
0.1
10
241.282
20
-11.3639
30
0
42
0.1
10
240.525
20
-10.3945
30
0
42
0
10
240.525
20
-6.3262
30
0
0
LWPOLYLINE
5
12C
100
AcDbEntity
67
0
8
propeler
6
ByLayer
62
256
370
-1
100
AcDbPolyline
90
11
70
0
10
240.525
20
-6.3262
30
0
42
0
10
240.525
20
-1.3325
30
0
42
0.1
10
241.456
20
1.9256
30
0
42
0
10
241.063
20
36.088
30
0
42
-0.8
10
244.897
20
36.088
30
0
42
-0.1
10
245.607
20
31.518
30
0
42
-0.05
10
245.607
20
23.3498
30
0
42
-0.02
10
243.464
20
2.0739
30
0
42
0.1
10
243.767
20
-1.2885
30
0
42
0.1
10
244.524
20
-2.2578
30
0
42
0
10
244.524
20
-6.3262
30
0
0
LWPOLYLINE
5
12D
100
AcDbEntity
67
0
8
wing
6
ByLayer
62
256
370
-1
100
AcDbPolyline
90
2
70
0
10
235.459
20
-8.7127
30
0
42
-0.1
10
314.459
20
-22.5805
30
0
0
LWPOLYLINE
5
12E
100
AcDbEntity
67
0
8
wing
6
ByLayer
62
256
370
-1
100
AcDbPolyline
90
2
70
0
10
246.667
20
-15.2127
30
0
42
-0.1
10
314.459
20
-33.6623
30
0
0
LWPOLYLINE
5
12F
100
AcDbEntity
67
0
8
wing
6
ByLayer
62
256
370
-1
100
AcDbPolyline
90
2
70
0
10
235.459
20
-9.7127
30
0
42
-0.1
10
314.459
20
-23.5805
30
0
0
LWPOLYLINE
5
130
100
AcDbEntity
67
0
8
wing
6
ByLayer
62
256
370
-1
100
AcDbPolyline
90
2
70
0
10
235.459
20
-10.7127
30
0
42
-0.1
10
314.459
20
-24.5805
30
0
0
LWPOLYLINE
5
131
100
AcDbEntity
67
0
8
wing
6
ByLayer
62
256
370
-1
100
AcDbPolyline
90
2
70
0
10
246.667
20
-14.2127
30
0
42
-0.1
10
314.459
20
-31.0458
30
0
0
LWPOLYLINE
5
132
100
AcDbEntity
67
0
8
wing
6
ByLayer
62
256
370
-1
100
AcDbPolyline
90
2
70
0
10
246.667
20
-13.2127
30
0
42
-0.1
10
314.459
20
-28.4591
30
0
0
LWPOLYLINE
5
133
100
AcDbEntity
67
0
8
wing
6
ByLayer
62
256
370
-1
100
AcDbPolyline
90
2
70
0
10
246.667
20
-11.908
30
0
42
-0.1
10
314.459
20
-26.5077
30
0
0
LINE
5
134
100
AcDbEntity
67
0
8
wing
6
ByLayer
62
256
370
-1
100
AcDbLine
10
235.459
20
-10.7127
30
0
11
235.459
21
-8.7127
31
0
0
LINE
5
135
100
AcDbEntity
67
0
8
wing
6
ByLayer
62
256
370
-1
100
AcDbLine
10
246.667
20
-15.2127
30
0
11
246.667
21
-11.908
31
0
0
LINE
5
136
100
AcDbEntity
67
0
8
wing
6
ByLayer
62
256
370
-1
100
AcDbLine
10
246.667
20
-11.908
30
0
11
246.667
21
-10.7364
31
0
0
LINE
5
137
100
AcDbEntity
67
0
8
wing
6
ByLayer
62
256
370
-1
100
AcDbLine
10
314.459
20
-33.6623
30
0
11
314.459
21
-22.5805
31
0
0
LWPOLYLINE
5
138
100
AcDbEntity
67
0
8
frame
6
ByLayer
62
256
370
-1
100
AcDbPolyline
90
10
70
1
10
247.928
20
-8.63534
30
0
42
0
10
247.744
20
-15.1327
30
0
42
0
10
254.734
20
-53.2627
30
0
42
0
10
255.484
20
-54.0127
30
0
42
0
10
429.734
20
-37.0016
30
0
42
0
10
430.484
20
-36.2516
30
0
42
0
10
430.484
20
-27.0081
30
0
42
0
10
429.734
20
-26.2581
30
0
42
0
10
249.264
20
-14.4332
30
0
42
0
10
249.428
20
-8.63534
30
0
42
0
0
LWPOLYLINE
5
139
100
AcDbEntity
67
0
8
frame
6
ByLayer
62
256
370
-1
100
AcDbPolyline
90
4
70
1
10
249.393
20
-15.9416
30
0
42
0
10
256.086
20
-52.454
30
0
42
0
10
428.984
20
-35.5748
30
0
42
0
10
428.984
20
-27.709
30
0
42
0
0
LWPOLYLINE
5
13A
100
AcDbEntity
67
0
8
frame
6
ByLayer
62
256
370
-1
100
AcDbPolyline
90
5
70
1
10
254.734
20
-16.2916
30
0
42
0
10
254.734
20
-45.0799
30
0
42
0
10
256.086
20
-52.454
30
0
42
0
10
256.234
20
-52.4395
30
0
42
0
10
256.234
20
-16.3899
30
0
42
0
0
LWPOLYLINE
5
13B
100
AcDbEntity
67
0
8
frame
6
ByLayer
62
256
370
-1
100
AcDbPolyline
90
4
70
1
10
293.984
20
-18.8634
30
0
42
0
10
293.984
20
-48.7541
30
0
42
0
10
295.484
20
-48.6077
30
0
42
0
10
295.484
20
-18.9616
30
0
42
0
0
LWPOLYLINE
5
13C
100
AcDbEntity
67
0
8
frame
6
ByLayer
62
256
370
-1
100
AcDbPolyline
90
4
70
1
10
329.484
20
-21.1894
30
0
42
0
10
329.484
20
-45.2885
30
0
42
0
10
330.984
20
-45.142
30
0
42
0
10
330.984
20
-21.2877
30
0
42
0
0
LWPOLYLINE
5
13D
100
AcDbEntity
67
0
8
frame
6
ByLayer
62
256
370
-1
100
AcDbPolyline
90
4
70
1
10
364.484
20
-23.4827
30
0
42
0
10
364.484
20
-41.8716
30
0
42
0
10
365.984
20
-41.7252
30
0
42
0
10
365.984
20
-23.581
30
0
42
0
0
LWPOLYLINE
5
13E
100
AcDbEntity
67
0
8
frame
6
ByLayer
62
256
370
-1
100
AcDbPolyline
90
4
70
1
10
399.984
20
-25.8088
30
0
42
0
10
399.984
20
-38.3327
30
0
42
0
10
401.484
20
-38.2595
30
0
42
0
10
401.484
20
-25.9071
30
0
42
0
0
LWPOLYLINE
5
140
100
AcDbEntity
67
0
8
frame
6
ByLayer
62
256
370
-1
100
AcDbPolyline
90
4
70
1
10
633.054
20
-52.8823
30
0
42
0
10
807.304
20
-35.8712
30
0
42
0
10
807.304
20
-34.3712
30
0
42
0
10
633.054
20
-51.3823
30
0
42
1
0
LWPOLYLINE
5
14B
100
AcDbEntity
67
0
8
frame
6
ByLayer
62
256
370
-1
100
AcDbPolyline
90
4
70
1
10
807.304
20
-25.1277
30
0
42
0
10
807.304
20
-35.8712
30
0
42
0
10
808.054
20
-35.8712
30
0
42
0
10
808.054
20
-25.1277
30
0
42
0
0
CIRCLE
5
155
100
AcDbEntity
67
0
8
aux
6
Continuous
62
256
370
-1
100
AcDbCircle
10
672.304
20
-16.9717
30
0
40
0.5
0
CIRCLE
5
156
100
AcDbEntity
67
0
8
aux
6
Continuous
62
256
370
-1
100
AcDbCircle
10
707.804
20
-19.3136
30
0
40
0.5
0
CIRCLE
5
157
100
AcDbEntity
67
0
8
aux
6
Continuous
62
256
370
-1
100
AcDbCircle
10
742.804
20
-21.6226
30
0
40
0.5
0
CIRCLE
5
158
100
AcDbEntity
67
0
8
aux
6
Continuous
62
256
370
-1
100
AcDbCircle
10
778.304
20
-23.9646
30
0
40
0.5
0
CIRCLE
5
159
100
AcDbEntity
67
0
8
aux
6
Continuous
62
256
370
-1
100
AcDbCircle
10
778.304
20
-37.9646
30
0
40
0.5
0
CIRCLE
5
15A
100
AcDbEntity
67
0
8
aux
6
Continuous
62
256
370
-1
100
AcDbCircle
10
742.804
20
-41.4452
30
0
40
0.5
0
CIRCLE
5
15B
100
AcDbEntity
67
0
8
aux
6
Continuous
62
256
370
-1
100
AcDbCircle
10
707.804
20
-44.8769
30
0
40
0.5
0
CIRCLE
5
15C
100
AcDbEntity
67
0
8
aux
6
Continuous
62
256
370
-1
100
AcDbCircle
10
672.304
20
-48.3575
30
0
40
0.5
0
CIRCLE
5
15D
100
AcDbEntity
67
0
8
aux
6
Continuous
62
256
370
-1
100
AcDbCircle
10
633.054
20
-52.1323
30
0
40
0.5
0
CIRCLE
5
15E
100
AcDbEntity
67
0
8
aux
6
Continuous
62
256
370
-1
100
AcDbCircle
10
633.054
20
-14.3823
30
0
40
0.5
0
CIRCLE
5
15F
100
AcDbEntity
67
0
8
aux
6
Continuous
62
256
370
-1
100
AcDbCircle
10
626.064
20
-14.0024
30
0
40
0.5
0
CIRCLE
5
160
100
AcDbEntity
67
0
8
aux
6
Continuous
62
256
370
-1
100
AcDbCircle
10
626.248
20
-7.50496
30
0
40
0.5
0
CIRCLE
5
161
100
AcDbEntity
67
0
8
aux
6
Continuous
62
256
370
-1
100
AcDbCircle
10
672.304
20
-24.9717
30
0
40
0.5
0
LINE
5
162
100
AcDbEntity
67
0
8
aux
6
Continuous
62
256
370
-1
100
AcDbLine
10
778.804
20
-23.9646
30
0
11
778.804
21
-37.9646
31
0
0
LINE
5
163
100
AcDbEntity
67
0
8
aux
6
Continuous
62
256
370
-1
100
AcDbLine
10
777.804
20
-37.9646
30
0
11
777.804
21
-23.9646
31
0
0
CIRCLE
5
164
100
AcDbEntity
67
0
8
aux
6
Continuous
62
256
370
-1
100
AcDbCircle
10
778.304
20
-0.9646
30
0
40
0.5
0
CIRCLE
5
165
100
AcDbEntity
67
0
8
aux
6
Continuous
62
256
370
-1
100
AcDbCircle
10
778.304
20
-62.9646
30
0
40
0.5
0
LINE
5
166
100
AcDbEntity
67
0
8
aux
6
Continuous
62
256
370
-1
100
AcDbLine
10
777.804
20
-23.9646
30
0
11
777.804
21
-0.9646
31
0
0
LINE
5
167
100
AcDbEntity
67
0
8
aux
6
Continuous
62
256
370
-1
100
AcDbLine
10
778.804
20
-0.9646
30
0
11
778.804
21
-23.9646
31
0
0
LINE
5
168
100
AcDbEntity
67
0
8
aux
6
Continuous
62
256
370
-1
100
AcDbLine
10
777.804
20
-37.9646
30
0
11
777.804
21
-62.9646
31
0
0
LINE
5
169
100
AcDbEntity
67
0
8
aux
6
Continuous
62
256
370
-1
100
AcDbLine
10
778.804
20
-62.9646
30
0
11
778.804
21
-37.9646
31
0
0
LINE
5
16A
100
AcDbEntity
67
0
8
aux
6
Continuous
62
256
370
-1
100
AcDbLine
10
743.304
20
-41.4452
30
0
11
743.304
21
-21.6226
31
0
0
LINE
5
16B
100
AcDbEntity
67
0
8
aux
6
Continuous
62
256
370
-1
100
AcDbLine
10
742.304
20
-21.6226
30
0
11
742.304
21
-41.4452
31
0
0
LINE
5
16C
100
AcDbEntity
67
0
8
aux
6
Continuous
62
256
370
-1
100
AcDbLine
10
708.304
20
-44.8769
30
0
11
708.304
21
-19.3136
31
0
0
LINE
5
16D
100
AcDbEntity
67
0
8
aux
6
Continuous
62
256
370
-1
100
AcDbLine
10
707.304
20
-19.3136
30
0
11
707.304
21
-44.8769
31
0
0
LINE
5
16E
100
AcDbEntity
67
0
8
aux
6
Continuous
62
256
370
-1
100
AcDbLine
10
672.804
20
-48.3575
30
0
11
672.804
21
-16.9717
31
0
0
LINE
5
16F
100
AcDbEntity
67
0
8
aux
6
Continuous
62
256
370
-1
100
AcDbLine
10
671.804
20
-16.9717
30
0
11
671.804
21
-48.3575
31
0
0
LINE
5
170
100
AcDbEntity
67
0
8
aux
6
Continuous
62
256
370
-1
100
AcDbLine
10
633.554
20
-52.1323
30
0
11
633.554
21
-14.3823
31
0
0
LINE
5
171
100
AcDbEntity
67
0
8
aux
6
Continuous
62
256
370
-1
100
AcDbLine
10
632.554
20
-14.3823
30
0
11
632.554
21
-52.1323
31
0
0
LINE
5
172
100
AcDbEntity
67
0
8
aux
6
Continuous
62
256
370
-1
100
AcDbLine
10
633.554
20
-52.1323
30
0
11
626.564
21
-14.0024
31
0
0
LINE
5
173
100
AcDbEntity
67
0
8
aux
6
Continuous
62
256
370
-1
100
AcDbLine
10
626.564
20
-14.0024
30
0
11
626.748
21
-7.50496
31
0
0
LINE
5
174
100
AcDbEntity
67
0
8
aux
6
Continuous
62
256
370
-1
100
AcDbLine
10
625.748
20
-7.50496
30
0
11
625.564
21
-14.0024
31
0
0
LINE
5
175
100
AcDbEntity
67
0
8
aux
6
Continuous
62
256
370
-1
100
AcDbLine
10
625.564
20
-14.0024
30
0
11
632.554
21
-52.1323
31
0
0
LWPOLYLINE
5
177
100
AcDbEntity
67
0
8
frame
6
ByLayer
62
256
370
-1
100
AcDbPolyline
90
5
70
1
10
626.584
20
-13.2865
30
0
42
0
10
626.569
20
-14.0298
30
0
42
0
10
626.709
20
-14.7947
30
0
42
0
10
807.206
20
-26.6213
30
0
42
0
10
807.304
20
-25.1277
30
0
42
0
0
LWPOLYLINE
5
178
100
AcDbEntity
67
0
8
frame
6
ByLayer
62
256
370
-1
100
AcDbPolyline
90
7
70
1
10
626.563
20
-14.0295
30
0
42
0
10
626.584
20
-13.2865
30
0
42
0
10
625.564
20
-14.0024
30
0
42
0
10
632.468
20
-51.664
30
0
42
-0.2
10
633.054
20
-51.3823
30
0
42
0
10
633.41
20
-51.3475
30
0
42
0
10
626.709
20
-14.7947
30
0
42
0
0
LWPOLYLINE
5
179
100
AcDbEntity
67
0
8
frame
6
ByLayer
62
256
370
-1
100
AcDbPolyline
90
5
70
1
10
632.554
20
-46.6774
30
0
42
0
10
633.41
20
-51.3475
30
0
42
0
10
633.554
20
-51.3335
30
0
42
0
10
633.554
20
-15.2432
30
0
42
0
10
632.554
20
-15.1776
30
0
42
0
0
LWPOLYLINE
5
17A
100
AcDbEntity
67
0
8
frame
6
ByLayer
62
256
370
-1
100
AcDbPolyline
90
4
70
1
10
625.564
20
-14.0024
30
0
42
0
10
626.584
20
-13.2865
30
0
42
0
10
626.748
20
-7.50496
30
0
42
0
10
625.748
20
-7.50496
30
0
42
0
0
LWPOLYLINE
5
17B
100
AcDbEntity
67
0
8
frame
6
ByLayer
62
256
370
-1
100
AcDbPolyline
90
4
70
1
10
671.804
20
-17.7494
30
0
42
0
10
671.804
20
-47.5993
30
0
42
0
10
672.804
20
-47.5017
30
0
42
0
10
672.804
20
-17.8149
30
0
42
0
0
LINE
5
17D
100
AcDbEntity
67
0
8
aux
6
ByLayer
62
256
370
-1
100
AcDbLine
10
633.054
20
-51.6323
30
0
11
672.304
21
-24.4717
31
0
0
LINE
5
17E
100
AcDbEntity
67
0
8
aux
6
ByLayer
62
256
370
-1
100
AcDbLine
10
672.304
20
-25.4717
30
0
11
633.054
21
-52.6323
31
0
0
LWPOLYLINE
5
17F
100
AcDbEntity
67
0
8
frame
6
ByLayer
62
256
370
-1
100
AcDbPolyline
90
5
70
1
10
635.157
20
-51.177
30
0
42
0
10
633.554
20
-51.3335
30
0
42
0
10
633.554
20
-51.2863
30
0
42
0
10
671.804
20
-24.8177
30
0
42
0
10
671.804
20
-25.8177
30
0
42
0
0
LWPOLYLINE
5
180
100
AcDbEntity
67
0
8
frame
6
ByLayer
62
256
370
-1
100
AcDbPolyline
90
4
70
1
10
707.304
20
-20.0754
30
0
42
0
10
707.304
20
-44.1337
30
0
42
0
10
708.304
20
-44.036
30
0
42
0
10
708.304
20
-20.141
30
0
42
0
0
LWPOLYLINE
5
181
100
AcDbEntity
67
0
8
frame
6
ByLayer
62
256
370
-1
100
AcDbPolyline
90
4
70
1
10
742.304
20
-22.3687
30
0
42
0
10
742.304
20
-40.7168
30
0
42
0
10
743.304
20
-40.6192
30
0
42
0
10
743.304
20
-22.4343
30
0
42
0
0
LWPOLYLINE
5
182
100
AcDbEntity
67
0
8
frame
6
ByLayer
62
256
370
-1
100
AcDbPolyline
90
4
70
1
10
777.804
20
-24.6948
30
0
42
0
10
778.804
20
-24.7603
30
0
42
0
10
778.804
20
-37.1535
30
0
42
0
10
777.804
20
-37.2511
30
0
42
0
0
LWPOLYLINE
5
183
100
AcDbEntity
67
0
8
frame
6
ByLayer
62
256
370
-1
100
AcDbPolyline
90
4
70
1
10
777.804
20
-23.1948
30
0
42
0
10
777.804
20
-0.9646
30
0
42
0
10
778.804
20
-0.9646
30
0
42
0
10
778.804
20
-23.2603
30
0
42
0
0
LINE
5
185
100
AcDbEntity
67
0
8
aux
6
ByLayer
62
256
370
-1
100
AcDbLine
10
785.018
20
-62.9646
30
0
11
785.018
21
-60.211
31
0
0
LINE
5
186
100
AcDbEntity
67
0
8
aux
6
ByLayer
62
256
370
-1
100
AcDbLine
10
785.018
20
-60.211
30
0
11
784.018
21
-60.211
31
0
0
LINE
5
18A
100
AcDbEntity
67
0
8
aux
6
Continuous
62
256
370
-1
100
AcDbLine
10
783.804
20
-62.9646
30
0
11
783.804
21
-59.9646
31
0
0
LINE
5
18B
100
AcDbEntity
67
0
8
aux
6
Continuous
62
256
370
-1
100
AcDbLine
10
783.804
20
-59.9646
30
0
11
782.804
21
-59.9646
31
0
0
LINE
5
18C
100
AcDbEntity
67
0
8
aux
6
Continuous
62
256
370
-1
100
AcDbLine
10
782.804
20
-59.9646
30
0
11
782.804
21
-61.9646
31
0
0
LINE
5
18D
100
AcDbEntity
67
0
8
aux
6
Continuous
62
256
370
-1
100
AcDbLine
10
782.804
20
-61.9646
30
0
11
778.804
21
-61.9646
31
0
0
LINE
5
18E
100
AcDbEntity
67
0
8
aux
6
Continuous
62
256
370
-1
100
AcDbLine
10
783.804
20
-62.9646
30
0
11
777.804
21
-62.9646
31
0
0
LWPOLYLINE
5
18F
100
AcDbEntity
67
0
8
frame
6
ByLayer
62
256
370
-1
100
AcDbPolyline
90
8
70
1
10
777.804
20
-38.7511
30
0
42
0
10
777.804
20
-58.8588
30
0
42
0.4
10
780.804
20
-62.9646
30
0
42
0.4
10
783.804
20
-59.9646
30
0
42
0
10
782.804
20
-59.9646
30
0
42
-0.4
10
780.804
20
-61.9646
30
0
42
-0.4
10
778.804
20
-59.1211
30
0
42
0
10
778.804
20
-38.6535
30
0
42
0
0
LWPOLYLINE
5
190
100
AcDbEntity
67
0
8
frame
6
ByLayer
62
256
370
-1
100
AcDbPolyline
90
4
70
1
10
23.3818
20
22.6793
30
0
42
0
10
197.632
20
39.6904
30
0
42
0
10
197.632
20
41.1904
30
0
42
0
10
23.3818
20
24.1793
30
0
42
1
0
LWPOLYLINE
5
191
100
AcDbEntity
67
0
8
frame
6
ByLayer
62
256
370
-1
100
AcDbPolyline
90
4
70
1
10
197.632
20
50.4339
30
0
42
0
10
197.632
20
39.6904
30
0
42
0
10
198.382
20
39.6904
30
0
42
0
10
198.382
20
50.4339
30
0
42
0
0
LWPOLYLINE
5
192
100
AcDbEntity
67
0
8
frame
6
ByLayer
62
256
370
-1
100
AcDbPolyline
90
5
70
1
10
16.9121
20
62.2751
30
0
42
0
10
16.8968
20
61.5318
30
0
42
0
10
17.037
20
60.7669
30
0
42
0
10
197.534
20
48.9403
30
0
42
0
10
197.632
20
50.4339
30
0
42
0
0
LWPOLYLINE
5
193
100
AcDbEntity
67
0
8
frame
6
ByLayer
62
256
370
-1
100
AcDbPolyline
90
7
70
1
10
16.8911
20
61.5321
30
0
42
0
10
16.9121
20
62.2751
30
0
42
0
10
15.8918
20
61.5592
30
0
42
0
10
22.796
20
23.8976
30
0
42
-0.2
10
23.3818
20
24.1793
30
0
42
0
10
23.7379
20
24.2141
30
0
42
0
10
17.037
20
60.7669
30
0
42
0
0
LWPOLYLINE
5
194
100
AcDbEntity
67
0
8
frame
6
ByLayer
62
256
370
-1
100
AcDbPolyline
90
5
70
1
10
22.8818
20
28.8842
30
0
42
0
10
23.7379
20
24.2141
30
0
42
0
10
23.8818
20
24.2281
30
0
42
0
10
23.8818
20
60.3184
30
0
42
0
10
22.8818
20
60.384
30
0
42
0
0
LWPOLYLINE
5
195
100
AcDbEntity
67
0
8
frame
6
ByLayer
62
256
370
-1
100
AcDbPolyline
90
4
70
1
10
15.8918
20
61.5592
30
0
42
0
10
16.9121
20
62.2751
30
0
42
0
10
17.0758
20
68.0566
30
0
42
0
10
16.0758
20
68.0566
30
0
42
0
0
LWPOLYLINE
5
196
100
AcDbEntity
67
0
8
frame
6
ByLayer
62
256
370
-1
100
AcDbPolyline
90
4
70
1
10
62.1318
20
57.8122
30
0
42
0
10
62.1318
20
27.9623
30
0
42
0
10
63.1318
20
28.0599
30
0
42
0
10
63.1318
20
57.7467
30
0
42
0
0
LWPOLYLINE
5
197
100
AcDbEntity
67
0
8
frame
6
ByLayer
62
256
370
-1
100
AcDbPolyline
90
5
70
1
10
25.4849
20
24.3846
30
0
42
0
10
23.8818
20
24.2281
30
0
42
0
10
23.8818
20
24.2753
30
0
42
0
10
62.1318
20
50.7439
30
0
42
0
10
62.1318
20
49.7439
30
0
42
0
0
LWPOLYLINE
5
198
100
AcDbEntity
67
0
8
frame
6
ByLayer
62
256
370
-1
100
AcDbPolyline
90
4
70
1
10
97.6318
20
55.4862
30
0
42
0
10
97.6318
20
31.4279
30
0
42
0
10
98.6318
20
31.5256
30
0
42
0
10
98.6318
20
55.4206
30
0
42
0
0
LWPOLYLINE
5
199
100
AcDbEntity
67
0
8
frame
6
ByLayer
62
256
370
-1
100
AcDbPolyline
90
4
70
1
10
132.632
20
53.1929
30
0
42
0
10
132.632
20
34.8448
30
0
42
0
10
133.632
20
34.9424
30
0
42
0
10
133.632
20
53.1273
30
0
42
0
0
LWPOLYLINE
5
19A
100
AcDbEntity
67
0
8
frame
6
ByLayer
62
256
370
-1
100
AcDbPolyline
90
4
70
1
10
168.132
20
50.8668
30
0
42
0
10
169.132
20
50.8013
30
0
42
0
10
169.132
20
38.4081
30
0
42
0
10
168.132
20
38.3105
30
0
42
0
0
LWPOLYLINE
5
19B
100
AcDbEntity
67
0
8
frame
6
ByLayer
62
256
370
-1
100
AcDbPolyline
90
4
70
1
10
168.132
20
52.3668
30
0
42
0
10
168.132
20
74.597
30
0
42
0
10
169.132
20
74.597
30
0
42
0
10
169.132
20
52.3013
30
0
42
0
0
LWPOLYLINE
5
19C
100
AcDbEntity
67
0
8
frame
6
ByLayer
62
256
370
-1
100
AcDbPolyline
90
8
70
1
10
168.132
20
36.8105
30
0
42
0
10
168.132
20
16.7028
30
0
42
0.4
10
171.132
20
12.597
30
0
42
0.4
10
174.132
20
15.597
30
0
42
0
10
173.132
20
15.597
30
0
42
-0.4
10
171.132
20
13.597
30
0
42
-0.4
10
169.132
20
16.4405
30
0
42
0
10
169.132
20
36.9081
30
0
42
0
0
SPLINE
5
19E
100
AcDbEntity
67
0
8
aux
6
Continuous
62
2
370
-1
100
AcDbSpline
70
3
71
3
72
20
73
16
74
0
40
1
40
2
40
3
40
4
40
5
40
6
40
7
40
8
40
9
40
10
40
11
40
12
40
13
40
14
40
15
40
16
40
17
40
18
40
19
40
20
10
68.724
20
-105.668
30
0
10
70.4353
20
-104.58
30
0
10
71.3629
20
-104.564
30
0
10
72.2425
20
-105.14
30
0
10
73.0422
20
-105.668
30
0
10
73.2022
20
-106.179
30
0
10
72.9143
20
-106.595
30
0
10
72.3065
20
-106.195
30
0
10
71.6348
20
-105.86
30
0
10
70.4993
20
-105.876
30
0
10
69.1878
20
-106.339
30
0
10
68.644
20
-106.275
30
0
10
68.644
20
-105.684
30
0
10
68.724
20
-105.668
30
0
10
70.4353
20
-104.58
30
0
10
71.3629
20
-104.564
30
0
0
SPLINE
5
19F
100
AcDbEntity
67
0
8
aux
6
Continuous
62
2
370
-1
100
AcDbSpline
70
0
71
3
72
9
73
5
74
0
40
0
40
0
40
0
40
0
40
1
40
2
40
2
40
2
40
2
10
72.5467
20
-106.45
30
0
10
71.8346
20
-106.729
30
0
10
70.9832
20
-106.729
30
0
10
70.3175
20
-106.497
30
0
10
69.915
20
-106.296
30
0
0
SPLINE
5
1A0
100
AcDbEntity
67
0
8
aux
6
Continuous
62
2
370
-1
100
AcDbSpline
70
0
71
3
72
9
73
5
74
0
40
0
40
0
40
0
40
0
40
1
40
2
40
2
40
2
40
2
10
69.6209
20
-107.921
30
0
10
70.5497
20
-107.441
30
0
10
71.1844
20
-107.24
30
0
10
71.6953
20
-107.379
30
0
10
72.4074
20
-107.828
30
0
0
SPLINE
5
1A1
100
AcDbEntity
67
0
8
aux
6
Continuous
62
2
370
-1
100
AcDbSpline
70
0
71
3
72
45
73
41
74
0
40
0
40
0
40
0
40
0
40
1
40
2
40
3
40
4
40
5
40
6
40
7
40
8
40
9
40
10
40
11
40
12
40
13
40
14
40
15
40
16
40
17
40
18
40
19
40
20
40
21
40
22
40
23
40
24
40
25
40
26
40
27
40
28
40
29
40
30
40
31
40
32
40
33
40
34
40
35
40
36
40
37
40
38
40
38
40
38
40
38
10
67.1184
20
-98.167
30
0
10
66.2674
20
-99.0181
30
0
10
65.9739
20
-100.104
30
0
10
65.7978
20
-101.278
30
0
10
65.8565
20
-102.481
30
0
10
65.8565
20
-102.481
30
0
10
65.1522
20
-101.659
30
0
10
64.4185
20
-101.336
30
0
10
63.7142
20
-101.718
30
0
10
63.5675
20
-102.745
30
0
10
64.0077
20
-103.919
30
0
10
65.0642
20
-104.975
30
0
10
65.9446
20
-105.122
30
0
10
66.1793
20
-104.623
30
0
10
66.1793
20
-104.623
30
0
10
66.0913
20
-106.795
30
0
10
66.238
20
-107
30
0
10
68.4097
20
-108.614
30
0
10
70.0238
20
-109.524
30
0
10
71.0509
20
-109.554
30
0
10
72.2541
20
-109.319
30
0
10
73.2519
20
-108.409
30
0
10
74.0293
20
-106.534
30
0
10
74.4635
20
-104.936
30
0
10
74.4808
20
-104.919
30
0
10
74.585
20
-105.145
30
0
10
74.6892
20
-105.457
30
0
10
75.1407
20
-105.388
30
0
10
75.7485
20
-104.589
30
0
10
76.4123
20
-103.368
30
0
10
76.4257
20
-103.128
30
0
10
76.4257
20
-102.567
30
0
10
76.1051
20
-102.032
30
0
10
75.7044
20
-102.032
30
0
10
75.0632
20
-102.874
30
0
10
74.9964
20
-103.048
30
0
10
74.9964
20
-103.048
30
0
10
75.1945
20
-99.52
30
0
10
74.9804
20
-98.8993
30
0
10
73.7389
20
-97.7434
30
0
10
73.3964
20
-97.4223
30
0
0
SPLINE
5
1A2
100
AcDbEntity
67
0
8
aux
6
Continuous
62
2
370
-1
100
AcDbSpline
70
0
71
3
72
11
73
7
74
0
40
0
40
0
40
0
40
0
40
1
40
2
40
3
40
4
40
4
40
4
40
4
10
75.2841
20
-103.286
30
0
10
75.1318
20
-103.621
30
0
10
74.9998
20
-103.966
30
0
10
74.9998
20
-104.301
30
0
10
75.2232
20
-104.332
30
0
10
75.4161
20
-104.058
30
0
10
75.4465
20
-103.469
30
0
0
SPLINE
5
1A3
100
AcDbEntity
67
0
8
aux
6
Continuous
62
2
370
-1
100
AcDbSpline
70
0
71
3
72
9
73
5
74
0
40
0
40
0
40
0
40
0
40
1
40
2
40
2
40
2
40
2
10
75.2029
20
-104.829
30
0
10
75.5278
20
-104.423
30
0
10
75.944
20
-103.58
30
0
10
76.1064
20
-103.032
30
0
10
75.9948
20
-102.454
30
0
0
SPLINE
5
1A4
100
AcDbEntity
67
0
8
aux
6
Continuous
62
2
370
-1
100
AcDbSpline
70
0
71
3
72
8
73
4
74
0
40
0
40
0
40
0
40
0
40
1
40
1
40
1
40
1
10
74.8171
20
-103.347
30
0
10
74.8171
20
-103.662
30
0
10
74.6648
20
-104.291
30
0
10
74.5633
20
-104.586
30
0
0
SPLINE
5
1A5
100
AcDbEntity
67
0
8
aux
6
Continuous
62
2
370
-1
100
AcDbSpline
70
0
71
3
72
8
73
4
74
0
40
0
40
0
40
0
40
0
40
1
40
1
40
1
40
1
10
65.943
20
-102.799
30
0
10
66.013
20
-103.342
30
0
10
66.1181
20
-104.113
30
0
10
66.2057
20
-104.27
30
0
0
SPLINE
5
1A6
100
AcDbEntity
67
0
8
aux
6
Continuous
62
2
370
-1
100
AcDbSpline
70
0
71
3
72
9
73
5
74
0
40
0
40
0
40
0
40
0
40
1
40
2
40
2
40
2
40
2
10
64.2845
20
-103.309
30
0
10
64.0373
20
-102.894
30
0
10
63.9895
20
-102.607
30
0
10
64.0453
20
-102.041
30
0
10
64.2287
20
-101.874
30
0
0
SPLINE
5
1A7
100
AcDbEntity
67
0
8
aux
6
Continuous
62
2
370
-1
100
AcDbSpline
70
0
71
3
72
12
73
8
74
0
40
0
40
0
40
0
40
0
40
1
40
2
40
3
40
4
40
5
40
5
40
5
40
5
10
65.2251
20
-102.783
30
0
10
65.1613
20
-103.173
30
0
10
65.3287
20
-103.468
30
0
10
65.6556
20
-103.811
30
0
10
65.4403
20
-104.018
30
0
10
65.0816
20
-104.106
30
0
10
64.7468
20
-103.915
30
0
10
64.978
20
-103.413
30
0
0
SPLINE
5
1A8
100
AcDbEntity
67
0
8
aux
6
Continuous
62
2
370
-1
100
AcDbSpline
70
0
71
3
72
23
73
19
74
0
40
0
40
0
40
0
40
0
40
1
40
2
40
3
40
4
40
5
40
6
40
7
40
8
40
9
40
10
40
11
40
12
40
13
40
14
40
15
40
16
40
16
40
16
40
16
10
66.8603
20
-100.382
30
0
10
67.0763
20
-99.8744
30
0
10
67.4542
20
-99.4749
30
0
10
68.4369
20
-99.3237
30
0
10
69.4951
20
-99.1725
30
0
10
70.4346
20
-99.6261
30
0
10
70.6937
20
-100.123
30
0
10
70.6721
20
-100.641
30
0
10
70.575
20
-101.894
30
0
10
70.0134
20
-102.801
30
0
10
69.7416
20
-103.04
30
0
10
69.561
20
-103.341
30
0
10
69.6613
20
-103.522
30
0
10
69.9121
20
-103.311
30
0
10
70.4236
20
-103.181
30
0
10
70.8956
20
-103.529
30
0
10
71.1136
20
-103.723
30
0
10
71.4164
20
-103.493
30
0
10
71.9857
20
-103.614
30
0
0
SPLINE
5
1AA
100
AcDbEntity
67
0
8
aux
6
Continuous
62
2
370
-1
100
AcDbSpline
70
0
71
3
72
8
73
4
74
0
40
0
40
0
40
0
40
0
40
1
40
1
40
1
40
1
10
65.1509
20
-98.1473
30
0
10
64.4086
20
-98.8524
30
0
10
64.2973
20
-99.4091
30
0
10
64.4185
20
-101.336
30
0
0
SPLINE
5
1AC
100
AcDbEntity
67
0
8
aux
6
Continuous
62
2
370
-1
100
AcDbSpline
70
0
71
3
72
8
73
4
74
0
40
0
40
0
40
0
40
0
40
1
40
1
40
1
40
1
10
75.7044
20
-102.032
30
0
10
76.3638
20
-99.5039
30
0
10
76.0448
20
-98.1437
30
0
10
74.5048
20
-97.04
30
0
0
SPLINE
5
1AD
100
AcDbEntity
67
0
8
aux
6
Continuous
62
2
370
-1
100
AcDbSpline
70
0
71
3
72
8
73
4
74
0
40
0
40
0
40
0
40
0
40
1
40
1
40
1
40
1
10
71.6272
20
-100.697
30
0
10
71.5699
20
-101.366
30
0
10
71.5699
20
-101.94
30
0
10
71.8756
20
-103.067
30
0
0
SPLINE
5
1AE
100
AcDbEntity
67
0
8
aux
6
Continuous
62
2
370
-1
100
AcDbSpline
70
0
71
3
72
11
73
7
74
0
40
0
40
0
40
0
40
0
40
1
40
2
40
3
40
4
40
4
40
4
40
4
10
66.8603
20
-100.382
30
0
10
67.3558
20
-100.092
30
0
10
67.8747
20
-99.7647
30
0
10
69.0491
20
-99.7647
30
0
10
69.7183
20
-99.8057
30
0
10
69.9368
20
-99.6691
30
0
10
69.4951
20
-99.1725
30
0
0
SPLINE
5
1AF
100
AcDbEntity
67
0
8
aux
6
Continuous
62
2
370
-1
100
AcDbSpline
70
0
71
3
72
16
73
12
74
0
40
0
40
0
40
0
40
0
40
1
40
2
40
3
40
4
40
5
40
6
40
7
40
8
40
9
40
9
40
9
40
9
10
74.4886
20
-100.126
30
0
10
74.1968
20
-99.771
30
0
10
73.8036
20
-99.5426
30
0
10
72.7253
20
-99.3904
30
0
10
72.0277
20
-99.3904
30
0
10
71.7232
20
-99.6949
30
0
10
71.6725
20
-99.8978
30
0
10
72.0404
20
-99.9359
30
0
10
72.6619
20
-99.8471
30
0
10
73.2454
20
-99.8598
30
0
10
74.0826
20
-99.9486
30
0
10
74.4632
20
-100.177
30
0
0
SPLINE
5
1B0
100
AcDbEntity
67
0
8
aux
6
Continuous
62
2
370
-1
100
AcDbSpline
70
0
71
3
72
9
73
5
74
0
40
0
40
0
40
0
40
0
40
1
40
2
40
2
40
2
40
2
10
69.9121
20
-103.311
30
0
10
70.1732
20
-103.901
30
0
10
70.6252
20
-104.223
30
0
10
70.9394
20
-104.139
30
0
10
70.8956
20
-103.529
30
0
0
SPLINE
5
1B1
100
AcDbEntity
67
0
8
aux
6
Continuous
62
2
370
-1
100
AcDbSpline
70
0
71
3
72
9
73
5
74
0
40
0
40
0
40
0
40
0
40
1
40
2
40
2
40
2
40
2
10
70.472
20
-103.549
30
0
10
70.2958
20
-103.778
30
0
10
70.472
20
-103.855
30
0
10
70.6635
20
-103.794
30
0
10
70.5409
20
-103.602
30
0
0
SPLINE
5
1B2
100
AcDbEntity
67
0
8
aux
6
Continuous
62
2
370
-1
100
AcDbSpline
70
0
71
3
72
12
73
8
74
0
40
0
40
0
40
0
40
0
40
1
40
2
40
3
40
4
40
5
40
5
40
5
40
5
10
71.1136
20
-103.723
30
0
10
71.3914
20
-103.993
30
0
10
71.6749
20
-104.169
30
0
10
72.0044
20
-104.054
30
0
10
71.9277
20
-103.863
30
0
10
71.7439
20
-103.579
30
0
10
71.4164
20
-103.493
30
0
10
71.1136
20
-103.723
30
0
0
SPLINE
5
1B3
100
AcDbEntity
67
0
8
aux
6
Continuous
62
2
370
-1
100
AcDbSpline
70
0
71
3
72
11
73
7
74
0
40
0
40
0
40
0
40
0
40
1
40
2
40
3
40
4
40
4
40
4
40
4
10
70.1947
20
-100.808
30
0
10
69.7216
20
-100.59
30
0
10
69.3941
20
-100.347
30
0
10
69.1393
20
-100.129
30
0
10
68.6177
20
-100.008
30
0
10
68.2052
20
-100.093
30
0
10
67.7685
20
-100.408
30
0
0
SPLINE
5
1B4
100
AcDbEntity
67
0
8
aux
6
Continuous
62
2
370
-1
100
AcDbSpline
70
0
71
3
72
12
73
8
74
0
40
0
40
0
40
0
40
0
40
1
40
2
40
3
40
4
40
5
40
5
40
5
40
5
10
67.0892
20
-101.1
30
0
10
67.6836
20
-101.124
30
0
10
67.999
20
-100.99
30
0
10
68.3023
20
-100.614
30
0
10
68.8118
20
-100.566
30
0
10
69.3092
20
-100.699
30
0
10
69.5639
20
-100.93
30
0
10
70.0855
20
-101.051
30
0
0
SPLINE
5
1B5
100
AcDbEntity
67
0
8
aux
6
Continuous
62
2
370
-1
100
AcDbSpline
70
0
71
3
72
10
73
6
74
0
40
0
40
0
40
0
40
0
40
1
40
2
40
3
40
3
40
3
40
3
10
67.999
20
-100.99
30
0
10
68.2538
20
-101.342
30
0
10
68.739
20
-101.403
30
0
10
69.1636
20
-101.318
30
0
10
69.4183
20
-101.245
30
0
10
69.5639
20
-100.93
30
0
0
SPLINE
5
1B7
100
AcDbEntity
67
0
8
aux
6
Continuous
62
2
370
-1
100
AcDbSpline
70
0
71
3
72
9
73
5
74
0
40
0
40
0
40
0
40
0
40
1
40
2
40
2
40
2
40
2
10
67.0892
20
-101.1
30
0
10
67.5023
20
-101.496
30
0
10
68.0093
20
-101.676
30
0
10
68.9446
20
-101.732
30
0
10
69.6658
20
-101.473
30
0
0
SPLINE
5
1B8
100
AcDbEntity
67
0
8
aux
6
Continuous
62
2
370
-1
100
AcDbSpline
70
0
71
3
72
11
73
7
74
0
40
0
40
0
40
0
40
0
40
1
40
2
40
3
40
4
40
4
40
4
40
4
10
71.9703
20
-100.775
30
0
10
72.2215
20
-100.43
30
0
10
72.5774
20
-100.242
30
0
10
73.0066
20
-100.126
30
0
10
73.53
20
-100.179
30
0
10
73.6975
20
-100.472
30
0
10
74.3255
20
-101.037
30
0
0
SPLINE
5
1B9
100
AcDbEntity
67
0
8
aux
6
Continuous
62
2
370
-1
100
AcDbSpline
70
0
71
3
72
11
73
7
74
0
40
0
40
0
40
0
40
0
40
1
40
2
40
3
40
4
40
4
40
4
40
4
10
68.2236
20
-100.818
30
0
10
68.3598
20
-101.116
30
0
10
68.5209
20
-101.277
30
0
10
68.8058
20
-101.252
30
0
10
68.9421
20
-101.202
30
0
10
69.1279
20
-101.035
30
0
10
69.1465
20
-100.75
30
0
0
SPLINE
5
1BA
100
AcDbEntity
67
0
8
aux
6
Continuous
62
2
370
-1
100
AcDbSpline
70
0
71
3
72
19
73
15
74
0
40
0
40
0
40
0
40
0
40
1
40
2
40
3
40
4
40
5
40
6
40
7
40
8
40
9
40
10
40
11
40
12
40
12
40
12
40
12
10
72.0822
20
-101.084
30
0
10
72.3546
20
-100.899
30
0
10
72.7145
20
-100.743
30
0
10
73.2252
20
-100.724
30
0
10
73.624
20
-100.904
30
0
10
73.7747
20
-101.118
30
0
10
73.9887
20
-101.346
30
0
10
74.086
20
-101.366
30
0
10
73.9109
20
-101.482
30
0
10
73.6337
20
-101.75
30
0
10
73.2154
20
-102.008
30
0
10
72.7096
20
-101.91
30
0
10
72.447
20
-101.73
30
0
10
72.1455
20
-101.468
30
0
10
72.0141
20
-101.161
30
0
0
SPLINE
5
1BB
100
AcDbEntity
67
0
8
aux
6
Continuous
62
2
370
-1
100
AcDbSpline
70
0
71
3
72
11
73
7
74
0
40
0
40
0
40
0
40
0
40
1
40
2
40
3
40
4
40
4
40
4
40
4
10
72.4567
20
-100.884
30
0
10
72.447
20
-101.181
30
0
10
72.5783
20
-101.458
30
0
10
72.9625
20
-101.604
30
0
10
73.444
20
-101.58
30
0
10
73.7407
20
-101.39
30
0
10
73.8331
20
-101.273
30
0
0
SPLINE
5
1BC
100
AcDbEntity
67
0
8
aux
6
Continuous
62
2
370
-1
100
AcDbSpline
70
0
71
3
72
13
73
9
74
0
40
0
40
0
40
0
40
0
40
1
40
2
40
3
40
4
40
5
40
6
40
6
40
6
40
6
10
72.7755
20
-100.829
30
0
10
72.667
20
-100.877
30
0
10
72.6296
20
-100.978
30
0
10
72.6333
20
-101.188
30
0
10
72.7867
20
-101.375
30
0
10
73.2431
20
-101.397
30
0
10
73.4788
20
-101.323
30
0
10
73.5013
20
-101.031
30
0
10
73.4302
20
-100.855
30
0
0
SPLINE
5
1BD
100
AcDbEntity
67
0
8
aux
6
Continuous
62
2
370
-1
100
AcDbSpline
70
0
71
3
72
36
73
32
74
0
40
0
40
0
40
0
40
0
40
1
40
2
40
3
40
4
40
5
40
6
40
7
40
8
40
9
40
10
40
11
40
12
40
13
40
14
40
15
40
16
40
17
40
18
40
19
40
20
40
21
40
22
40
23
40
24
40
25
40
26
40
27
40
28
40
29
40
29
40
29
40
29
10
65.9811
20
-105.603
30
0
10
63.7361
20
-104.593
30
0
10
61.4013
20
-102.909
30
0
10
59.942
20
-100.732
30
0
10
59.8971
20
-98.9358
30
0
10
60.189
20
-98.4194
30
0
10
61.2217
20
-97.8806
30
0
10
62.2544
20
-97.5439
30
0
10
63.2871
20
-97.499
30
0
10
64.2974
20
-97.7684
30
0
10
65.7342
20
-98.0378
30
0
10
67.7547
20
-98.0153
30
0
10
68.6527
20
-97.6112
30
0
10
71.8855
20
-97.5439
30
0
10
73.9737
20
-97.0879
30
0
10
74.872
20
-96.8473
30
0
10
76.412
20
-96.9275
30
0
10
77.5029
20
-97.6012
30
0
10
78.1804
20
-98.2417
30
0
10
78.6062
20
-99.3552
30
0
10
79.2121
20
-100.829
30
0
10
79.5068
20
-101.173
30
0
10
79.8507
20
-101.337
30
0
10
80.2764
20
-101.222
30
0
10
80.2764
20
-101.222
30
0
10
80.3911
20
-101.451
30
0
10
78.7068
20
-103.208
30
0
10
77.1862
20
-104.495
30
0
10
75.9992
20
-105.058
30
0
10
75.3922
20
-105.356
30
0
10
74.6043
20
-105.708
30
0
10
74.189
20
-105.718
30
0
0
SPLINE
5
1BE
100
AcDbEntity
67
0
8
aux
6
Continuous
62
2
370
-1
100
AcDbSpline
70
0
71
3
72
8
73
4
74
0
40
0
40
0
40
0
40
0
40
1
40
1
40
1
40
1
10
80.2764
20
-101.222
30
0
10
80.1161
20
-100.838
30
0
10
79.6623
20
-100.611
30
0
10
78.9337
20
-100.146
30
0
0
SPLINE
5
1BF
100
AcDbEntity
67
0
8
aux
6
Continuous
62
2
370
-1
100
AcDbSpline
70
0
71
3
72
13
73
9
74
0
40
0
40
0
40
0
40
0
40
1
40
2
40
3
40
4
40
5
40
6
40
6
40
6
40
6
10
61.2217
20
-97.8806
30
0
10
62.7693
20
-97.045
30
0
10
64.4939
20
-96.9028
30
0
10
65.2407
20
-96.7783
30
0
10
66.8941
20
-96.2805
30
0
10
69.0149
20
-95.8348
30
0
10
72.8276
20
-96.1132
30
0
10
75.1179
20
-96.4369
30
0
10
76.952
20
-97.1594
30
0
0
SPLINE
5
1C0
100
AcDbEntity
67
0
8
aux
6
Continuous
62
2
370
-1
100
AcDbSpline
70
0
71
3
72
13
73
9
74
0
40
0
40
0
40
0
40
0
40
1
40
2
40
3
40
4
40
5
40
6
40
6
40
6
40
6
10
64.9586
20
-96.7509
30
0
10
65.876
20
-95.7316
30
0
10
66.2559
20
-95.3147
30
0
10
67.8497
20
-94.3232
30
0
10
69.084
20
-94.2627
30
0
10
71.9934
20
-94.4385
30
0
10
73.2562
20
-94.8381
30
0
10
74.3592
20
-95.5735
30
0
10
75.1179
20
-96.4369
30
0
0
SPLINE
5
1C1
100
AcDbEntity
67
0
8
aux
6
Continuous
62
2
370
-1
100
AcDbSpline
70
0
71
3
72
18
73
14
74
0
40
0
40
0
40
0
40
0
40
1
40
2
40
3
40
4
40
5
40
6
40
7
40
8
40
9
40
10
40
11
40
11
40
11
40
11
10
64.9586
20
-96.7509
30
0
10
65.186
20
-96.0228
30
0
10
66.2303
20
-94.8806
30
0
10
66.8993
20
-94.2605
30
0
10
67.8784
20
-92.9224
30
0
10
68.4169
20
-91.5191
30
0
10
68.4332
20
-91.0785
30
0
10
68.8248
20
-90.7522
30
0
10
69.8365
20
-90.8827
30
0
10
71.0767
20
-90.948
30
0
10
71.8436
20
-90.7359
30
0
10
72.5126
20
-90.9806
30
0
10
72.6432
20
-91.2907
30
0
10
75.1179
20
-96.4369
30
0
0
SPLINE
5
1C2
100
AcDbEntity
67
0
8
aux
6
Continuous
62
2
370
-1
100
AcDbSpline
70
0
71
3
72
8
73
4
74
0
40
0
40
0
40
0
40
0
40
1
40
1
40
1
40
1
10
74.3115
20
-102.871
30
0
10
73.8764
20
-103.875
30
0
10
73.6756
20
-105.247
30
0
10
73.7732
20
-105.728
30
0
0
SPLINE
5
1C3
100
AcDbEntity
67
0
8
aux
6
Continuous
62
2
370
-1
100
AcDbSpline
70
0
71
3
72
8
73
4
74
0
40
0
40
0
40
0
40
0
40
1
40
1
40
1
40
1
10
66.7937
20
-102.534
30
0
10
67.6707
20
-103.1
30
0
10
67.9536
20
-104.033
30
0
10
68.0102
20
-104.995
30
0
0
IMAGE
5
1C5
100
AcDbEntity
67
0
8
0
6
ByLayer
62
256
370
-1
100
AcDbRasterImage
90
0
10
314.437
20
25.5079
30
0
11
0.0863725
21
-0.00109107
31
0
12
0.00109107
22
0.0863725
32
0
13
751
23
600
340
1C4
70
3
0
LINE
5
1C6
100
AcDbEntity
67
0
8
aux
6
ByLayer
62
256
370
-1
100
AcDbLine
10
335.317
20
28.0192
30
0
11
335.317
21
74.0192
31
0
0
LINE
5
1C8
100
AcDbEntity
67
0
8
aux
6
ByLayer
62
256
370
-1
100
AcDbLine
10
335.317
20
28.0192
30
0
11
335.317
21
45.0192
31
0
0
LINE
5
1C9
100
AcDbEntity
67
0
8
aux
6
ByLayer
62
256
370
-1
100
AcDbLine
10
335.317
20
51.0192
30
0
11
396.895
21
51.0192
31
0
0
ARC
5
1CB
100
AcDbEntity
67
0
8
aux
6
ByLayer
62
256
370
-1
100
AcDbCircle
10
335.317
20
45.0192
30
0
40
19
100
AcDbArc
50
-53.9498
51
-26.6822
0
ARC
5
1CC
100
AcDbEntity
67
0
8
aux
6
ByLayer
62
256
370
-1
100
AcDbCircle
10
335.317
20
28.0192
30
0
40
16
100
AcDbArc
50
10.7079
51
34.9727
0
ARC
5
1CE
100
AcDbEntity
67
0
8
aux
6
ByLayer
62
256
370
-1
100
AcDbCircle
10
335.317
20
28.0192
30
0
40
20
100
AcDbArc
50
153.2
51
177.032
0
ARC
5
1CF
100
AcDbEntity
67
0
8
aux
6
ByLayer
62
256
370
-1
100
AcDbCircle
10
335.317
20
45.0192
30
0
40
22
100
AcDbArc
50
-165.849
51
-142.621
0
ARC
5
1D0
100
AcDbEntity
67
0
8
aux
6
ByLayer
62
256
370
-1
100
AcDbCircle
10
350.374
20
33.431
30
0
40
32
100
AcDbArc
50
26.4592
51
40.6224
0
LINE
5
1D1
100
AcDbEntity
67
0
8
aux
6
ByLayer
62
256
370
-1
100
AcDbLine
10
316.247
20
34.0486
30
0
11
335.317
21
45.0192
31
0
0
LINE
5
1D2
100
AcDbEntity
67
0
8
aux
6
ByLayer
62
256
370
-1
100
AcDbLine
10
335.317
20
45.0192
30
0
11
350.374
21
33.431
31
0
0
LINE
5
1D4
100
AcDbEntity
67
0
8
aux
6
ByLayer
62
256
370
-1
100
AcDbLine
10
335.317
20
74.0192
30
0
11
335.317
21
57.0192
31
0
0
ARC
5
1D5
100
AcDbEntity
67
0
8
aux
6
ByLayer
62
256
370
-1
100
AcDbCircle
10
335.317
20
57.0192
30
0
40
19
100
AcDbArc
50
26.6822
51
53.9498
0
ARC
5
1D6
100
AcDbEntity
67
0
8
aux
6
ByLayer
62
256
370
-1
100
AcDbCircle
10
335.317
20
74.0192
30
0
40
16
100
AcDbArc
50
325.027
51
349.292
0
ARC
5
1D7
100
AcDbEntity
67
0
8
aux
6
ByLayer
62
256
370
-1
100
AcDbCircle
10
335.317
20
74.0192
30
0
40
20
100
AcDbArc
50
182.968
51
206.8
0
ARC
5
1D8
100
AcDbEntity
67
0
8
aux
6
ByLayer
62
256
370
-1
100
AcDbCircle
10
335.317
20
57.0192
30
0
40
22
100
AcDbArc
50
142.621
51
165.849
0
LINE
5
1D9
100
AcDbEntity
67
0
8
aux
6
ByLayer
62
256
370
-1
100
AcDbLine
10
316.247
20
67.9898
30
0
11
335.317
21
57.0192
31
0
0
LINE
5
1DA
100
AcDbEntity
67
0
8
aux
6
ByLayer
62
256
370
-1
100
AcDbLine
10
335.317
20
57.0192
30
0
11
350.374
21
68.6074
31
0
0
CIRCLE
5
1DC
100
AcDbEntity
67
0
8
aux
6
Continuous
62
256
370
-1
100
AcDbCircle
10
335.317
20
51.0192
30
0
40
0.4
0
LINE
5
1DD
100
AcDbEntity
67
0
8
aux
6
Continuous
62
256
370
-1
100
AcDbLine
10
334.917
20
51.0192
30
0
11
335.717
21
51.0192
31
0
0
LINE
5
1DE
100
AcDbEntity
67
0
8
aux
6
Continuous
62
256
370
-1
100
AcDbLine
10
335.317
20
51.4192
30
0
11
335.317
21
50.6192
31
0
0
CIRCLE
5
1DF
100
AcDbEntity
67
0
8
aux
6
Continuous
62
256
370
-1
100
AcDbCircle
10
335.317
20
57.0192
30
0
40
0.4
0
LINE
5
1E0
100
AcDbEntity
67
0
8
aux
6
Continuous
62
256
370
-1
100
AcDbLine
10
335.664
20
56.8197
30
0
11
334.97
21
57.2187
31
0
0
LINE
5
1E1
100
AcDbEntity
67
0
8
aux
6
Continuous
62
256
370
-1
100
AcDbLine
10
335.118
20
56.6725
30
0
11
335.516
21
57.3659
31
0
0
CIRCLE
5
1E2
100
AcDbEntity
67
0
8
aux
6
Continuous
62
256
370
-1
100
AcDbCircle
10
335.317
20
45.0192
30
0
40
0.4
0
LINE
5
1E3
100
AcDbEntity
67
0
8
aux
6
Continuous
62
256
370
-1
100
AcDbLine
10
334.917
20
45.0192
30
0
11
335.717
21
45.0192
31
0
0
LINE
5
1E4
100
AcDbEntity
67
0
8
aux
6
Continuous
62
256
370
-1
100
AcDbLine
10
335.317
20
45.4192
30
0
11
335.317
21
44.6192
31
0
0
CIRCLE
5
1E5
100
AcDbEntity
67
0
8
aux
6
Continuous
62
256
370
-1
100
AcDbCircle
10
335.317
20
28.0192
30
0
40
0.4
0
LINE
5
1E6
100
AcDbEntity
67
0
8
aux
6
Continuous
62
256
370
-1
100
AcDbLine
10
334.917
20
28.0192
30
0
11
335.717
21
28.0192
31
0
0
LINE
5
1E7
100
AcDbEntity
67
0
8
aux
6
Continuous
62
256
370
-1
100
AcDbLine
10
335.317
20
28.4192
30
0
11
335.317
21
27.6192
31
0
0
CIRCLE
5
1E8
100
AcDbEntity
67
0
8
aux
6
Continuous
62
256
370
-1
100
AcDbCircle
10
350.374
20
33.431
30
0
40
0.4
0
LINE
5
1E9
100
AcDbEntity
67
0
8
aux
6
Continuous
62
256
370
-1
100
AcDbLine
10
349.974
20
33.431
30
0
11
350.774
21
33.431
31
0
0
LINE
5
1EA
100
AcDbEntity
67
0
8
aux
6
Continuous
62
256
370
-1
100
AcDbLine
10
350.374
20
33.831
30
0
11
350.374
21
33.031
31
0
0
CIRCLE
5
1EB
100
AcDbEntity
67
0
8
aux
6
Continuous
62
256
370
-1
100
AcDbCircle
10
316.247
20
34.0486
30
0
40
0.4
0
LINE
5
1EC
100
AcDbEntity
67
0
8
aux
6
Continuous
62
256
370
-1
100
AcDbLine
10
315.847
20
34.0486
30
0
11
316.647
21
34.0486
31
0
0
LINE
5
1ED
100
AcDbEntity
67
0
8
aux
6
Continuous
62
256
370
-1
100
AcDbLine
10
316.247
20
34.4486
30
0
11
316.247
21
33.6486
31
0
0
CIRCLE
5
1EE
100
AcDbEntity
67
0
8
aux
6
Continuous
62
256
370
-1
100
AcDbCircle
10
316.247
20
67.99
30
0
40
0.4
0
LINE
5
1EF
100
AcDbEntity
67
0
8
aux
6
Continuous
62
256
370
-1
100
AcDbLine
10
315.9
20
68.1895
30
0
11
316.594
21
67.7906
31
0
0
LINE
5
1F0
100
AcDbEntity
67
0
8
aux
6
Continuous
62
256
370
-1
100
AcDbLine
10
316.447
20
68.3368
30
0
11
316.048
21
67.6433
31
0
0
CIRCLE
5
1F1
100
AcDbEntity
67
0
8
aux
6
Continuous
62
256
370
-1
100
AcDbCircle
10
350.374
20
68.6074
30
0
40
0.4
0
LINE
5
1F2
100
AcDbEntity
67
0
8
aux
6
Continuous
62
256
370
-1
100
AcDbLine
10
350.13
20
68.9244
30
0
11
350.618
21
68.2904
31
0
0
LINE
5
1F3
100
AcDbEntity
67
0
8
aux
6
Continuous
62
256
370
-1
100
AcDbLine
10
350.691
20
68.8514
30
0
11
350.057
21
68.3634
31
0
0
CIRCLE
5
1F4
100
AcDbEntity
67
0
8
aux
6
Continuous
62
256
370
-1
100
AcDbCircle
10
377.107
20
51.0192
30
0
40
0.4
0
LINE
5
1F5
100
AcDbEntity
67
0
8
aux
6
Continuous
62
256
370
-1
100
AcDbLine
10
376.707
20
51.0192
30
0
11
377.507
21
51.0192
31
0
0
LINE
5
1F6
100
AcDbEntity
67
0
8
aux
6
Continuous
62
256
370
-1
100
AcDbLine
10
377.107
20
51.4192
30
0
11
377.107
21
50.6192
31
0
0
LINE
5
1F7
100
AcDbEntity
67
0
8
aux
6
Continuous
62
256
370
-1
100
AcDbLine
10
334.917
20
28.0192
30
0
11
334.917
21
74.0192
31
0
0
LINE
5
1F8
100
AcDbEntity
67
0
8
aux
6
Continuous
62
256
370
-1
100
AcDbLine
10
334.917
20
74.0192
30
0
11
335.717
21
74.0192
31
0
0
LINE
5
1F9
100
AcDbEntity
67
0
8
aux
6
Continuous
62
256
370
-1
100
AcDbLine
10
335.717
20
74.0192
30
0
11
335.717
21
28.0192
31
0
0
LINE
5
1FA
100
AcDbEntity
67
0
8
aux
6
Continuous
62
256
370
-1
100
AcDbLine
10
335.073
20
57.3362
30
0
11
350.13
21
68.9244
31
0
0
LINE
5
1FB
100
AcDbEntity
67
0
8
aux
6
Continuous
62
256
370
-1
100
AcDbLine
10
335.561
20
56.7022
30
0
11
350.618
21
68.2904
31
0
0
LINE
5
1FC
100
AcDbEntity
67
0
8
aux
6
Continuous
62
256
370
-1
100
AcDbLine
10
316.447
20
68.3368
30
0
11
335.516
21
57.3659
31
0
0
LINE
5
1FD
100
AcDbEntity
67
0
8
aux
6
Continuous
62
256
370
-1
100
AcDbLine
10
335.118
20
56.6725
30
0
11
316.048
21
67.6433
31
0
0
LINE
5
1FE
100
AcDbEntity
67
0
8
aux
6
Continuous
62
256
370
-1
100
AcDbLine
10
335.317
20
51.4192
30
0
11
377.107
21
51.4192
31
0
0
LINE
5
1FF
100
AcDbEntity
67
0
8
aux
6
Continuous
62
256
370
-1
100
AcDbLine
10
377.107
20
50.6192
30
0
11
335.317
21
50.6192
31
0
0
LINE
5
200
100
AcDbEntity
67
0
8
aux
6
Continuous
62
256
370
-1
100
AcDbLine
10
335.118
20
45.3659
30
0
11
316.048
21
34.3951
31
0
0
LINE
5
201
100
AcDbEntity
67
0
8
aux
6
Continuous
62
256
370
-1
100
AcDbLine
10
316.447
20
33.7016
30
0
11
335.516
21
44.6725
31
0
0
LINE
5
202
100
AcDbEntity
67
0
8
aux
6
Continuous
62
256
370
-1
100
AcDbLine
10
335.561
20
45.3362
30
0
11
350.618
21
33.748
31
0
0
LINE
5
203
100
AcDbEntity
67
0
8
aux
6
Continuous
62
256
370
-1
100
AcDbLine
10
335.073
20
44.7022
30
0
11
350.13
21
33.114
31
0
0
CIRCLE
5
204
100
AcDbEntity
67
0
8
aux
6
Continuous
62
256
370
-1
100
AcDbCircle
10
335.317
20
51.0192
30
0
40
0.4
0
LINE
5
205
100
AcDbEntity
67
0
8
aux
6
Continuous
62
256
370
-1
100
AcDbLine
10
335.057
20
51.3231
30
0
11
335.577
21
50.7153
31
0
0
LINE
5
206
100
AcDbEntity
67
0
8
aux
6
Continuous
62
256
370
-1
100
AcDbLine
10
335.621
20
51.2793
30
0
11
335.013
21
50.7591
31
0
0
LINE
5
207
100
AcDbEntity
67
0
8
aux
6
Continuous
62
256
370
-1
100
AcDbLine
10
335.621
20
51.2793
30
0
11
350.678
21
33.6911
31
0
0
LINE
5
208
100
AcDbEntity
67
0
8
aux
6
Continuous
62
256
370
-1
100
AcDbLine
10
335.013
20
50.7591
30
0
11
350.07
21
33.1709
31
0
0
LINE
5
209
100
AcDbEntity
67
0
8
aux
6
Continuous
62
256
370
-1
100
AcDbLine
10
335.013
20
51.2793
30
0
11
350.07
21
68.8675
31
0
0
LINE
5
20A
100
AcDbEntity
67
0
8
aux
6
Continuous
62
256
370
-1
100
AcDbLine
10
335.621
20
50.7591
30
0
11
350.678
21
68.3473
31
0
0
LWPOLYLINE
5
20B
100
AcDbEntity
67
0
8
rudder
6
ByLayer
62
256
370
-1
100
AcDbPolyline
90
16
70
1
10
316.447
20
33.7016
30
0
42
-0.1
10
334.917
20
28.0192
30
0
42
-0.1
10
335.717
20
28.0192
30
0
42
-0.1
10
350.13
20
33.114
30
0
42
-0.1
10
350.678
20
33.6911
30
0
42
-0.1
10
377.107
20
50.6192
30
0
42
-0.1
10
377.107
20
51.4192
30
0
42
-0.1
10
350.678
20
68.3473
30
0
42
-0.1
10
350.07
20
68.8675
30
0
42
-0.1
10
335.717
20
74.0192
30
0
42
-0.1
10
334.917
20
74.0192
30
0
42
-0.1
10
316.447
20
68.3368
30
0
42
-0.1
10
316.048
20
67.6433
30
0
42
0
10
335.317
20
56.6192
30
0
42
0
10
335.317
20
45.4192
30
0
42
0
10
316.048
20
34.3951
30
0
42
-0.1
0
LWPOLYLINE
5
20D
100
AcDbEntity
67
0
8
rudder
6
Hidden
62
256
370
-1
100
AcDbPolyline
90
3
70
0
10
316.447
20
33.7016
30
0
42
0
10
334.917
20
44.3276
30
0
42
0
10
334.917
20
28.0192
30
0
0
LWPOLYLINE
5
20E
100
AcDbEntity
67
0
8
rudder
6
Hidden
62
256
370
-1
100
AcDbPolyline
90
3
70
0
10
335.717
20
28.0192
30
0
42
0
10
335.717
20
44.2066
30
0
42
0
10
350.13
20
33.114
30
0
0
LWPOLYLINE
5
20F
100
AcDbEntity
67
0
8
rudder
6
Hidden
62
256
370
-1
100
AcDbPolyline
90
3
70
0
10
335.717
20
45.2161
30
0
42
0
10
347.564
20
36.0985
30
0
42
0
10
335.317
20
50.4041
30
0
0
LWPOLYLINE
5
210
100
AcDbEntity
67
0
8
rudder
6
Hidden
62
256
370
-1
100
AcDbPolyline
90
3
70
0
10
350.678
20
33.6911
30
0
42
0
10
336.186
20
50.6192
30
0
42
0
10
377.107
20
50.6192
30
0
0
LWPOLYLINE
5
211
100
AcDbEntity
67
0
8
rudder
6
Hidden
62
256
370
-1
100
AcDbPolyline
90
3
70
0
10
377.107
20
51.4192
30
0
42
0
10
336.186
20
51.4192
30
0
42
0
10
350.678
20
68.3473
30
0
0
LWPOLYLINE
5
212
100
AcDbEntity
67
0
8
rudder
6
Hidden
62
256
370
-1
100
AcDbPolyline
90
3
70
0
10
335.317
20
51.6343
30
0
42
0
10
347.564
20
65.9399
30
0
42
0
10
335.317
20
56.6192
30
0
0
LWPOLYLINE
5
213
100
AcDbEntity
67
0
8
rudder
6
Hidden
62
256
370
-1
100
AcDbPolyline
90
3
70
0
10
350.07
20
68.8675
30
0
42
0
10
335.717
20
57.8318
30
0
42
0
10
335.717
20
74.0192
30
0
0
LWPOLYLINE
5
214
100
AcDbEntity
67
0
8
rudder
6
Hidden
62
256
370
-1
100
AcDbPolyline
90
3
70
0
10
334.917
20
74.0192
30
0
42
0
10
334.917
20
57.7108
30
0
42
0
10
316.447
20
68.3368
30
0
0
LWPOLYLINE
5
215
100
AcDbEntity
67
0
8
rudder
6
ByLayer
62
256
370
-1
100
AcDbPolyline
90
16
70
1
10
181.512
20
27.7446
30
0
42
-0.1
10
199.982
20
22.0622
30
0
42
-0.1
10
200.782
20
22.0622
30
0
42
-0.1
10
215.195
20
27.157
30
0
42
-0.1
10
215.743
20
27.7341
30
0
42
-0.1
10
242.172
20
44.6622
30
0
42
-0.1
10
242.172
20
45.4621
30
0
42
-0.1
10
215.743
20
62.3902
30
0
42
-0.1
10
215.135
20
62.9105
30
0
42
-0.1
10
200.782
20
68.0622
30
0
42
-0.1
10
199.982
20
68.0622
30
0
42
-0.1
10
181.512
20
62.3797
30
0
42
-0.1
10
181.113
20
61.6863
30
0
42
0
10
200.382
20
50.6622
30
0
42
0
10
200.382
20
39.4621
30
0
42
0
10
181.113
20
28.438
30
0
42
-0.1
0
LWPOLYLINE
5
216
100
AcDbEntity
67
0
8
rudder
6
Hidden
62
256
370
-1
100
AcDbPolyline
90
3
70
0
10
181.512
20
27.7446
30
0
42
0
10
199.982
20
38.3706
30
0
42
0
10
199.982
20
22.0622
30
0
0
LWPOLYLINE
5
217
100
AcDbEntity
67
0
8
rudder
6
Hidden
62
256
370
-1
100
AcDbPolyline
90
3
70
0
10
200.782
20
22.0622
30
0
42
0
10
200.782
20
38.2496
30
0
42
0
10
215.195
20
27.157
30
0
0
LWPOLYLINE
5
218
100
AcDbEntity
67
0
8
rudder
6
Hidden
62
256
370
-1
100
AcDbPolyline
90
3
70
0
10
200.782
20
39.259
30
0
42
0
10
212.629
20
30.1415
30
0
42
0
10
200.382
20
44.4471
30
0
0
LWPOLYLINE
5
219
100
AcDbEntity
67
0
8
rudder
6
Hidden
62
256
370
-1
100
AcDbPolyline
90
3
70
0
10
215.743
20
27.7341
30
0
42
0
10
201.251
20
44.6622
30
0
42
0
10
242.172
20
44.6621
30
0
0
LWPOLYLINE
5
21A
100
AcDbEntity
67
0
8
rudder
6
Hidden
62
256
370
-1
100
AcDbPolyline
90
3
70
0
10
242.172
20
45.4622
30
0
42
0
10
201.251
20
45.4621
30
0
42
0
10
215.743
20
62.3902
30
0
0
LWPOLYLINE
5
21B
100
AcDbEntity
67
0
8
rudder
6
Hidden
62
256
370
-1
100
AcDbPolyline
90
3
70
0
10
200.382
20
45.6772
30
0
42
0
10
212.629
20
59.9828
30
0
42
0
10
200.382
20
50.6622
30
0
0
LWPOLYLINE
5
21C
100
AcDbEntity
67
0
8
rudder
6
Hidden
62
256
370
-1
100
AcDbPolyline
90
3
70
0
10
215.135
20
62.9105
30
0
42
0
10
200.782
20
51.8747
30
0
42
0
10
200.782
20
68.0622
30
0
0
LWPOLYLINE
5
21D
100
AcDbEntity
67
0
8
rudder
6
Hidden
62
256
370
-1
100
AcDbPolyline
90
3
70
0
10
199.982
20
68.0622
30
0
42
0
10
199.982
20
51.7537
30
0
42
0
10
181.512
20
62.3797
30
0
0
ENDSEC
0
SECTION
2
OBJECTS
0
DICTIONARY
5
22
100
AcDbDictionary
281
1
3
ACAD_COLOR
350
23
3
ACAD_GROUP
350
26
3
ACAD_LAYOUT
350
27
3
ACAD_MATERIAL
350
28
3
ACAD_MLINESTYLE
350
29
3
ACAD_PLOTSETTINGS
350
2A
3
ACAD_PLOTSTYLENAME
350
2B
3
ACAD_TABLESTYLE
350
2C
3
AcadDim
350
2D
0
DICTIONARY
5
23
100
AcDbDictionary
0
DICTIONARY
5
26
100
AcDbDictionary
0
DICTIONARY
5
27
100
AcDbDictionary
0
DICTIONARY
5
28
100
AcDbDictionary
0
DICTIONARY
5
29
100
AcDbDictionary
0
DICTIONARY
5
2A
100
AcDbDictionary
0
DICTIONARY
5
2B
100
AcDbDictionary
0
DICTIONARY
5
2C
100
AcDbDictionary
0
DICTIONARY
5
2D
100
AcDbDictionary
0
IMAGEDEF
5
2E
100
AcDbRasterImageDef
90
0
1
corpo-grande.png
0
IMAGEDEF
5
86
100
AcDbRasterImageDef
90
0
1
001i_signature_santos_dumont_400.png
0
IMAGEDEF
5
88
100
AcDbRasterImageDef
90
0
1
001i_portrait_santos_dumont_350.png
0
IMAGEDEF
5
AA
100
AcDbRasterImageDef
90
0
1
leme-det7.png
0
IMAGEDEF
5
1C4
100
AcDbRasterImageDef
90
0
1
leme-det1.png
0
ENDSEC
0
EOF
